<?xml version="1.0" encoding="utf-8"?>
<!-- Generator: Adobe Illustrator 22.1.0, SVG Export Plug-In . SVG Version: 6.00 Build 0)  -->
<svg version="1.1" id="Calque_1" xmlns="http://www.w3.org/2000/svg" xmlns:xlink="http://www.w3.org/1999/xlink" x="0px" y="0px"
	 viewBox="0 0 1920 1080" style="enable-background:new 0 0 1920 1080;" xml:space="preserve">
<style type="text/css">
	.st0{opacity:0.6;fill:#00374E;enable-background:new    ;}
	.st1{fill:#230D11;}
	.st2{fill:url(#SVGID_1_);}
	.st3{fill:#BF1F2C;}
	.st4{clip-path:url(#SVGID_3_);}
	.st5{fill:#FFFFFF;}
	.st6{opacity:0.67;fill:url(#SVGID_4_);enable-background:new    ;}
	.st7{opacity:0.5;}
	.st8{fill:#FFBE82;}
	.st9{fill:url(#SVGID_5_);}
	.st10{fill:url(#SVGID_6_);}
	.st11{fill:url(#SVGID_7_);}
	.st12{fill:url(#SVGID_8_);}
	.st13{fill:url(#SVGID_9_);}
	.st14{fill:#230B01;}
	.st15{fill:url(#SVGID_10_);}
	.st16{fill:#C40015;}
	.st17{fill:#00374E;}
	.st18{clip-path:url(#SVGID_12_);}
</style>
<g>
	<ellipse class="st0" cx="733.6" cy="731" rx="52.6" ry="8.4"/>
	<path class="st1" d="M751.8,703.3c-2,4-2,4-2,4l2,18.5c0,0-1,2.3-2.3,2.3s-11.4-14.2-10-17.1c1.4-3,2.4-7.3,2.4-7.3l-7.2-35.5
		l-8,35.5c0,0,1,4.3,2.4,7.3s-8.7,17.1-10,17.1s-2.3-2.3-2.3-2.3l2-18.5c0,0,0,0-2-4c-15.9-19.3-24.3-45.8-24.3-45.8
		c7.5,3.7,78,6.1,93.1-2.3C774.2,682.6,752.1,694.4,751.8,703.3z"/>
	<path d="M770.3,732c-2.3-3.3-6.2-5.9-10.2-6.3c-4-0.3-8.3,0-8.3,0l-4.8-0.1l-1.3,3.2L770.3,732z"/>
	<path d="M698.4,732c2.3-3.3,6.2-5.9,10.2-6.3c4-0.3,8.3,0,8.3,0l4.8-0.1l1.3,3.2L698.4,732z"/>
	
		<linearGradient id="SVGID_1_" gradientUnits="userSpaceOnUse" x1="727.3581" y1="463.0279" x2="696.5844" y2="389.1712" gradientTransform="matrix(1 0 0 -1 0 1080)">
		<stop  offset="0" style="stop-color:#FF7C62"/>
		<stop  offset="1" style="stop-color:#FFBE82"/>
	</linearGradient>
	<path class="st2" d="M802.6,610.4c0,3.8-0.2,7.4-0.6,10.8l0,0c-1,8.9-3.2,16.6-6.4,23.1l0,0c-4.1,8.3-9.9,14.8-16.9,19.7
		c-15.6,11.1-37.1,14.7-59.1,14.9c-34.4,0.3-53.5-8.7-62.5-22.9c-2.6-4.1-4.3-8.6-5.3-13.4l0,0c-0.7-3.3-1-6.7-1.1-10.2l0,0
		c-0.1-6.4,0.9-13.3,2.6-20.3c8.6-35.2,27.2-80,53-98.8l0,0c7.8-5.7,16.2-9,25.3-9c9.7,0,18.9,2.8,27.3,7.8
		c16.9,10.1,30.5,29.6,37.8,54.8l0,0c0,10.4,1.2,21.6,5.6,32.7l0,0C802.5,603.2,802.6,606.8,802.6,610.4z"/>
	<path class="st3" d="M802,621.3L802,621.3c-1.1,8.4-3.4,16.2-6.4,23.1l0,0c-3.9,8.8-9,16-14.6,20.4c-0.7-0.2-1.5-0.4-2.3-0.6
		c-23-6.5-90.4-28-121.6-8c-0.7,0.5-1.5,1-2.1,1.5c-1.3-4.4-2.4-9.5-3.2-14.9l0,0c-0.5-3.3-0.9-6.8-1.1-10.2l0,0
		c-0.2-3.8-0.2-7.6,0-11.3c2.8-44.1,22.3-99.1,55.6-107.8l0,0c3-0.8,6.1-1.2,9.3-1.2h58c32.7,0,23,24.2,23.2,54.8l0,0
		C796.8,587,805.5,595.8,802,621.3z"/>
	<g>
		<g>
			<defs>
				<path id="SVGID_2_" d="M802,621.3L802,621.3c-1.1,8.4-3.4,16.2-6.4,23.1l0,0c-3.9,8.8-9,16-14.6,20.4c-0.7-0.2-1.5-0.4-2.3-0.6
					c-23-6.5-90.4-28-121.6-8c-0.7,0.5-1.5,1-2.1,1.5c-1.3-4.4-2.4-9.5-3.2-14.9l0,0c-0.5-3.3-0.9-6.8-1.1-10.2l0,0
					c-0.2-3.8-0.2-7.6,0-11.3c2.8-44.1,22.3-99.1,55.6-107.8l0,0c3-0.8,6.1-1.2,9.3-1.2h58c32.7,0,23,24.2,23.2,54.8l0,0
					C796.8,587,805.5,595.8,802,621.3z"/>
			</defs>
			<clipPath id="SVGID_3_">
				<use xlink:href="#SVGID_2_"  style="overflow:visible;"/>
			</clipPath>
			<g class="st4">
				<g>
					<path class="st5" d="M713.1,552.3l-0.2-0.2c-0.2-0.1-4-3.2-8.1-9.3c-3.8-5.7-8.5-15.2-9.4-28.3l1.4-0.1
						c0.9,12.7,5.4,22,9.1,27.5c3.4,5.2,6.7,8.1,7.6,8.9c3.4-0.5,34.6-6.3,54.1-42.4l1.2,0.7c-20.8,38.7-55.1,43.1-55.4,43.2
						L713.1,552.3z"/>
				</g>
				<g>
					<path class="st5" d="M711.2,557l-0.2-0.2c-0.2-0.1-18.6-14.5-19.1-43.1l1.4,0c0.5,26.2,16.2,40.2,18.3,41.9
						c3.7-0.5,42.5-7.1,59.4-48.6l1.3,0.5c-18.1,44.3-60.5,49.5-60.9,49.5L711.2,557z"/>
				</g>
			</g>
		</g>
	</g>
	
		<linearGradient id="SVGID_4_" gradientUnits="userSpaceOnUse" x1="738.1605" y1="551.8138" x2="749.3048" y2="531.3225" gradientTransform="matrix(1 0 0 -1 0 1080)">
		<stop  offset="0.2351" style="stop-color:#FF765A"/>
		<stop  offset="1" style="stop-color:#FFFFFF"/>
	</linearGradient>
	<path class="st6" d="M763.7,507.1c-0.5,2.3,3.6,5.3,7.2,5.1c-7.5,19.3-27.6,31.1-45.8,31.1c-20.3,0-34.3-7.5-36-20.4
		c-3.1-23.5,23.3-58.7,43.6-58.7S768.6,484.5,763.7,507.1z"/>
	<g class="st7">
		<path class="st8" d="M770.9,512.2c0,0-9.1-22.4-7.9-31c1.5-11.3-35.7-15.5-52.3-2.8c0,0,3.4,38.9,3.5,42.5
			C720.5,535.7,757.5,525,770.9,512.2z"/>
	</g>
	
		<linearGradient id="SVGID_5_" gradientUnits="userSpaceOnUse" x1="770.378" y1="585.8345" x2="740.4288" y2="569.688" gradientTransform="matrix(1 0 0 -1 0 1080)">
		<stop  offset="0" style="stop-color:#FF7C62"/>
		<stop  offset="1" style="stop-color:#FFBE82"/>
	</linearGradient>
	<path class="st9" d="M770.9,512.2c0,0-9.1-22.4-7.9-31c0.2-1.4-0.4-1.9-1.7-1.7c-8.6,1.6-47.2,38.2-47.1,41.4
		c4.3,10.2,23.2,8.3,38.9,2C760.2,520,766.7,516.2,770.9,512.2z"/>
	
		<linearGradient id="SVGID_6_" gradientUnits="userSpaceOnUse" x1="730.6944" y1="517.0224" x2="724.0043" y2="578.8082" gradientTransform="matrix(1 0 0 -1 0 1080)">
		<stop  offset="0" style="stop-color:#FF7C62"/>
		<stop  offset="0.2201" style="stop-color:#FF8265"/>
		<stop  offset="0.5074" style="stop-color:#FF926D"/>
		<stop  offset="0.8304" style="stop-color:#FFAD7A"/>
		<stop  offset="1" style="stop-color:#FFBE82"/>
	</linearGradient>
	<path class="st10" d="M765,494.4c0,23.7-16.4,42.9-36.7,42.9s-45.5-2.4-45.5-30.9c0-23.7,25.2-55,45.5-55S765,470.7,765,494.4z"/>
	<path class="st8" d="M762.9,457.1c0,20.8-9.5,23.7-20.1,23.7s-18.9-15.7-18.9-26.4c0-10.6,8.6-19.3,19.3-19.3
		S762.9,444.9,762.9,457.1z"/>
	<path class="st8" d="M766.9,480.8c-4.1,2.8-7.6,0-8.4-2.1c0,0.6,0.1,1.2,0.1,1.8c-0.5-3.2-0.4-7.6-0.2-10.6
		c0.2-2.3,2.3-5.3,4.1-7.5c0,0.6,0,1.1-0.1,1.6c6-2.9,11.5-0.5,11.8,2.9C774.5,470.3,776.9,474.7,766.9,480.8z"/>
	
		<linearGradient id="SVGID_7_" gradientUnits="userSpaceOnUse" x1="745.615" y1="636.5004" x2="743.0137" y2="626.98" gradientTransform="matrix(1 0 0 -1 0 1080)">
		<stop  offset="0" style="stop-color:#FD9667"/>
		<stop  offset="1" style="stop-color:#FFBE82"/>
	</linearGradient>
	<path class="st11" d="M748.5,455.7c0,0-7.2-0.9-9.6-1c-2.4-0.1-5.7-1.8-5.7-1.8s6-9.3,11.7-11.3c8-2.8,6.6,7.8,6.9,15.3
		L748.5,455.7z"/>
	
		<linearGradient id="SVGID_8_" gradientUnits="userSpaceOnUse" x1="765.1594" y1="609.8647" x2="770.6691" y2="605.339" gradientTransform="matrix(1 0 0 -1 0 1080)">
		<stop  offset="0" style="stop-color:#FF7C62"/>
		<stop  offset="1" style="stop-color:#FFBE82"/>
	</linearGradient>
	<path class="st12" d="M763.2,476.6c0,0-0.6-1,0-3.3c0.6,1.6,3,0.8,3.7,0c0.8-0.8,0-3-2-3.5c-0.4-0.9,1.2-3.2,3.5-3.8
		c2.4-0.6,3,2,3,2s2.4,4.1-1,7C767.1,477.8,763.2,476.6,763.2,476.6z"/>
	
		<linearGradient id="SVGID_9_" gradientUnits="userSpaceOnUse" x1="731.196" y1="637.8664" x2="729.2169" y2="630.6231" gradientTransform="matrix(1 0 0 -1 0 1080)">
		<stop  offset="0" style="stop-color:#FD9667"/>
		<stop  offset="1" style="stop-color:#FFBE82"/>
	</linearGradient>
	<path class="st13" d="M732.6,453.8l-3.4-1.1c0,0-2.7-0.4-5.3-0.6c0.6-2.6,2.5-8.5,6.8-12.7C732.9,442,732.4,448.6,732.6,453.8z"/>
	<path class="st14" d="M756.8,442.2c0,0-4.5,2-7.7,2.8c-3.1,0.8-9.2,0-9.2,0c0.3-4.7,0.3-4.7,0.3-4.7s0.9,2.8,1.3,3.7
		c0.2-1.7,0.1-3,0.1-4.1l11.5-3.5l1.4,3l-0.3,1.4L756.8,442.2z"/>
	
		<linearGradient id="SVGID_10_" gradientUnits="userSpaceOnUse" x1="722.8058" y1="627.8176" x2="734.2433" y2="631.5732" gradientTransform="matrix(1 0 0 -1 0 1080)">
		<stop  offset="0" style="stop-color:#FF7C62"/>
		<stop  offset="1" style="stop-color:#FFBE82"/>
	</linearGradient>
	<path class="st15" d="M732.5,443.1c1.3-0.7,6.9,0,6.9,1.4s-7.8,9.7-8.7,10.6s-3,1.6-4.5,1c-1.6-0.6-5.4-2.7-5.8-4.6
		c-0.4-1.8,0.5-4.1,2.9-3.8c2.4,0.3,2.5,1.6,3,2.1c0.6,0.5,1.8,0.4,2.4-0.2C729.2,448.9,732.5,443.1,732.5,443.1z"/>
	<path class="st14" d="M725.7,438.3c0,0,3.6-2,3.6-3.6c2.5,0.5,6,5.1,6,5.1l-2.8,3.2C732.5,443.1,728.8,442.9,725.7,438.3z"/>
	<path class="st16" d="M799,586c0,0,0.1-0.1,0.4-0.3C799.4,585.9,799.2,586,799,586z"/>
	<path class="st17" d="M835.2,569.5c-0.1,0-0.1,0-0.2,0c-10.9,1.7-22.3,7.9-29.5,14.1c0.1-2.7-15.7-21.1-23.9-26.9
		c-11.2-8-19-35.3-3.3-40.6c9.2-3.1,24.9,1.3,39.7,21.2C825.4,547,830.9,558.3,835.2,569.5z"/>
	<g>
		<g>
			<defs>
				<path id="SVGID_11_" d="M835.2,569.5c-0.1,0-0.1,0-0.2,0c-10.9,1.7-22.3,7.9-29.5,14.1c0.1-2.7-15.7-21.1-23.9-26.9
					c-11.2-8-19-35.3-3.3-40.6c9.2-3.1,24.9,1.3,39.7,21.2C825.4,547,830.9,558.3,835.2,569.5z"/>
			</defs>
			<clipPath id="SVGID_12_">
				<use xlink:href="#SVGID_11_"  style="overflow:visible;"/>
			</clipPath>
			<g class="st18">
				<g>
					<path class="st5" d="M801.6,581.5l-1.1-0.8c4.7-6.4,13.3-15.1,34.7-17.7l0.2,1.4C814.7,566.9,806.5,574.9,801.6,581.5z"/>
				</g>
				<g>
					<path class="st5" d="M799.1,577.2l-1.1-0.8c4.7-6.4,13.3-15.1,34.7-17.7l0.2,1.4C812.2,562.6,804,570.6,799.1,577.2z"/>
				</g>
			</g>
		</g>
	</g>
	<path class="st8" d="M835.1,569.5c-12.5,2-22.9,9-27.4,12.5c10.7,24.8-2.2,52-3.1,53.6l-0.8,1.6c-3.1,1.4-10.6,3.2-10.6,3.2
		s0,0.4,0.7,2.1c0.5,1,3.9,1.2,6.4,1.2l-2.5,4.7l-7.1,10.4l1,2.7l5.6-5.5l-4.1,6.9l1.3,2.6l6.1-7l-2.1,5.6l1.6,2.4l5.3-8.8l0.3,4.1
		l1.9,0.9l1.1-11.7l4.2-10.8C827.7,619.2,841.4,594.8,835.1,569.5z"/>
	<g>
		<path class="st14" d="M741,452.6c-0.2,0-0.3,0-0.5,0c-2.4-0.5-2.6-3.3-2.4-4.7l1.4,0.2c0,0-0.4,2.8,1.2,3.1
			c1.3,0.2,2.3-1.3,2.7-2.3l1.3,0.5C744.2,451,742.8,452.6,741,452.6z"/>
	</g>
	<g>
		<path class="st14" d="M727.6,449.4c-0.2,0-0.3,0-0.5,0c-2.4-0.5-2.6-3.3-2.4-4.7l1.4,0.2c0,0-0.4,2.8,1.2,3.1
			c1.3,0.2,2.3-1.3,2.7-2.3l1.3,0.5C730.8,447.8,729.4,449.4,727.6,449.4z"/>
	</g>
</g>
</svg>
