<?xml version="1.0" encoding="utf-8"?>
<!-- Generator: Adobe Illustrator 22.1.0, SVG Export Plug-In . SVG Version: 6.00 Build 0)  -->
<svg version="1.1" id="Calque_1" xmlns="http://www.w3.org/2000/svg" xmlns:xlink="http://www.w3.org/1999/xlink" x="0px" y="0px"
	 viewBox="0 0 1920 1080" style="enable-background:new 0 0 1920 1080;" xml:space="preserve">
<style type="text/css">
	.st0{fill:#FFBF80;}
	.st1{fill:#BF1F2C;}
	.st2{fill:url(#SVGID_1_);}
	.st3{fill:#382327;}
	.st4{fill:#EE2737;}
	.st5{fill:url(#SVGID_2_);}
	.st6{fill:url(#SVGID_3_);}
	.st7{fill:url(#SVGID_4_);}
	.st8{fill:url(#SVGID_5_);}
	.st9{fill:url(#SVGID_6_);}
	.st10{fill:url(#SVGID_8_);}
	.st11{fill:url(#SVGID_9_);}
	.st12{fill:url(#SVGID_10_);}
	.st13{fill:url(#SVGID_11_);}
	.st14{fill:#FF5252;}
	.st15{fill:#800C0C;}
	.st16{fill:url(#SVGID_12_);}
	.st17{fill:#F9F9FA;}
	.st18{fill:url(#SVGID_13_);}
	.st19{fill:#531C08;}
	.st20{fill:url(#SVGID_14_);}
	.st21{fill:#FFFFFF;}
	.st22{fill:#00374E;}
</style>
<path class="st0" d="M1245.5,568.5c-1-2.9-6-5.1-14.9-5.9c-0.1,0-0.3,0-0.4-0.1l-14.8-8c-0.7-0.4-1.4-0.7-2.1-0.9
	c-1.1-14.6-11.2-38.5-11.3-38.8c-2.1-4-6.9-6.3-10.9-4.2s-5.6,7-3.5,11c10.4,20,12.5,32.4,15.5,38.4c0.7,1.9,2.1,3.5,4.4,5.4
	c3.1,2.7,19.6,2.3,21.1,1.3l0.4-0.4c1,1.7,2.8,3.4,4.2,3.5c15.5-2,9,5,11.3,5.3C1245.9,575.3,1246.6,571.6,1245.5,568.5z"/>
<path class="st0" d="M1135.4,563.5c10.3,1.1,6.5-11.8,22.6-42.6c2.1-4,0.5-8.9-3.5-11c-4-2.1-8.8,0.2-10.9,4.2
	C1143.4,514.5,1124.9,558.1,1135.4,563.5z"/>
<path class="st1" d="M1148.9,692.3c0,0-16.7,9.6-16.2,10.9c5.9-1.2,21-7.5,23.6-10.3c-2.2-2.7-2.9-4.7-5.2-3.9
	C1148.8,689.8,1148.9,692.3,1148.9,692.3z"/>
<path class="st1" d="M1155.3,693.9c0,0-14.9,12.3-14.1,13.4c5.6-2.1,19.5-10.9,21.6-14.1c-2.7-2.3-3.6-4.1-5.8-2.9
	S1155.3,693.9,1155.3,693.9z"/>
<linearGradient id="SVGID_1_" gradientUnits="userSpaceOnUse" x1="1146.7994" y1="641.0009" x2="1126.2976" y2="648.0602">
	<stop  offset="0" style="stop-color:#FF7D63"/>
	<stop  offset="0.2427" style="stop-color:#FF8B6A"/>
	<stop  offset="0.7039" style="stop-color:#FFB17C"/>
	<stop  offset="0.8419" style="stop-color:#FFBE82"/>
</linearGradient>
<path class="st2" d="M1134.3,604.7c0,0-1.1,2.4-1.7,3.7c0.9,17,6.7,34.7,11.4,51c2.7,9.1,5.7,18.2,8.8,27.2c0.5,1.4,1.2,3.2,1.2,3.2
	l-5,2.5c0,0-0.9-1.2-1.7-2.5c-9.8-16.9-18.1-34.9-24.9-53.3c-3.3-8.9-6.4-18.5-8.2-27.9c-0.5-2.8-0.4-5.9,0.2-8.5L1134.3,604.7z"/>
<path class="st0" d="M1156.9,610.5c0,0-6.2,2.8-6.5,3.4c-1,1.8,0.9,7.6,1.2,9.7c0.8,6,1.7,12,2.5,18.1c1.6,11.3,3.1,22.7,4.6,34
	c0.6,4.4,1.8,15.3,1.8,15.3l-5.2,2.2c0,0-1.3-1.4-2.5-4.4c-1.9-5-3.6-10-5.2-15.1c-3.8-11.5-7.4-23-10.7-34.6
	c-2.5-8.7-7.3-19.5-6.5-28.6c0.2-1.8,0.4-3.2,1-4.9L1156.9,610.5z"/>
<path class="st3" d="M1167.1,420.3c-15.7,1-19.3,21.4-18.6,42.2h3.8c-3.1,24.5,4.1,45.4,4.1,45.4l28.8-1c-0.6-9.1,5.8-22.9,3.4-44.4
	h1.6C1190.8,440.6,1186.7,419,1167.1,420.3z"/>
<ellipse class="st4" cx="1169.7" cy="432" rx="7.9" ry="5.3"/>
<linearGradient id="SVGID_2_" gradientUnits="userSpaceOnUse" x1="1171.75" y1="593.5672" x2="1171.75" y2="577.0729" gradientTransform="matrix(1 0 0 -1 0 1080)">
	<stop  offset="0" style="stop-color:#FF7D63"/>
	<stop  offset="0.2427" style="stop-color:#FF8B6A"/>
	<stop  offset="0.7039" style="stop-color:#FFB17C"/>
	<stop  offset="0.8419" style="stop-color:#FFBE82"/>
</linearGradient>
<path class="st5" d="M1177.5,503l-0.9-16.4c-0.2-3.1-2.8-5.4-5.8-5.2s-5.4,2.8-5.2,5.8l0.9,15.8l0,0l-7.3,2.7c0,0,0.7,5.1,12.8,5.1
	s12.3-5.4,12.3-5.4L1177.5,503z"/>
<linearGradient id="SVGID_3_" gradientUnits="userSpaceOnUse" x1="1169.5388" y1="613.7546" x2="1169.5388" y2="600.3488" gradientTransform="matrix(1 0 0 -1 0 1080)">
	<stop  offset="0" style="stop-color:#FF7D63"/>
	<stop  offset="0.1067" style="stop-color:#FF8969"/>
	<stop  offset="0.4007" style="stop-color:#FFA677"/>
	<stop  offset="0.6559" style="stop-color:#FFB87F"/>
	<stop  offset="0.8419" style="stop-color:#FFBE82"/>
</linearGradient>
<path class="st6" d="M1147.8,466.9c-3.4,1.6-3.8,5.2-2.9,7.4c0.9,2.2,5.5,7.1,8.2,6C1158.8,478,1154.2,464,1147.8,466.9z
	 M1190.7,464.3c3.6,1.2,4.3,4.7,3.7,6.9c-0.6,2.3-4.6,7.7-7.5,7C1181.3,476.5,1184.1,462.1,1190.7,464.3z"/>
<path class="st0" d="M1192.5,464.6L1192.5,464.6c-0.2,1.7-0.5,3.3-0.9,5.1c-5.4,24-21.5,24.6-21.5,24.6s-17.7-1.2-23.5-27.4
	l1.6-16.2l39.1-4.7L1192.5,464.6z"/>
<linearGradient id="SVGID_4_" gradientUnits="userSpaceOnUse" x1="1154.2119" y1="643.0683" x2="1172.5273" y2="619.6117" gradientTransform="matrix(1 0 0 -1 0 1080)">
	<stop  offset="0" style="stop-color:#A37D67"/>
	<stop  offset="0.1804" style="stop-color:#836554"/>
	<stop  offset="0.4204" style="stop-color:#5E4A3F"/>
	<stop  offset="0.6446" style="stop-color:#443730"/>
	<stop  offset="0.8445" style="stop-color:#342B26"/>
	<stop  offset="1" style="stop-color:#2E2723"/>
</linearGradient>
<path class="st7" d="M1192.5,464.6L1192.5,464.6c-0.2,1.7-0.5,3.3-0.9,5.1c-1.9-5-4.2-18.3-5.3-23.1c-0.4,0.2,2.3,14.7,1.8,14.9
	c-8.7,4.2-31.9,2.6-38.7,2.3c-0.4,0,0-12.8-0.3-12.8c-0.9,3.2,0.3,12.8-2.5,15.9c-0.8-4-1-7.7-1.2-11.8
	C1143.7,426,1196.9,416.9,1192.5,464.6z"/>
<g>
	<g>
		<path class="st4" d="M1196.8,533.3c-0.6,5.5-6.1,5.2-6.9,9.4c-1.4,7.2-3,25.1,2.2,33c-8,6.6-30.5,6.7-38.7,0
			c4.6-9.2,3.6-25.5,2.3-33c-0.8-4.4-9.7-5.4-7.3-11.4c4.7-11.9,4.7-11.9,0.5-21.4c3.6-1.7,6.5-2.9,10.3-4.2
			c2.8,5.8,22.5,6.9,25.1-0.3c4.3,0.9,7.8,2.2,12.6,3.9C1190.2,525.7,1197.6,526.6,1196.8,533.3z"/>
		<path class="st1" d="M1196.9,533.2c0,0.2-0.1,0.4-0.1,0.6l0,0c-0.2,0.6-0.3,1.1-0.5,1.7c-1.6,3.3-5.6,3.7-6.2,7.2
			c-0.3,1.8-0.7,4.3-1,7.2c-16.4-3.5-23.2-2.3-32.4,0c-0.2-2.9-0.6-5.4-0.9-7.3c-0.7-3.8-7.7-5.2-7.7-9.5c3.4,2.5,15,7.2,25.2,7.2
			C1185.1,540.4,1191,537.2,1196.9,533.2z"/>
	</g>
	
		<linearGradient id="SVGID_5_" gradientUnits="userSpaceOnUse" x1="1149.7872" y1="498.9398" x2="1195.5879" y2="477.7234" gradientTransform="matrix(1 0 0 -1 0 1080)">
		<stop  offset="0" style="stop-color:#487988"/>
		<stop  offset="0.1023" style="stop-color:#477083"/>
		<stop  offset="0.3706" style="stop-color:#455F78"/>
		<stop  offset="0.6589" style="stop-color:#435472"/>
		<stop  offset="1" style="stop-color:#435170"/>
	</linearGradient>
	<path class="st8" d="M1156.5,563.6c-3.9,16.4-42.2,10.6-42.2,36.6c26.6,10.2,65.3,16.6,89.4,7.2c4-16.5-11.8-41.5-14.8-43.8
		C1175.9,566.5,1168,565.9,1156.5,563.6z"/>
</g>
<g>
	
		<linearGradient id="SVGID_6_" gradientUnits="userSpaceOnUse" x1="6563.2749" y1="1614.3035" x2="6568.6035" y2="1614.3035" gradientTransform="matrix(-0.4515 0.8923 -0.8923 -0.4515 5575.7803 -4552.0527)">
		<stop  offset="0" style="stop-color:#FF7C62"/>
		<stop  offset="0.2801" style="stop-color:#FF8468"/>
		<stop  offset="0.7028" style="stop-color:#FE9878"/>
		<stop  offset="1" style="stop-color:#FDAB86"/>
	</linearGradient>
	<path class="st9" d="M1170.9,574.9c-1-0.5-1.6,0.1-1.6,0.6l2,5.6l1.9-2.4L1170.9,574.9z"/>
	
		<linearGradient id="SVGID_8_" gradientUnits="userSpaceOnUse" x1="6635.8745" y1="1284.7405" x2="6639.5234" y2="1291.8398" gradientTransform="matrix(-0.5254 0.8509 -0.8509 -0.5254 5749.3604 -4397.3823)">
		<stop  offset="0" style="stop-color:#FF7D63"/>
		<stop  offset="0.2427" style="stop-color:#FF8B6A"/>
		<stop  offset="0.7039" style="stop-color:#FFB17C"/>
		<stop  offset="0.8419" style="stop-color:#FFBE82"/>
	</linearGradient>
	<path class="st10" d="M1154.5,573.1c12.6-3.5,9.9-0.6,16,0.5c0.6,0.1,0.7,1-0.2,1.6c-0.9,0.6-3.7,0.3-4.1,0.4
		c-0.8,0.2-6.1-0.1-6.1-0.1L1154.5,573.1z"/>
	
		<linearGradient id="SVGID_9_" gradientUnits="userSpaceOnUse" x1="6067.0645" y1="1334.4241" x2="6067.0645" y2="1331.249" gradientTransform="matrix(-0.5209 1.0296 -1.2147 -0.6146 5941.001 -4843.7544)">
		<stop  offset="0.1581" style="stop-color:#FFBE82"/>
		<stop  offset="0.2961" style="stop-color:#FFB17C"/>
		<stop  offset="0.7573" style="stop-color:#FF8B6A"/>
		<stop  offset="1" style="stop-color:#FF7D63"/>
	</linearGradient>
	<path class="st11" d="M1157.1,584.8c2.2,0.7,5.5,1.6,6,1.2c0.6-0.4,3.6-3.1,3.6-3.1l-6.6-2.2L1157.1,584.8z"/>
	
		<linearGradient id="SVGID_10_" gradientUnits="userSpaceOnUse" x1="6065.1787" y1="1333.358" x2="6065.1787" y2="1330.1542" gradientTransform="matrix(-0.5209 1.0296 -1.2147 -0.6146 5941.001 -4843.7544)">
		<stop  offset="0.1581" style="stop-color:#FFBE82"/>
		<stop  offset="0.2961" style="stop-color:#FFB17C"/>
		<stop  offset="0.7573" style="stop-color:#FF8B6A"/>
		<stop  offset="1" style="stop-color:#FF7D63"/>
	</linearGradient>
	<path class="st12" d="M1159.2,583.7c2.2,0.5,5.7,1.3,6.3,0.8s3.6-3.1,3.6-3.1l-6.6-2.2L1159.2,583.7z"/>
	
		<linearGradient id="SVGID_11_" gradientUnits="userSpaceOnUse" x1="6062.6714" y1="1331.9514" x2="6062.6714" y2="1328.8549" gradientTransform="matrix(-0.5209 1.0296 -1.2147 -0.6146 5941.001 -4843.7544)">
		<stop  offset="0.1581" style="stop-color:#FFBE82"/>
		<stop  offset="0.2961" style="stop-color:#FFB17C"/>
		<stop  offset="0.7573" style="stop-color:#FF8B6A"/>
		<stop  offset="1" style="stop-color:#FF7D63"/>
	</linearGradient>
	<path class="st13" d="M1162.2,582.2c6.9,0.9,5.8,0.8,9.8-2.8l-6.6-2.2L1162.2,582.2z"/>
	<path class="st0" d="M1162,572.1c-3,0.2-6.4-0.1-9.2,1.8c-5.9-14.1-6.1-15.2-9.2-17c-3.9-2.5-6.3-3.6-10.1-1.9
		c-1.8,2.4-2.4,8.4,1.9,12.6l13.3,13c0,0,0,0,0,0.1l6.1,3.5l3,0.8c0,0,3.3-2.4,6.3-5.7c0.6-0.6,7.5,2.3,8,1.7
		C1174.7,577.9,1173.7,579.3,1162,572.1z"/>
</g>
<g>
	<path class="st14" d="M1163.7,484.1c2-1.8,11.4-2.5,13.9-1.2C1176.5,487.6,1166.3,488.7,1163.7,484.1z"/>
	<path class="st15" d="M1162.7,483.3c0,0,0.2-0.1,0.3,0c0.1,0,0.3,0.1,0.4,0.3c0.9,1.5,10.7,1,14.1-0.8c0.1-0.1,0.4-0.3,0.5-0.4
		c0-0.1,0.1-0.1,0.1-0.2c0.1-0.3,0.2-0.4,0.3-0.4c0.1,0,0.3,0,0.3,0s0.1,0.2,0.1,0.3c0,0.3-0.2,0.4-0.4,0.5
		c-0.3,0.1-0.4,0.3-0.7,0.5c-3.4,2.2-10.2,2.5-14.1,1.1c-0.3-0.1-0.5,0-0.7-0.2c-0.1-0.1-0.2-0.3-0.2-0.4s0-0.1,0-0.1
		C1162.6,483.4,1162.6,483.4,1162.7,483.3z"/>
	
		<linearGradient id="SVGID_12_" gradientUnits="userSpaceOnUse" x1="3520.073" y1="970.8282" x2="3520.073" y2="965.6623" gradientTransform="matrix(-1 -2.000000e-04 2.000000e-04 -1 4677.7295 1437.4919)">
		<stop  offset="0" style="stop-color:#FF7D63"/>
		<stop  offset="0.1067" style="stop-color:#FF8969"/>
		<stop  offset="0.4007" style="stop-color:#FFA677"/>
		<stop  offset="0.6559" style="stop-color:#FFB87F"/>
		<stop  offset="0.8419" style="stop-color:#FFBE82"/>
	</linearGradient>
	<path class="st16" d="M1163.6,470c-0.2-0.4-0.2-4.6-6.1-4.1c-3.4,0.3-5.4,3.3-5.4,3.3C1156.1,471.4,1161.3,471.9,1163.6,470z"/>
	<path id="SVGID_7_" class="st17" d="M1152.2,469.2c2.1,5.3,10.2,5.3,11.5,0.8C1163.6,470,1159,466.3,1152.2,469.2z"/>
	
		<linearGradient id="SVGID_13_" gradientUnits="userSpaceOnUse" x1="1158.168" y1="611.8197" x2="1158.168" y2="606.8157" gradientTransform="matrix(1 0 0 -1 0 1080)">
		<stop  offset="0" style="stop-color:#2B2C31"/>
		<stop  offset="0.1869" style="stop-color:#2A2F34"/>
		<stop  offset="0.3451" style="stop-color:#27383F"/>
		<stop  offset="0.4927" style="stop-color:#234850"/>
		<stop  offset="0.634" style="stop-color:#1C5D69"/>
		<stop  offset="0.7708" style="stop-color:#137989"/>
		<stop  offset="0.9023" style="stop-color:#099BAF"/>
		<stop  offset="1" style="stop-color:#00B9D1"/>
	</linearGradient>
	<path class="st18" d="M1155.5,468.2c-1,1.2-1,3-0.2,4.3c1.7,0.9,3.8,1,5.5,0.4c1.1-1.2,1-2.9,0.2-4.2
		C1159.7,468.2,1157.8,467.9,1155.5,468.2z"/>
	<path class="st19" d="M1150.9,469.9c1.9-2.8,8.9-3.7,12.8,0.1l-0.1,0.1c-2.6-0.7-3.9-2-10.6-0.6
		C1151.8,469.7,1150.9,469.9,1150.9,469.9z"/>
	
		<linearGradient id="SVGID_14_" gradientUnits="userSpaceOnUse" x1="1169.2971" y1="601.0252" x2="1169.4211" y2="605.0795" gradientTransform="matrix(1 0 0 -1 0 1080)">
		<stop  offset="0" style="stop-color:#FF7C62"/>
		<stop  offset="1" style="stop-color:#FFBE82"/>
	</linearGradient>
	<path class="st20" d="M1170.8,478.6c-1.1,1.4-3.7,0.5-3.7-1.8c0.5-1.4,2.1-0.1,2.3-3.4C1172.4,473.1,1171.9,477.2,1170.8,478.6z"/>
</g>
<g>
	<path class="st21" d="M1245.6,382.4l3.8-2c3.7-1.9,8.3-0.7,10.5,2.8l1.7,2.6l3.4-0.1c4.8-0.2,8.7,3.8,8.4,8.5l-0.1,1.1l1.1,0.4
		c4.9,2.1,6.6,8.3,3.2,12.5l0,0l0,0c3.3,4.2,1.7,10.4-3.2,12.5l-1.1,0.4l0.1,1.1c0.3,4.8-3.6,8.7-8.4,8.5l-3.4-0.1l-1.7,2.6
		c-2.3,3.5-6.8,4.7-10.5,2.8l-3.8-2l-3.8,2c-3.7,1.9-8.3,0.7-10.5-2.8l-1.7-2.6l-3.4,0.1c-4.8,0.2-8.7-3.8-8.4-8.5l0.1-1.1l-1.1-0.4
		c-4.9-2.1-6.6-8.3-3.2-12.5l0,0l0,0c-3.3-4.2-1.7-10.4,3.2-12.5l1.1-0.4l-0.1-1.1c-0.3-4.8,3.6-8.7,8.4-8.5l3.4,0.1l1.7-2.6
		c2.3-3.5,6.8-4.7,10.5-2.8L1245.6,382.4z M1201.5,438.3L1201.5,438.3c-2.1-2.4-0.5-6.2,2.7-6.4l0,0l0,0c0.3-3.2,4-4.7,6.4-2.7l0,0
		l0,0c2.4-2.1,6.2-0.5,6.4,2.7l0,0l0,0c3.2,0.3,4.7,4,2.7,6.4l0,0l0,0c2.1,2.4,0.5,6.2-2.7,6.4l0,0l0,0c-0.3,3.2-4,4.7-6.4,2.7l0,0
		l0,0c-2.4,2.1-6.2,0.5-6.4-2.7l0,0l0,0C1201,444.5,1199.4,440.8,1201.5,438.3L1201.5,438.3z M1202.7,452.4L1202.7,452.4
		c1.9-1.3,4.5,0.5,3.8,2.8l0,0l0,0c1.9,1.4,0.9,4.4-1.5,4.5l0,0l0,0c-0.8,2.2-3.9,2.2-4.7,0l0,0l0,0c-2.4,0-3.3-3-1.5-4.5l0,0l0,0
		C1198.2,452.9,1200.7,451.1,1202.7,452.4L1202.7,452.4z"/>
	<path class="st22" d="M1223.5,406.7c-0.2,0-0.3,0.1-0.3,0.2s0,0.2-0.1,0.2c-0.1,0.1-0.2,0.1-0.3,0c-0.1,0-0.3-0.1-0.4-0.2
		c-0.1-0.2-0.5-0.2-1.1-0.2c-0.2,0-0.4,0-0.6-0.1s-0.3-0.2-0.2-0.3c0-0.1,0.1-0.2,0.4-0.4c0.3-0.1,0.6-0.2,1-0.2h0.6
		c0.1-0.2,0.2-0.4,0.2-0.6s0.1-0.3,0.1-0.5c0-0.1,0.1-0.4,0.2-0.8c0.3-1,0.5-1.5,0.5-1.7c0.1-0.3,0.3-0.8,0.5-1.5
		c0.4-1.3,0.6-2,0.5-2s-0.3,0-0.7,0s-0.6,0.1-0.7,0.1c0,0.1-0.1,0.1-0.2,0s-0.2-0.2-0.2-0.3c0-0.2,0-0.3,0.1-0.4s0.3-0.2,0.7-0.3
		c0.4-0.1,0.8-0.2,1.1-0.2s0.6-0.1,0.8-0.3c0.2-0.1,0.4-0.1,0.5-0.1c0.1,0.1,0.4,0.1,1,0.1c0.9-0.1,1.4,0,1.5,0.4c0,0.2,0,0.3,0,0.4
		c-0.1,0.1-0.2,0.2-0.3,0.2c-0.2,0-0.5,0.1-0.9,0.1c-0.6,0.1-0.9,0.1-1,0.2l-0.1,0.1l-0.1,0.1c0,0.1,0,0.3-0.1,0.6
		c-0.1,0.3-0.2,0.7-0.3,1c-0.3,0.9-0.5,1.4-0.5,1.6c0,0-0.4,1.3-1.1,3.8c0.2,0,0.6-0.1,1.1-0.1c0.5-0.1,0.8-0.1,0.8,0
		c0,0,0.1,0.1,0.1,0.2c0.2,0.3,0.2,0.5,0,0.6s-0.6,0.2-1.1,0.2C1224.1,406.7,1223.7,406.7,1223.5,406.7z M1228.2,401.7l0.1-0.5
		c0.1-0.3,0.4-0.9,0.8-2s0.6-1.6,0.6-1.7s0-0.2,0.1-0.2c0.1-0.1,0.1-0.1,0.2-0.1c0.1-0.1,0.2-0.1,0.4-0.1l0.2,0.2
		c0.2,0.2,0.3,0.4,0.3,0.5s0,0.3-0.1,0.5s-0.2,0.5-0.5,1.2c0,0.1-0.1,0.2-0.2,0.4s-0.1,0.2-0.2,0.3c0,0.1-0.1,0.1-0.1,0.1s0,0,0,0.1
		c0,0,0,0.1-0.1,0.2c0,0.1-0.1,0.2-0.1,0.3c-0.4,0.8-0.6,1.3-0.6,1.4s0,0.2-0.1,0.2c0,0-0.1,0-0.1,0.1l0,0c0,0.1-0.1,0.3-0.2,0.7
		c-0.4,1.4-0.6,2.2-0.6,2.5s-0.1,0.6-0.3,0.7c-0.3,0.1-0.5-0.1-0.7-0.4s-0.2-0.8-0.1-1.3c0.1-0.3,0.2-0.5,0.2-0.6
		c0-0.2,0.1-0.5,0.3-1c0.2-0.5,0.3-0.7,0.3-0.8c0.1,0,0.1-0.1,0.1-0.3C1228,401.9,1228.1,401.8,1228.2,401.7z M1236,400.8
		c0.6,0,1,0.1,1.2,0.4c0.3,0.3,0.4,0.5,0.4,0.7v0.1c0,0.2-0.1,0.5-0.4,1c-0.1,0.2-0.3,0.4-0.6,0.6s-0.5,0.3-0.8,0.3s-0.5,0-0.8,0
		c-0.2,0-0.4-0.1-0.5-0.1s-0.1,0-0.2,0.1s-0.1,0.3-0.1,0.6c0,0.3,0.1,0.4,0.2,0.5s0.3,0.2,0.4,0.2s0.3,0,0.5-0.1
		c0.1-0.1,0.3-0.2,0.5-0.4c0.2-0.2,0.4-0.3,0.5-0.3s0.2,0.1,0.3,0.2c0.1,0.1,0.2,0.2,0.2,0.3c0,0.2-0.2,0.5-0.7,0.8
		c-0.4,0.4-0.9,0.5-1.4,0.5s-0.9-0.1-1.3-0.4c-0.3-0.3-0.5-0.7-0.5-1.3c0-0.2,0-0.4,0-0.7c0-0.2,0.1-0.5,0.2-0.9s0.4-0.7,0.7-1.1
		c0.3-0.4,0.6-0.7,1-0.9C1235.4,400.9,1235.7,400.8,1236,400.8z M1235.9,401.9c-0.1,0-0.3,0.1-0.5,0.3s-0.4,0.4-0.6,0.7
		c0,0.1,0.2,0.2,0.5,0.2s0.5,0,0.6-0.1s0.2-0.2,0.4-0.4c0.2-0.2,0.3-0.3,0.3-0.4c0-0.2-0.1-0.3-0.4-0.4L1235.9,401.9L1235.9,401.9z
		 M1242.1,400.7c0.1,0.1,0.2,0.3,0.3,0.5c0.1,0.2,0.2,0.4,0.2,0.5s-0.1,0.4-0.3,0.7c-0.1,0.2-0.2,0.4-0.2,0.4s0,0,0,0.1l0,0l0,0l0,0
		l0,0l0,0c0,0-0.1,0-0.2,0s-0.2-0.1-0.3-0.2c-0.1-0.1-0.2-0.3-0.2-0.4s0-0.3,0.1-0.4s0.1-0.2,0.1-0.2s0,0-0.1,0
		c-0.2,0-0.5,0.1-0.9,0.4s-0.6,0.6-0.6,0.9s0.1,0.6,0.3,0.9c0.1,0.1,0.2,0.3,0.3,0.7c0.1,0.4,0.2,0.7,0.2,1s-0.1,0.5-0.4,0.7
		s-0.6,0.3-1,0.3s-0.8-0.1-1.1-0.4c-0.3-0.3-0.5-0.6-0.5-0.9c0-0.2,0.1-0.2,0.2-0.2c0,0,0.2,0.1,0.4,0.2c0.2,0.1,0.4,0.2,0.6,0.2
		c0.4,0,0.6-0.1,0.6-0.3c0-0.1-0.1-0.3-0.2-0.6c-0.3-0.5-0.5-1.1-0.5-1.9c0-0.3,0.3-0.7,1-1.2c0.6-0.5,1.2-0.7,1.6-0.8
		C1241.6,400.6,1242,400.6,1242.1,400.7z M1246.6,400.1c0,0.1,0.1,0.1,0.2,0.1c0.3,0,0.5,0,0.6-0.1c0.1,0,0.2,0,0.2,0
		c0.1,0,0.2,0,0.3,0c0.1,0.1,0.1,0.3,0.1,0.5s-0.1,0.4-0.2,0.4c0,0-0.1,0-0.3,0.1c-0.1,0-0.6,0.1-1.3,0.2c-0.2,0.5-0.4,0.7-0.4,0.8
		s-0.1,0.1-0.1,0.2l-0.6,1.2c0,0-0.1,0-0.1,0.1s0,0.2,0,0.2c-0.1,0.1-0.1,0.1-0.2,0.2c0,0,0,0.2-0.1,0.3c0,0.2-0.1,0.4-0.2,0.7
		c0,0.2,0,0.3,0,0.3s0,0.1,0.1,0.1c0,0,0.2,0,0.4,0c0.1-0.1,0.1,0.3-0.2,1c-0.1,0.2-0.3,0.4-0.4,0.6c-0.2,0.2-0.3,0.2-0.3,0.2
		c-0.8,0-1.1-0.4-1-1.3c0-0.1,0.1-0.2,0.1-0.3c0.1-0.3,0.1-0.4,0.2-0.4v-0.1c0-0.1,0.1-0.4,0.3-0.8c-0.1-0.1,0-0.2,0.1-0.2
		c0.1-0.1,0.1-0.2,0.1-0.2s0-0.1,0-0.3s0.1-0.3,0.2-0.4c0.1-0.2,0.1-0.3,0.2-0.3c0,0,0.1-0.2,0.2-0.6s0.3-0.6,0.3-0.7
		c0.1,0,0-0.1-0.1-0.1s-0.4,0-0.8,0s-0.7-0.1-0.9-0.2c-0.1-0.1-0.1-0.3,0-0.5s0.2-0.3,0.4-0.3l1.8-0.2v-0.2c0-0.1,0.1-0.1,0.1-0.2
		s0.1-0.1,0.1-0.1s0,0,0-0.1c0,0,0-0.1,0.1-0.3c0.2-0.3,0.3-0.5,0.3-0.7c0.2-0.3,0.3-0.5,0.3-0.6c0.3-0.6,0.6-0.7,1-0.5
		c0.3,0.2,0.4,0.4,0.4,0.5s0,0.2-0.1,0.3c-0.1,0.1-0.1,0.3-0.2,0.5c-0.2,0.2-0.3,0.5-0.4,0.8S1246.6,400.1,1246.6,400.1z
		 M1251.8,401.5l0.2-0.5c0,0,0.1-0.2,0.3-0.6s0.2-0.7,0.3-0.9c0.3-0.8,0.6-1.3,0.7-1.7c0.1-0.1,0.1-0.2,0.2-0.3
		c0.2-0.3,0.3-0.4,0.3-0.4c0.1,0,0.2,0,0.4,0.1c0.2,0.1,0.4,0.2,0.4,0.3c0.1,0.1,0.1,0.1,0,0.3c0,0.1-0.1,0.3-0.2,0.6
		c-0.1,0.3-0.2,0.4-0.2,0.5s-0.1,0.1-0.1,0.3s-0.2,0.3-0.3,0.6c-0.1,0.3-0.3,0.6-0.4,1c-0.2,0.4-0.3,0.8-0.4,1.1
		c-0.1,0.3-0.2,0.6-0.2,0.7l-0.1,0.3l0.4-0.4c0.3-0.3,0.7-0.6,1-0.7c0.5-0.2,1-0.4,1.3-0.4s0.7,0.2,1,0.7c0.1,0.2,0.1,0.5,0.1,0.8
		s-0.1,0.6-0.2,0.8c-0.1,0.1-0.2,0.2-0.2,0.3c0,0.1-0.2,0.4-0.7,0.9c-0.2,0.3-0.6,0.5-1,0.8s-0.7,0.4-0.8,0.5s-0.3,0.1-0.4,0.1
		c-0.2,0-0.4,0.1-0.4,0.1c-0.3,0-0.6-0.2-0.7-0.4c-0.1-0.1-0.2-0.2-0.1-0.3c0.1,0,0.2,0,0.2-0.1s0.1-0.1,0.2-0.1
		c0.5,0,1.3-0.5,2.4-1.5c0.3-0.4,0.5-0.7,0.6-0.9c0.1-0.1,0.1-0.3,0-0.4c-0.1-0.2-0.4-0.2-0.9,0.2c-0.7,0.4-1.3,0.9-1.6,1.4
		l-0.6,0.7c0,0-0.1,0.1-0.2,0.1c-0.1,0.1-0.2,0.1-0.3,0.1c-0.1-0.1-0.2-0.2-0.3-0.3c-0.1-0.1-0.2-0.1-0.2-0.1s0-0.1-0.1-0.1
		c-0.1-0.1,0-0.4,0.1-0.9c0.2-1.1,0.4-1.7,0.5-1.8C1251.7,401.8,1251.8,401.6,1251.8,401.5z M1259.6,400.8c1,0,1.6,0.4,1.6,1.3
		c0,0.4-0.2,0.9-0.6,1.4s-0.8,0.8-1.3,0.8s-0.8-0.1-1.1-0.4c-0.2,0.3-0.2,0.6-0.2,0.8c0,0.2,0,0.3,0,0.4s0,0.1,0,0.2
		c0,0.2,0.2,0.3,0.3,0.3s0.3,0,0.4,0s0.2-0.1,0.2-0.1c0.1,0,0.1-0.1,0.2-0.2s0.2-0.1,0.3-0.2s0.2-0.1,0.2-0.1c0.1,0,0.1-0.1,0.2-0.1
		s0.1-0.1,0.2-0.1s0.3,0,0.4,0.1s0.2,0.2,0.2,0.3s-0.1,0.3-0.3,0.5s-0.3,0.4-0.5,0.4l-0.2,0.1c-0.1,0.1-0.2,0.2-0.3,0.2h-0.1
		c0,0.1-0.2,0.1-0.4,0.2c-0.2,0.1-0.4,0.1-0.6,0.1c-1.1,0-1.6-0.6-1.6-1.8c0-0.7,0.2-1.4,0.7-2.3
		C1258.1,401.4,1258.8,400.8,1259.6,400.8z M1258.5,403L1258.5,403c0.1,0,0.2,0.1,0.3,0.2s0.2,0.2,0.3,0.2c0.3,0,0.5-0.1,0.7-0.3
		c0.2-0.2,0.3-0.4,0.3-0.6c0-0.3-0.1-0.5-0.3-0.5c-0.2,0-0.3,0.1-0.5,0.2s-0.4,0.3-0.5,0.6L1258.5,403z M1264.5,401.1
		c0,0,0.2,0.1,0.4,0.2c0.4,0.1,0.6,0.2,0.8,0.4c0.1,0.2,0.2,0.5,0.3,0.9c0.1,0.3,0.1,0.5,0,0.6c0,0.1-0.1,0.1-0.1,0.1l0,0
		c0,0,0,0.1-0.1,0.2c-0.2,0.5-0.2,0.8-0.1,1.1c0.1,0.4,0.4,0.5,0.8,0.1c0.1-0.1,0.3-0.2,0.4-0.2s0.2,0,0.2,0.1l0.1,0.1l0.1,0.1
		c0,0.2-0.1,0.4-0.2,0.6c-0.1,0.1-0.2,0.2-0.2,0.3c0,0-0.1,0.1-0.2,0.2c-0.2,0.1-0.4,0.2-0.6,0.2s-0.5-0.1-0.6-0.2
		c-0.4-0.3-0.6-0.5-0.7-0.8l-0.1-0.1l-0.4,0.3l-0.3,0.4c-0.1,0.1-0.1,0.1-0.2,0.1h-0.1c0,0.1-0.1,0.1-0.4,0.2s-0.5,0.1-0.6,0.1
		c-0.2,0-0.3,0-0.6-0.3c-0.2-0.2-0.4-0.4-0.4-0.6c-0.1-0.3,0-0.8,0.2-1.3s0.5-1.1,1-1.6c0.4-0.5,0.9-0.9,1.4-1.1
		C1264.3,401.2,1264.4,401.1,1264.5,401.1z M1264.7,402.6c0-0.1-0.1-0.2-0.1-0.2c-0.1,0-0.2,0-0.3,0.1c-0.3,0.2-0.6,0.5-1,1.1
		s-0.6,1-0.6,1.2l0.1,0.1c0.1,0,0.3-0.1,0.6-0.4c0.3-0.2,0.5-0.4,0.6-0.5s0.1-0.2,0.2-0.3c0.1-0.1,0.2-0.2,0.3-0.4
		c0.1-0.1,0.2-0.3,0.3-0.4C1264.8,402.9,1264.8,402.8,1264.7,402.6z M1270.4,405.1v-0.2c-0.1,0.2-0.2,0.4-0.3,0.5
		c-0.2,0.2-0.4,0.4-0.6,0.5c-0.6,0.4-1.1,0.4-1.4-0.1c-0.4-0.3-0.5-0.7-0.4-1.1c0-0.7,0.2-1.4,0.6-2.2c0.4-0.8,0.6-1.2,0.6-1.3
		c0.1-0.1,0.3-0.1,0.5,0s0.3,0.2,0.3,0.3c0.1,0.1,0.1,0.3,0,0.5c-0.1,0.3-0.2,0.6-0.3,0.9c-0.4,0.9-0.6,1.5-0.6,1.7s0,0.3,0.2,0.4
		c0.1,0.1,0.2,0.1,0.4,0c0.1-0.1,0.3-0.2,0.6-0.6c0.2-0.3,0.5-0.7,0.6-1.1c0.2-0.4,0.3-0.8,0.3-1.2c0-0.1,0-0.2,0.1-0.3
		c0.1-0.1,0.2-0.2,0.3-0.3c0-0.1,0.1-0.1,0.1-0.1h0.1h0.2c0,0,0.1,0,0.1,0.1c0.1,0.1,0.1,0.1,0.1,0.2c0.3,0.2,0.2,0.8-0.2,1.7
		c-0.5,1.1-0.6,1.9-0.2,2.2c0.1,0.1,0.2,0.3,0.2,0.7c0,0.1-0.2,0.2-0.4,0.2c-0.2,0-0.4,0-0.6-0.1c-0.1-0.1-0.3-0.4-0.4-1
		C1270.4,405.4,1270.4,405.3,1270.4,405.1z M1232.8,415l0.1,0.6c0,0.1,0.1,0.3,0.2,0.8c0.8-0.8,1.2-1.3,1.4-1.5
		c0.9-1,1.4-1.8,1.7-2.3c0.1-0.2,0.2-0.3,0.2-0.3h0.1h0.1c0.3,0,0.4,0.2,0.5,0.6c0,0.4-0.1,0.8-0.4,1.3c-0.2,0.2-0.3,0.4-0.4,0.5
		c-0.7,0.9-1.2,1.4-1.4,1.5c-0.6,0.5-1,0.8-1.1,1.1c-0.2,0.2-0.3,0.3-0.3,0.3c0.2,0.7,0.4,1.3,0.7,1.9c0.3,0.6,0.5,0.9,0.8,1.1h0.1
		h0.1c0.1,0,0.2,0,0.2,0.2s0,0.4,0,0.6c0,0.1-0.1,0.2-0.3,0.3c-0.7,0.3-1.4,0-1.9-1c-0.4-0.5-0.7-1.2-1-1.9
		c-0.1,0.1-0.1,0.1-0.1,0.1c-0.3,0.3-0.8,0.8-1.6,1.7c-0.8,0.9-1.2,1.3-1.3,1.5s-0.2,0.2-0.4,0.1c0,0-0.1,0-0.3,0s-0.2,0-0.2,0
		c0-0.1-0.1-0.2-0.1-0.3c-0.1-0.1-0.1-0.4,0.1-0.9c0.1-0.2,0.2-0.3,0.4-0.5s0.3-0.3,0.5-0.4s0.3-0.3,0.4-0.4s0.2-0.2,0.3-0.3
		c0.1-0.1,0.2-0.2,0.3-0.3c0.1-0.1,0.1-0.1,0.1-0.1s0,0,0-0.1l0.1-0.1c0.1-0.1,0.1-0.1,0.1-0.2c0.2-0.1,0.5-0.5,1.2-1.1
		c-0.1-0.3-0.1-0.7-0.2-1.1s-0.1-0.7-0.2-0.8c0,0,0-0.1,0.1-0.1c0,0,0-0.1-0.1-0.4c-0.1-0.2-0.1-0.6-0.2-1.3
		c-0.1-0.7-0.1-1.1-0.2-1.2c0,0,0.1-0.1,0.3-0.4c0.2-0.1,0.4-0.1,0.7,0c0.3,0.2,0.4,0.4,0.4,0.7c0,0.3,0,0.5,0.1,0.5
		c0,0,0,0.2,0,0.6s0.1,0.6,0.1,0.7C1232.8,414.9,1232.8,415,1232.8,415z M1240.3,419.8l0.1-1.1c0-0.2-0.1-0.3-0.2-0.3
		c-0.2,0-0.5,0.2-1,0.5s-0.9,0.8-1.4,1.3c-0.3,0.4-0.6,0.7-0.9,0.7c-0.2,0-0.3-0.1-0.5-0.3c-0.1-0.2-0.2-0.3-0.2-0.6
		c0-0.2,0.1-0.8,0.4-1.7c0-0.2,0.1-0.5,0.2-0.7c0.1-0.3,0.2-0.5,0.3-0.8c0.1-0.3,0.2-0.8,0.5-1.5c0.3-0.8,0.5-1.3,0.6-1.6
		c0.1-0.3,0.2-0.5,0.2-0.7c0.1-0.2,0.2-0.4,0.2-0.6c0-0.1,0.1-0.1,0.2-0.2s0.2-0.1,0.3-0.1c0.1,0,0.2,0.1,0.4,0.3
		c0.2,0.3,0.3,0.7,0.1,1c-0.2,0.3-0.4,1-0.8,2.1s-0.6,1.7-0.7,1.9l-0.2,0.3l-0.2,0.9l0,0c0.4-0.4,0.8-0.8,1.1-1
		c0.3-0.2,0.5-0.4,0.5-0.4s0.2-0.1,0.4-0.3c0.2-0.2,0.5-0.2,0.8-0.2c0.2,0,0.4,0.1,0.6,0.4c0.2,0.2,0.3,0.5,0.3,0.8v0.2
		c0,0.2-0.1,0.7-0.3,1.6c0,0,0.1,0,0.2,0c0.2,0,0.3,0,0.4,0.1s0.2,0.1,0.2,0.1s0,0,0,0.1c0,0.2-0.1,0.4-0.3,0.6
		c-0.2,0.2-0.5,0.2-0.7,0.3c-0.3,0-0.5-0.1-0.6-0.3C1240.3,420.3,1240.3,420,1240.3,419.8z M1242.9,420.7c0-0.1-0.1-0.2-0.2-0.4
		c-0.1-0.1,0.1-0.9,0.9-2.2c0.1-0.1,0.1-0.2,0.2-0.3c0.1-0.1,0.1-0.2,0.2-0.2v-0.1h0.1l0.1-0.2c0-0.1,0.2-0.3,0.5-0.6
		c0.3-0.3,0.6-0.5,0.8-0.7c0.2-0.1,0.4-0.2,0.6-0.2s0.4,0.1,0.5,0.2c0,0,0.1,0.1,0.2,0.2c0.2,0.1,0.6,0.5,1.2,1l-0.2,0.7
		c-0.2,0.6-0.2,1.2,0.2,1.7c0.1,0.2,0.3,0.3,0.5,0.4c0.2,0,0.3,0.1,0.3,0.3c0,0.4-0.1,0.6-0.4,0.7c-0.7,0.1-1.3-0.2-1.6-0.9
		c-0.1-0.2-0.2-0.4-0.3-0.6c-0.1,0.1-0.2,0.2-0.3,0.4c-1.3,1.3-2.2,1.7-2.9,1.3c0-0.1-0.1-0.1-0.2-0.2S1242.9,420.7,1242.9,420.7z
		 M1246.2,417.1c-0.3,0-0.9,0.7-1.7,2c-0.1,0.2-0.3,0.5-0.4,0.9c0.1,0,0.4-0.1,0.9-0.5c0.1-0.1,0.2-0.2,0.3-0.3s0.2-0.2,0.3-0.3
		s0.1-0.1,0.3-0.2c0.2-0.2,0.3-0.4,0.5-0.6l0.3-0.5C1246.6,417.2,1246.4,417.1,1246.2,417.1z M1252.3,412.7c0.1,0,0.2,0,0.3,0.1
		c0.1,0.1,0.2,0.2,0.3,0.3c0.1,0.2,0.1,0.3,0.1,0.4s0,0.2-0.1,0.3c-0.1,0.1-0.1,0.2-0.2,0.3c-0.1,0.1-0.1,0.2-0.2,0.2
		c-0.1,0.5-0.3,0.7-0.3,0.9c-0.1,0.2-0.2,0.4-0.2,0.4c0,0.1-0.1,0.3-0.2,0.6c-0.1,0.3-0.2,0.6-0.3,0.8c-0.1,0.3-0.2,0.5-0.2,0.6
		c0.1-0.1,0.2-0.2,0.3-0.2c0.3-0.2,0.6-0.4,1-0.7c0.4-0.3,0.6-0.5,0.7-0.6s0.2-0.1,0.4,0c0.3,0.1,0.4,0.3,0.4,0.6
		c0,0.2-0.2,0.5-0.7,0.8c-0.2,0.2-0.5,0.3-0.6,0.5c-0.3,0.1-0.4,0.3-0.5,0.3s-0.2,0.2-0.4,0.4c0,0.1,0.1,0.1,0.2,0.2
		c0.5,0.7,0.8,1.2,0.9,1.3c0.1,0.2,0.2,0.3,0.3,0.3s0.2,0.1,0.3,0.2c0.1,0.1,0.1,0.2,0.1,0.4c0,0.2-0.3,0.4-0.8,0.4
		c-0.2,0-0.4-0.1-0.7-0.3c-0.1-0.1-0.3-0.3-0.5-0.6c-0.2-0.3-0.4-0.6-0.6-0.8s-0.3-0.4-0.3-0.5c-0.1,0.3-0.2,0.5-0.2,0.5
		c0,0.1-0.1,0.3-0.1,0.6c-0.1,0.3-0.1,0.5-0.2,0.6c0,0.4-0.2,0.6-0.6,0.4s-0.6-0.4-0.5-0.7c0-0.3,0.1-0.6,0.2-0.9
		c0.1-0.4,0.2-0.8,0.3-1c0.4-1.3,0.7-2,0.7-2.1c0.1-0.2,0.2-0.5,0.4-0.9c0.2-0.4,0.3-0.7,0.4-0.8s0.2-0.4,0.3-0.8s0.2-0.6,0.3-0.7
		c0.1-0.1,0.2-0.3,0.3-0.5C1252.1,412.7,1252.2,412.7,1252.3,412.7z M1259.7,420.2c-0.1,0.2-0.3,0.4-0.5,0.5s-0.4,0.2-0.6,0.2
		s-0.3-0.1-0.5-0.3c-0.2-0.2-0.3-0.5-0.4-1l-0.5,0.5c-0.1,0.1-0.1,0.2-0.2,0.3c-0.2,0.2-0.3,0.3-0.3,0.3c-0.1,0.1-0.3,0.3-0.8,0.4
		c-0.1,0-0.3,0-0.5,0s-0.3-0.1-0.3-0.1v-0.1c0,0,0,0-0.1,0c-0.2-0.1-0.3-0.2-0.4-0.3c-0.1-0.1-0.2-0.3-0.2-0.4s0-0.5,0.2-0.9
		c0-0.5,0.3-1.2,0.8-1.9s1-1.2,1.5-1.5c0.1-0.1,0.3-0.2,0.5-0.2s0.4,0,0.5,0.1s0.3,0.2,0.5,0.5c0.2,0.2,0.3,0.5,0.4,0.7
		c0,0,0,0.1,0.1,0.3s0.1,0.3,0,0.3c0,0,0,0.2,0,0.5c-0.1,0.4-0.2,0.7-0.2,1c0,0.2,0,0.3,0.1,0.4s0.2,0.1,0.3,0s0.3,0,0.5,0.1
		S1259.8,420,1259.7,420.2z M1255.6,419.7c0,0.3,0.2,0.4,0.5,0.2c0.2-0.1,0.4-0.3,0.5-0.4c0.2-0.2,0.4-0.5,0.6-0.9
		c0.3-0.4,0.4-0.7,0.5-0.9c-0.1-0.3-0.2-0.5-0.4-0.5c-0.3,0-0.6,0.3-1.1,0.9c-0.2,0.3-0.4,0.6-0.5,1
		C1255.7,419.4,1255.6,419.6,1255.6,419.7z M1262,420.1c0.2-0.1,0.3-0.2,0.4-0.2s0.2,0,0.4,0.1c0.3,0.2,0.5,0.4,0.4,0.7
		c0,0.2-0.2,0.5-0.6,0.6s-0.7,0.1-0.9-0.1C1261.3,420.9,1261.4,420.5,1262,420.1z M1263.8,414.9l0.2-0.5c0.2-0.3,0.4-0.8,0.7-1.6
		s0.5-1.2,0.5-1.3c0-0.1,0-0.2,0.1-0.2c0-0.1,0.1-0.1,0.2-0.1c0,0,0.2-0.1,0.3-0.1c0.1,0,0.3,0.1,0.4,0.2s0.1,0.2,0.1,0.4
		c0,0.2,0,0.3,0,0.4s0,0.1-0.1,0.2c0,0.1-0.1,0.1-0.1,0.2c-0.1,0.1-0.1,0.2-0.1,0.2c0,0.1-0.1,0.3-0.3,0.5c-0.3,0.5-0.4,0.8-0.4,0.8
		s-0.1,0.2-0.2,0.4c-0.1,0.1-0.2,0.3-0.2,0.5c-0.1,0.2-0.1,0.3-0.1,0.4s-0.1,0.2-0.1,0.2s-0.1,0-0.1,0.1l0,0c0,0.1-0.1,0.4-0.3,0.7
		c-0.3,0.9-0.5,1.5-0.5,1.9c0,0.3-0.2,0.6-0.4,0.7c-0.3,0.1-0.5-0.1-0.6-0.3s-0.1-0.7,0-1.4c0.1-0.3,0.2-0.5,0.2-0.6
		c0.1-0.4,0.3-0.8,0.5-1.2c0,0,0.1,0,0.1-0.1s0.1-0.2,0.1-0.3C1263.6,415.1,1263.7,415,1263.8,414.9z"/>
</g>
</svg>
