<?xml version="1.0" encoding="utf-8"?>
<!-- Generator: Adobe Illustrator 22.1.0, SVG Export Plug-In . SVG Version: 6.00 Build 0)  -->
<svg version="1.1" id="Calque_1" xmlns="http://www.w3.org/2000/svg" xmlns:xlink="http://www.w3.org/1999/xlink" x="0px" y="0px"
	 viewBox="0 0 1920 1080" style="enable-background:new 0 0 1920 1080;" xml:space="preserve">
<style type="text/css">
	.st0{fill:url(#SVGID_1_);}
	.st1{fill:#1D0200;}
	.st2{fill:url(#SVGID_2_);}
	.st3{fill:#489C8E;}
	.st4{fill:#00374E;}
	.st5{fill:none;stroke:#FFFFFF;stroke-width:8;stroke-linecap:round;stroke-miterlimit:10;}
	.st6{fill:none;stroke:#F8BA9B;stroke-width:8;stroke-linecap:round;stroke-miterlimit:10;}
	.st7{clip-path:url(#SVGID_4_);fill:url(#SVGID_5_);}
	.st8{clip-path:url(#SVGID_4_);fill:#663333;}
	.st9{opacity:0.27;fill:#663333;}
	.st10{fill:#FFA070;}
	.st11{clip-path:url(#SVGID_7_);fill:url(#SVGID_8_);}
	.st12{clip-path:url(#SVGID_7_);fill:none;stroke:#FFFFFF;stroke-width:1.3306;stroke-linecap:round;stroke-miterlimit:10;}
	.st13{fill:#EE2737;}
	.st14{fill:url(#SVGID_9_);}
	.st15{fill:#F8BA9B;}
	.st16{fill:#FCBA9D;}
	.st17{fill:none;stroke:#7F3E40;stroke-width:2.2177;stroke-linecap:round;stroke-miterlimit:10;}
	.st18{fill:#2E2225;}
	.st19{fill:url(#SVGID_10_);}
	.st20{fill:#7B0303;}
	.st21{fill:#FFFFFF;}
	.st22{fill:none;stroke:#FCBA9D;stroke-miterlimit:10;}
</style>
<g>
	
		<linearGradient id="SVGID_1_" gradientUnits="userSpaceOnUse" x1="969.189" y1="323.9406" x2="969.189" y2="359.567" gradientTransform="matrix(0.9676 -0.2524 0.2524 0.9676 -149.0774 497.654)">
		<stop  offset="0" style="stop-color:#F8BA9B"/>
		<stop  offset="0.3739" style="stop-color:#F7A37C"/>
		<stop  offset="0.7666" style="stop-color:#F58F62"/>
		<stop  offset="1" style="stop-color:#F58858"/>
	</linearGradient>
	<path class="st0" d="M875.9,568.3c0,0,3.9,8.2,4.3,16.7c0.3,8.5-1.2,14.1-3.2,16.6l-2.3,0c-0.6-4-0.8-6.5-0.5-10
		c0.2-2.7-7.4-9.1-7.2-19.8L875.9,568.3z"/>
	<path class="st1" d="M876.9,601c0,0,15.7,1.7,14.3,4.8c-1.4,3.1-15.9-2.4-16.4-4.4L876.9,601z"/>
	
		<linearGradient id="SVGID_2_" gradientUnits="userSpaceOnUse" x1="2837.2346" y1="811.2233" x2="2837.2346" y2="846.8497" gradientTransform="matrix(-0.9676 -0.2524 -0.2524 0.9676 3803.0774 497.654)">
		<stop  offset="0" style="stop-color:#F8BA9B"/>
		<stop  offset="0.3739" style="stop-color:#F7A37C"/>
		<stop  offset="0.7666" style="stop-color:#F58F62"/>
		<stop  offset="1" style="stop-color:#F58858"/>
	</linearGradient>
	<path class="st2" d="M847.6,568.3c0,0-3.9,8.2-4.3,16.7c-0.3,8.5,1.2,14.1,3.2,16.6l2.3,0c0.6-4,0.8-6.5,0.5-10
		c-0.2-2.7,7.4-9.1,7.2-19.8L847.6,568.3z"/>
	<path class="st1" d="M846.6,601c0,0-15.8,0-14.7,3.2c1.1,3.3,16.1-0.6,16.8-2.6L846.6,601z"/>
	<path class="st3" d="M844.3,573.6c0,0,1.4,5.3,16.6,5.3c16.4,0,17.7-5.3,17.7-5.3v-5.5h-34.3V573.6z"/>
	<path class="st3" d="M844.9,568.2c0,0-3.4,9.3-3.6,15.9c5.1,3.1,15.3,1.5,15.3,1.5s0.7-8.3,0-13.2
		C855.8,567.6,844.9,568.2,844.9,568.2z"/>
	<path class="st3" d="M877.6,568.2c0,0,3.4,9.3,3.6,15.9c-5.1,3.1-15.3,1.5-15.3,1.5s-0.7-8.3,0-13.2
		C866.7,567.6,877.6,568.2,877.6,568.2z"/>
</g>
<path class="st4" d="M880.7,564.7c0-1-2.3-9.2-3.4-17.8c-1-7.3-0.8-15.1-1.4-16.9c-4.1-12.4-25-11.7-28.4,0
	c-1.2,4-4.6,32.6-4.7,34.5c-0.1,1.9,0.2,3.2,1.5,3.9c6.1,3.2,30.8,3,34.8,0.3C880.4,567.7,880.8,566.6,880.7,564.7z"/>
<line class="st5" x1="861.4" y1="512.6" x2="861.4" y2="522.9"/>
<line class="st6" x1="861.4" y1="512.6" x2="861.4" y2="522.9"/>
<g>
	<defs>
		
			<ellipse id="SVGID_3_" transform="matrix(0.9239 -0.3827 0.3827 0.9239 -142.4796 383.6014)" cx="893" cy="549.9" rx="16.9" ry="16.9"/>
	</defs>
	<clipPath id="SVGID_4_">
		<use xlink:href="#SVGID_3_"  style="overflow:visible;"/>
	</clipPath>
	<radialGradient id="SVGID_5_" cx="893.1072" cy="566.3427" r="31.1217" gradientUnits="userSpaceOnUse">
		<stop  offset="0" style="stop-color:#BDCCC4"/>
		<stop  offset="0.6741" style="stop-color:#EFEDE7"/>
	</radialGradient>
	<circle class="st7" cx="893" cy="549.9" r="16.9"/>
	<polygon class="st8" points="889.7,555.8 886.3,549.9 889.7,544.1 896.4,544.1 899.7,549.9 896.4,555.8 	"/>
	<polygon class="st8" points="908,555.8 904.6,549.9 908,544.1 914.7,544.1 918.1,549.9 914.7,555.8 	"/>
	<polygon class="st8" points="871.7,555.8 868.4,549.9 871.7,544.1 878.5,544.1 881.8,549.9 878.5,555.8 	"/>
	<polygon class="st8" points="880.5,540 877.1,534.2 880.5,528.4 887.2,528.4 890.5,534.2 887.2,540 	"/>
	<polygon class="st8" points="898.8,540 895.4,534.2 898.8,528.4 905.5,528.4 908.8,534.2 905.5,540 	"/>
	<polygon class="st8" points="880.5,573.1 877.1,567.3 880.5,561.5 887.2,561.5 890.5,567.3 887.2,573.1 	"/>
	<polygon class="st8" points="898.8,573.1 895.4,567.3 898.8,561.5 905.5,561.5 908.8,567.3 905.5,573.1 	"/>
</g>
<path class="st9" d="M909.9,550.2c0,9.3-7.6,16.9-16.9,16.9c-8.2,0-15.1-5.9-16.6-13.7c2.6,2,10.7,5.8,17.4,3.6
	c10-3.3,11-11.6,11.7-18C908.2,541.9,909.9,545.9,909.9,550.2z"/>
<g>
	<g>
		<g>
			<path class="st10" d="M878.1,530.5c0,0,0.2,0,0.6-0.1c0.2,0,0.4-0.1,0.7-0.2c0.3-0.1,0.6-0.1,1-0.2c0.8-0.1,1.8-0.3,2.9-0.4
				c0.3,0,0.6-0.1,0.9-0.1c0.3,0,0.6,0,0.9-0.1c0.6,0,1.3-0.1,2-0.1c0.7,0,1.4,0,2.1,0c0.4,0,0.7,0,1.1,0c0.4,0,0.8,0.1,1.2,0.1
				c1.6,0.1,3.2,0.4,4.9,0.8c0.4,0.1,0.8,0.2,1.3,0.3c0.4,0.1,0.8,0.3,1.3,0.4c0.2,0.1,0.4,0.1,0.6,0.2c0.2,0.1,0.4,0.2,0.6,0.3
				c0.2,0.1,0.4,0.2,0.6,0.3c0.2,0.1,0.4,0.2,0.6,0.3c1.7,0.8,3.3,1.8,4.7,3c1.5,1.2,2.8,2.6,3.8,4.2c1,1.6,1.8,3.3,2.3,5
				c0.1,0.2,0.1,0.4,0.2,0.7c0,0.2,0.1,0.4,0.1,0.6c0.1,0.4,0.1,0.9,0.2,1.3c0.1,0.4,0.1,0.9,0.1,1.3c0,0.2,0,0.4,0,0.6
				c0,0.2,0,0.4,0,0.6c0,0.4,0,0.8-0.1,1.2c-0.1,0.4-0.1,0.8-0.2,1.1c-0.1,0.8-0.3,1.5-0.4,2.1c-0.3,1.3-0.7,2.5-1.2,3.6
				c-0.1,0.3-0.2,0.5-0.3,0.8c-0.1,0.2-0.2,0.5-0.3,0.7c-0.2,0.4-0.4,0.8-0.6,1.2c-0.4,0.7-0.7,1.2-0.9,1.6
				c-0.2,0.4-0.3,0.6-0.3,0.6l-2.6-1.5c0,0,0.1-0.2,0.3-0.5c0.2-0.3,0.5-0.8,0.8-1.5c0.1-0.3,0.3-0.7,0.5-1.1
				c0.1-0.2,0.2-0.4,0.3-0.6c0.1-0.2,0.2-0.4,0.2-0.7c0.4-0.9,0.7-2,1-3.2c0.1-0.6,0.3-1.2,0.3-1.8c0-0.3,0.1-0.6,0.1-1
				c0-0.3,0-0.7,0-1c0-0.2,0-0.3,0-0.5c0-0.2,0-0.3,0-0.5c0-0.3,0-0.7-0.1-1c-0.1-0.3-0.1-0.7-0.2-1c0-0.2-0.1-0.3-0.1-0.5
				c0-0.2-0.1-0.3-0.1-0.5c-0.4-1.4-1-2.7-1.9-4c-0.9-1.2-2-2.4-3.2-3.3c-1.2-1-2.6-1.8-4-2.4c-0.2-0.1-0.4-0.2-0.5-0.2
				c-0.2-0.1-0.4-0.1-0.5-0.2s-0.4-0.1-0.5-0.2c-0.2-0.1-0.4-0.1-0.6-0.2c-0.4-0.1-0.7-0.2-1.1-0.3c-0.4-0.1-0.7-0.2-1.1-0.3
				c-1.5-0.3-2.9-0.6-4.3-0.7c-0.3,0-0.7-0.1-1-0.1c-0.3,0-0.7,0-1,0c-0.7,0-1.3,0-1.9,0c-0.6,0-1.2,0.1-1.8,0.1
				c-0.3,0-0.6,0-0.8,0.1c-0.3,0-0.5,0.1-0.8,0.1c-1,0.1-1.8,0.3-2.5,0.4c-0.3,0.1-0.7,0.2-1,0.2c-0.3,0.1-0.5,0.1-0.7,0.2
				c-0.4,0.1-0.6,0.1-0.6,0.1L878.1,530.5z"/>
		</g>
	</g>
	<g>
		<defs>
			<path id="SVGID_6_" d="M869.8,527.7c0.8-4.3,14.1-1.1,17.4-1.8c2.3,5,1.5,9-2.2,12.3C883.3,535.9,869.1,532,869.8,527.7z"/>
		</defs>
		<clipPath id="SVGID_7_">
			<use xlink:href="#SVGID_6_"  style="overflow:visible;"/>
		</clipPath>
		<linearGradient id="SVGID_8_" gradientUnits="userSpaceOnUse" x1="869.8149" y1="531.8286" x2="888.4811" y2="531.8286">
			<stop  offset="0" style="stop-color:#487988"/>
			<stop  offset="0.1023" style="stop-color:#477083"/>
			<stop  offset="0.3706" style="stop-color:#455F78"/>
			<stop  offset="0.6589" style="stop-color:#435472"/>
			<stop  offset="1" style="stop-color:#435170"/>
		</linearGradient>
		<path class="st11" d="M869.8,527.7c0.8-4.3,14.1-1.1,17.4-1.8c2.3,5,1.5,9-2.2,12.3C883.3,535.9,869.1,532,869.8,527.7z"/>
		<path class="st12" d="M883.6,525.9c0,0,0.9,2.8,0.4,4.8c-0.6,2.2-4.2,4.6-4.2,4.6"/>
		<path class="st12" d="M881.2,525.1c0,0,0.9,2.8,0.4,4.8c-0.6,2.2-4.2,4.6-4.2,4.6"/>
	</g>
	<g>
		<path class="st10" d="M904.8,561.5c-0.9,0.3-2.6,1.2-4.8,2c-0.4,0.2-1.4,0.6-2,0.4c-0.3-0.1-0.5-0.4-0.5-0.7
			c0-0.2,0.2-0.4,0.3-0.5c2.3-0.5,3.9-1.2,6.2-2.7c0.8-0.5,1.1-0.2,1.3-0.1C905.7,560.2,906.1,561.1,904.8,561.5z"/>
		<path class="st10" d="M905,562.9c-0.8,0.4-2.3,1.5-4.4,2.6c-0.4,0.2-1.2,0.8-2,0.7c-0.4,0-0.6-0.3-0.7-0.6
			c-0.1-0.2,0.1-0.4,0.2-0.5c2.2-0.8,3.7-1.7,5.6-3.5c0.7-0.6,1-0.3,1.3-0.3C905.5,561.5,906.1,562.3,905,562.9z"/>
		<path class="st10" d="M908.2,563.1c-1.1,1.5-5.3,4-7,4c-0.4,0-0.6-0.3-0.8-0.6c-0.1-0.2,0-0.4,0.2-0.5c2.1-0.9,3.6-1.7,5.3-3.4
			c0.6-0.6,1.3-0.8,1.6-0.8C908,562,908.9,562.2,908.2,563.1z"/>
		<path class="st10" d="M907.2,563.1c-1,0.5-2.7,1.8-5.1,3.1c-0.5,0.3-1.4,0.9-2.2,0.8c-0.4,0-0.7-0.4-0.8-0.7
			c-0.1-0.2,0.1-0.5,0.2-0.6c2.5-1,4.2-2,6.4-4.1c0.8-0.7,1.2-0.4,1.6-0.3C907.8,561.5,908.6,562.4,907.2,563.1z"/>
		<path class="st10" d="M904.9,559.2L904.9,559.2c-0.2-0.4-1.2-0.4-1.8-0.3c-1.4,0.1-2.7,0.6-3.5,1.2c-0.3,0.2-0.3,0.6-0.1,0.8l0,0
			c0.2,0.2,0.6,0.3,0.9,0.1c1.5-0.9,3,0,4.4-0.2C905.4,560.7,905.1,559.6,904.9,559.2z"/>
		<path class="st10" d="M907.5,559.7c1.6,0.9,2.2,1.6,0.5,3.7c-1,1.2-2.8,0.9-4.3-0.3c-1.4-1.1-1.7-2.6-0.8-3.5
			C903.8,558.7,905.8,558.7,907.5,559.7z"/>
	</g>
</g>
<path class="st13" d="M870.6,546.6l-4.9-2.8l4.9-2.8c0.6-0.4,1-1.1,1-1.8c0-0.7-0.4-1.4-1-1.8l-8-4.6c-0.6-0.4-1.4-0.4-2.1,0l-8,4.6
	c-0.6,0.4-1,1.1-1,1.8v9.3c0,0.7,0.4,1.4,1,1.8l8,4.6c0.3,0.2,0.7,0.3,1,0.3s0.7-0.1,1-0.3l8-4.6c0.6-0.4,1-1.1,1-1.8
	C871.6,547.7,871.2,547,870.6,546.6z M868.2,538.8c0.1-0.4,0.3-0.7,0.6-0.8c0.2-0.1,0.5-0.2,0.7-0.2c0.5,0,1,0.3,1.2,0.7
	c0.2,0.3,0.2,0.7,0.1,1.1c-0.1,0.4-0.3,0.7-0.6,0.8c-0.2,0.1-0.5,0.2-0.7,0.2c-0.5,0-1-0.3-1.2-0.7
	C868.1,539.5,868.1,539.2,868.2,538.8z M861.5,533.1c0.8,0,1.4,0.6,1.4,1.4c0,0.8-0.6,1.4-1.4,1.4c-0.8,0-1.4-0.6-1.4-1.4
	C860.1,533.8,860.7,533.1,861.5,533.1z M854.8,548.8c-0.1,0.4-0.3,0.7-0.6,0.8c-0.2,0.1-0.5,0.2-0.7,0.2c-0.5,0-1-0.3-1.2-0.7
	c-0.2-0.3-0.2-0.7-0.1-1.1c0.1-0.4,0.3-0.7,0.6-0.8c0.2-0.1,0.5-0.2,0.7-0.2c0.5,0,1,0.3,1.2,0.7C854.9,548,854.9,548.4,854.8,548.8
	z M854.7,539.9c-0.2,0.4-0.7,0.7-1.2,0.7c-0.2,0-0.5-0.1-0.7-0.2c-0.3-0.2-0.6-0.5-0.6-0.8c-0.1-0.4,0-0.7,0.1-1.1
	c0.2-0.4,0.7-0.7,1.2-0.7c0.2,0,0.5,0.1,0.7,0.2c0.3,0.2,0.6,0.5,0.6,0.8C854.9,539.2,854.9,539.5,854.7,539.9z M861.5,554.4
	c-0.8,0-1.4-0.6-1.4-1.4c0-0.8,0.6-1.4,1.4-1.4c0.8,0,1.4,0.6,1.4,1.4C862.9,553.8,862.3,554.4,861.5,554.4z M860.5,542
	c-0.6,0.4-1,1.1-1,1.8c0,0.7,0.4,1.4,1,1.8l4.9,2.8l-3.8,2.2l-5.9-3.4v-6.9l5.9-3.4l3.8,2.2L860.5,542z M862.9,543.8
	c0,0.8-0.6,1.4-1.4,1.4c-0.8,0-1.4-0.6-1.4-1.4s0.6-1.4,1.4-1.4C862.3,542.4,862.9,543,862.9,543.8z M870.7,549.1
	c-0.2,0.4-0.7,0.7-1.2,0.7c-0.2,0-0.5-0.1-0.7-0.2c-0.3-0.2-0.6-0.5-0.6-0.8c-0.1-0.4,0-0.7,0.1-1.1c0.2-0.4,0.7-0.7,1.2-0.7
	c0.2,0,0.5,0.1,0.7,0.2c0.3,0.2,0.6,0.5,0.6,0.8C871,548.4,870.9,548.8,870.7,549.1z"/>
<g>
	<linearGradient id="SVGID_9_" gradientUnits="userSpaceOnUse" x1="834.8417" y1="445.8163" x2="867.3678" y2="486.0305">
		<stop  offset="0" style="stop-color:#82363B"/>
		<stop  offset="0.2433" style="stop-color:#783034"/>
		<stop  offset="0.6554" style="stop-color:#5D2123"/>
		<stop  offset="1" style="stop-color:#421111"/>
	</linearGradient>
	<path class="st14" d="M833.5,494.1c0,0-3.8-2.9-3.8-9.8c0-6.9-1.4-14.5,3.1-19.6c4.5-5.2,11.7-14.2,29.4-13.5
		c17.7,0.7,22.3,6.8,25.2,9.8c3,3,5.6,6.5,5.5,11.7c-0.1,5.2,1,18.2,0,20.4C891.9,495.3,833.5,494.1,833.5,494.1z"/>
	<path class="st15" d="M875.1,513.7c-8.4,3.2-15.3,3.1-26.8,0c-8.9-2.4-16.6-7.8-15.9-17l1.7-23.2c0.8-10.7,9.7-19.1,20.5-19.1h14.3
		c10.8,0,19.7,8.3,20.5,19.1l1.7,23.2C891.7,505.9,883.8,510.4,875.1,513.7z"/>
	<g>
		<path class="st16" d="M857.7,480.1v5.8c-2.7-4.8-9.1,3,2.1,7.3v-13H857.7z"/>
		<path class="st16" d="M857.7,480.1v5.8c-2.7-4.8-9.1,3,2.1,7.3v-13H857.7z"/>
	</g>
	<path class="st17" d="M843.9,470c2.1-4,7-5.6,11.1-3.5"/>
	<path class="st17" d="M875.5,470c-2.1-4-7-5.6-11.1-3.5"/>
	<ellipse class="st18" cx="850.4" cy="478.8" rx="2.7" ry="3.4"/>
	<ellipse class="st18" cx="870" cy="478.8" rx="2.7" ry="3.4"/>
	<linearGradient id="SVGID_10_" gradientUnits="userSpaceOnUse" x1="850.7016" y1="442.3553" x2="865.7067" y2="460.9071">
		<stop  offset="0" style="stop-color:#82363B"/>
		<stop  offset="0.2433" style="stop-color:#783034"/>
		<stop  offset="0.6554" style="stop-color:#5D2123"/>
		<stop  offset="1" style="stop-color:#421111"/>
	</linearGradient>
	<path class="st19" d="M870,461c0,0,8.3,1.5,8-6.6c-0.3-8.2-7.1-11.8-10.6-8.9c-5.9-4.3-19-5.1-16.9,2c-7-2.1-14.4,14.1-0.2,13.7
		C855,466.5,870,461,870,461z"/>
	<g>
		<path class="st20" d="M867.6,497.2c-1,2-2.4,3.5-4.2,4.4c-3.1,1.6-6.9,1.6-9.8,0.1c-1.8-0.9-3.3-2.4-4.1-4.3
			c-0.4-1.1,0.6-2.2,1.7-1.9h0c0.5,0.5,10.2,1.5,15.1,0.2C866.9,495.4,868.1,496.2,867.6,497.2z"/>
		<path class="st21" d="M866.1,495.7c-2.7,4.4-12.8,4.1-15.1-0.3c0.2,0,0.3,0,0.3,0C851.7,495.9,860.5,497,866.1,495.7z"/>
		<path class="st21" d="M853.6,501.7c3,1.5,6.8,1.5,9.8-0.1C860.6,500.3,856.4,500.4,853.6,501.7z"/>
	</g>
	<g>
		<path class="st15" d="M886.6,500.1l6.5,1.9c2.9,0.8,5.8-0.8,6.7-3.6l0.4-1.4c0.8-2.9-0.8-5.8-3.6-6.7l-6.5-1.9L886.6,500.1z"/>
		<path class="st22" d="M891.4,491.2c0,0,9.1-0.4,6.5,7.5"/>
	</g>
	<g>
		<path class="st15" d="M840.4,500.1l-6.5,1.9c-2.9,0.8-5.8-0.8-6.7-3.6l-0.4-1.4c-0.8-2.9,0.8-5.8,3.6-6.7l6.5-1.9L840.4,500.1z"/>
		<path class="st22" d="M832.1,491.7c0,0-4.7,1.1-3.2,6.6"/>
	</g>
</g>
</svg>
