<?xml version="1.0" encoding="utf-8"?>
<!-- Generator: Adobe Illustrator 22.1.0, SVG Export Plug-In . SVG Version: 6.00 Build 0)  -->
<svg version="1.1" id="Calque_1" xmlns="http://www.w3.org/2000/svg" xmlns:xlink="http://www.w3.org/1999/xlink" x="0px" y="0px"
	 viewBox="0 0 1920 1080" style="enable-background:new 0 0 1920 1080;" xml:space="preserve">
<style type="text/css">
	.st0{fill:#FFBF80;}
	.st1{fill:#EE2737;}
	.st2{fill:#FFFFFF;}
</style>
<g>
	<path class="st0" d="M1023.5,563.1c0,0-2.2,0.8-3.1,1.1c-8,2.5-25.6,1.8-27.2-2.5c0,0-4.1-0.1-2.2-4.1c-0.3-0.7-0.3-1.8-0.1-3.2
		c0,0,8.8-11.9,20.6-9.7c1,0.4,2.1,0.8,3,1.1c2.3,0.9,6.3,2.5,6.3,2.5L1023.5,563.1z"/>
	<g>
		<path class="st1" d="M1116.9,525.6c-2.1-6.8-9.4-5.7-18.7-4.3c-2.9,0.4-6.3,1.1-9.9,1.7c-4.9,0.9-10.4,1.9-15.2,2.5
			c-7.3,0.9-8.8,0.3-9,0.1c-0.9-0.7-1.5-1.4-2.1-2.1c-1.8-2.1-3.4-3.4-8.3-3.6c-7.2-0.2-16.8,5-20.6,9.9c-4.3,5.5-8.7,9.4-9.9,9.6
			c-0.9,0.2-1.6,0.9-1.9,1.7c-0.1,0.2-0.9,2.7-0.9,7c0,0.5,0,1.1,0,1.6c0.1,2.1,0.3,4.6,0.9,7.4c0.3,1.4,0.7,2.8,1.1,4.3
			c0.2,0.6,0.4,1.2,0.6,1.8c0.3,1,0.7,2,1.1,2.9c0.8,1.8,1.6,3.7,2.6,5.5c0.4,0.8,1.3,1.4,2.3,1.4c0.1,0,9.2,0.3,18.2,2.3
			c10.2,2.3,21.1-0.7,24.4-3c2.8-2,2-5,1.6-6.4c-0.1-0.3-0.3-1-0.3-1.2c0,0,0.1,0,0.1-0.1c2.1-1.7,4.2-3.8,3-7.4
			c-0.2-0.8-0.6-1.6-1-2.4c-0.1-0.2-0.2-0.3-0.2-0.4c0-0.1,0-0.2,0-0.2c0-0.2,0.4-0.7,0.6-0.9c0.5-0.8,1.3-1.9,1.8-3.5
			c0.4-1.2,0.4-2.3,0-3.4c-0.4-1.4-1.3-2.4-2.2-3.2c2.4-0.5,5.9-1.1,9.2-1.6c2.4-0.4,5.2-0.8,8.1-1.1c12.5-1.5,25.3-3.2,25.1-11.4
			C1117.4,527.8,1117.2,526.6,1116.9,525.6z"/>
		<path class="st2" d="M1071.6,566.4c-0.4-1.5-0.6-2.3,0.4-3.2c2.2-1.7,3.2-3.1,2.5-5.5c-0.2-0.7-0.6-1.4-0.9-2.1
			c-0.1-0.2-0.2-0.5-0.3-0.7c-0.3-1,0-1.5,0.7-2.6c0.5-0.7,1.1-1.7,1.5-3c0.3-0.8,0.3-1.6,0-2.3c-0.5-1.5-1.8-2.5-2.8-3.3
			c-0.5-0.4-1.1-0.9-1.2-1.2l0,0c0.8-0.7,6-1.5,12.4-2.6c2.5-0.4,5.2-0.8,8.2-1.1c11.7-1.4,23.7-2.9,23.5-9.6c0-1.2-0.2-2.3-0.5-3.1
			c-1.6-5.1-6.8-4.6-16.7-3.1c-2.9,0.4-6.3,1-9.9,1.7c-9.8,1.8-23.1,4.2-25.6,2.3c-1.1-0.8-1.7-1.6-2.3-2.3c-1.6-1.8-2.7-2.8-7-3
			c-6.6-0.2-15.7,4.8-19.1,9.2c-3.6,4.6-8.7,9.8-10.9,10.3c-0.3,0.1-0.5,0.3-0.6,0.6s-2.4,7.5,1.2,19.2c1,3.3,2.4,6.6,4.1,9.9
			c0.1,0.3,0.4,0.5,0.8,0.5c0.1,0,9.4,0.3,18.6,2.3c9.5,2.1,20-0.7,22.9-2.8C1072.4,569.6,1071.9,567.8,1071.6,566.4z M1048.1,572
			c-8.1-1.8-16.3-2.3-18.4-2.4c-1.6-3.1-2.9-6.1-3.8-9.2c-3-9.6-1.7-16.1-1.3-17.7c3.3-1.3,8.8-7.5,11.4-10.7
			c3.1-4,11.7-8.7,17.7-8.5c3.8,0.1,4.4,0.9,5.7,2.4c0.6,0.7,1.4,1.6,2.6,2.5c2.9,2.3,13,0.7,27-1.9c3.6-0.7,7-1.3,9.8-1.7
			c9.8-1.5,13.7-1.7,14.8,1.9c0.2,0.7,0.3,1.6,0.4,2.7c0.2,5-12.1,6.5-22,7.7c-3,0.4-5.8,0.7-8.3,1.1c-11,1.8-13,2.3-13.7,3.5
			c-0.2,0.3-0.4,0.9,0,1.6c0.3,0.7,1,1.2,1.8,1.8c0.9,0.7,1.9,1.5,2.2,2.4c0.1,0.4,0.1,0.8,0,1.3c-0.3,1.1-0.8,1.8-1.3,2.5
			c-0.7,1.1-1.5,2.3-1,4.1c0.1,0.3,0.2,0.6,0.4,0.9c0.3,0.6,0.6,1.3,0.8,1.9c0.3,1.1,0.3,1.8-1.9,3.6c-2,1.6-1.4,3.6-1,5
			c0.4,1.5,0.5,2.1-0.3,2.6C1066.9,571.4,1057,574,1048.1,572z M1099.3,526.5l1.3,7v0.1c0.1,0.4,0.5,0.6,0.9,0.6
			c1.2-0.1,11.6-0.9,11.4-5.7c0-0.4-0.1-0.7-0.2-1c-1.5-4.9-11.6-2.4-12.8-2.1C1099.5,525.6,1099.2,526.1,1099.3,526.5z M1111,528.1
			c0.1,0.2,0.1,0.4,0.1,0.6c0.1,2.2-5.6,3.4-9,3.8l-1-5.4C1104.1,526.4,1110.2,525.6,1111,528.1z M1096,534.1c0-0.2,0.2-3.7-1.2-6.3
			c-0.2-0.4-0.8-0.6-1.2-0.4c-0.4,0.2-0.6,0.8-0.4,1.2c1.2,2.1,1,5.3,1,5.3c0,0.1,0,0.2,0,0.3c0.1,0.3,0.4,0.6,0.8,0.6
			C1095.5,535,1095.9,534.6,1096,534.1z M1081.1,530.2c1.1,2.4,1.3,5.9,1.3,5.9c0,0.1,0,0.1,0,0.2c0.1,0.4,0.5,0.6,0.9,0.6
			c0.5,0,0.9-0.4,0.8-0.9c0-0.2-0.2-3.8-1.5-6.6c-0.2-0.4-0.7-0.6-1.2-0.4C1081.1,529.2,1080.9,529.7,1081.1,530.2z M1069.6,532.3
			c1.2,1.3,1.2,4.5,1.2,5.6c0,0.1,0,0.2,0,0.3c0.1,0.3,0.4,0.6,0.8,0.6c0.5,0,0.9-0.3,0.9-0.8s0.3-4.8-1.6-6.9
			c-0.3-0.4-0.9-0.4-1.3-0.1C1069.3,531.4,1069.2,532,1069.6,532.3z"/>
		<path class="st2" d="M1056.8,552.7l-5-1.8l4.1-3.4c0.5-0.5,0.8-1.2,0.7-1.9s-0.6-1.3-1.3-1.5l-8.2-3c-0.7-0.2-1.4-0.1-1.9,0.3
			l-6.7,5.6c-0.5,0.5-0.8,1.2-0.7,1.9l1.5,8.6c0.1,0.7,0.6,1.3,1.3,1.5l8.2,3c0.3,0.1,0.7,0.2,1,0.1c0.3-0.1,0.7-0.2,0.9-0.4
			l6.7-5.6c0.5-0.5,0.8-1.2,0.7-1.9S1057.4,553,1056.8,552.7z M1053.3,545.8c0-0.3,0.2-0.7,0.5-0.9c0.2-0.1,0.4-0.2,0.6-0.3
			c0.5-0.1,0.9,0.1,1.2,0.5c0.2,0.3,0.3,0.6,0.3,1c0,0.3-0.2,0.7-0.5,0.9c-0.2,0.1-0.4,0.2-0.6,0.3c-0.5,0.1-0.9-0.1-1.2-0.5
			C1053.4,546.5,1053.3,546.2,1053.3,545.8z M1046.1,541.6c0.7-0.1,1.4,0.4,1.5,1.1c0.1,0.7-0.4,1.4-1.1,1.5
			c-0.7,0.1-1.4-0.4-1.5-1.1C1044.9,542.4,1045.4,541.7,1046.1,541.6z M1042.4,557.3c0,0.3-0.2,0.7-0.5,0.9
			c-0.2,0.1-0.4,0.2-0.6,0.3c-0.5,0.1-0.9-0.1-1.2-0.5c-0.2-0.3-0.3-0.6-0.3-1c0-0.3,0.2-0.7,0.5-0.9c0.2-0.1,0.4-0.2,0.6-0.3
			c0.5-0.1,0.9,0.1,1.2,0.5C1042.4,556.6,1042.5,556.9,1042.4,557.3z M1040.9,549c-0.2,0.4-0.5,0.8-1,0.8c-0.2,0-0.5,0-0.7-0.1
			c-0.3-0.1-0.6-0.4-0.7-0.7c-0.1-0.3-0.2-0.7,0-1c0.2-0.4,0.5-0.8,1-0.8c0.2,0,0.5,0,0.7,0.1c0.3,0.1,0.6,0.4,0.7,0.7
			C1041,548.3,1041,548.6,1040.9,549z M1049.6,561.5c-0.7,0.1-1.4-0.4-1.5-1.1c-0.1-0.7,0.4-1.4,1.1-1.5c0.7-0.1,1.4,0.4,1.5,1.1
			C1050.8,560.7,1050.3,561.4,1049.6,561.5z M1046.6,550c-0.5,0.5-0.8,1.2-0.7,1.9c0.1,0.7,0.6,1.3,1.3,1.5l5,1.8l-3.2,2.7l-6.1-2.2
			l-1.1-6.4l5-4.2l3.9,1.5L1046.6,550z M1049.2,551.3c0.1,0.7-0.4,1.4-1.1,1.5c-0.7,0.1-1.4-0.4-1.5-1.1c-0.1-0.7,0.4-1.4,1.1-1.5
			C1048.4,550.1,1049,550.6,1049.2,551.3z M1057.3,555c-0.2,0.4-0.5,0.8-1,0.8c-0.2,0-0.5,0-0.7-0.1c-0.3-0.1-0.6-0.4-0.7-0.7
			s-0.2-0.7,0-1c0.2-0.4,0.5-0.8,1-0.8c0.2,0,0.5,0,0.7,0.1c0.3,0.1,0.6,0.4,0.7,0.7C1057.4,554.3,1057.4,554.7,1057.3,555z"/>
	</g>
</g>
</svg>
