<?xml version="1.0" encoding="utf-8"?>
<!-- Generator: Adobe Illustrator 22.1.0, SVG Export Plug-In . SVG Version: 6.00 Build 0)  -->
<svg version="1.1" id="Calque_1" xmlns="http://www.w3.org/2000/svg" xmlns:xlink="http://www.w3.org/1999/xlink" x="0px" y="0px"
	 viewBox="0 0 1920 1080" style="enable-background:new 0 0 1920 1080;" xml:space="preserve">
<style type="text/css">
	.st0{fill:#FA4150;}
	.st1{fill:#382327;}
	.st2{fill:#FFBF80;}
	.st3{fill:#BF1F2C;}
	.st4{fill:#B0B0B0;}
	.st5{fill:#FFFFFF;}
	.st6{fill:#7B0303;}
	.st7{fill:url(#SVGID_1_);}
	.st8{fill:#F9F9FA;}
	.st9{fill:url(#SVGID_2_);}
	.st10{fill:url(#SVGID_3_);}
	.st11{fill:url(#SVGID_4_);}
</style>
<g>
	<path class="st0" d="M967.3,655.1c0,0,2.9,4.5,2.1,5.4c-0.8,0.9-9-5.8-5.9-9.1C966.7,650.1,967.3,655.1,967.3,655.1z M945.2,655.5
		c0,0-2.5,4.8-1.6,5.6s8.4-6.6,5-9.6C945.3,650.6,945.2,655.5,945.2,655.5z"/>
	<path class="st1" d="M938.8,554.7c-4.5-16.7-20.6-101.9,15.4-104.1c42.5-2.7,25.6,82.5,22.3,101.2c-14.7,82.9-97.9,14.4-49.2,0.1
		C913.6,571.3,942.7,569.5,938.8,554.7z"/>
	<path class="st2" d="M945.9,616.2c0,0-1.1,3.9-0.9,8.3c0.2,4.5,1.2,11.8,1.6,15c0.5,3.2,1.7,11.9,1.7,11.9l-2.5,1.3
		c0,0-3.1-5.5-5.7-11.5c-2.6-6.3-4.7-13.2-4.8-14.1c-1.2-5.6-1.4-13.3-1.4-13.6c0.2-1.1,0.9-2.6,0.9-2.6l6-0.1L945.9,616.2z
		 M978.3,613.3c0,0,0.2,4.2,0.2,6.2s-0.5,8.2-4.8,17.6c-4.3,9.4-7.4,15.3-7.4,15.3l-2.7-1c0,0,1.5-9.9,2.1-16.7
		c1-12.4,0.4-16.4,0-17.4s-4.3-4.3-4.3-4.3L978.3,613.3z M991,506.5c-1.7-1-4.4,0.2-6.6,2.7c0.1-13.6,2.2-39.7-26.2-41.3
		c-29.2-1.6-30.1,25.3-30.1,39.6c-1.8-1.2-3.6-1.4-4.8-0.4c-2,1.6-1.5,6.1,1,10c1.6,2.5,3.8,4.2,5.6,4.5c2.8,8,8.6,12.6,15.6,15.5
		c2.5,1,5.1,1.6,7.7,1.8l0.2,8.3c-0.1,0.2-0.2,0.4-0.2,0.6c-0.7,0.2-1.4,0.5-2,0.9H951h-0.6c-0.5,0-0.9,0.1-1.3,0.1
		c-0.8,0.1-1.6,0.2-2.5,0.5c-1.7,0.5-3.4,1.5-4.7,2.8s-2.2,2.8-2.8,4.3c-0.7,1.5-1,3-1.3,4.4c-0.5,2.8-0.7,5.6-0.7,8.3
		s0.1,5.3,0.1,7.9v0.1c0,0.1,0,0.1,0,0.2c0.2,1.4,0.5,4,0.5,4l5.3-0.4c0,0-0.2-2.7-0.3-4c0.1-2.5,0.1-5.2,0.2-7.6
		c0.1-2.5,0.3-5,0.8-7.3c0.3-1.1,0.6-2.2,1-3.1c0.3-0.8,0.7-1.4,1.1-1.9l21.3,0.1c0.5,0.6,0.9,1.2,1.2,2c0.4,0.9,0.8,2,1,3.1
		c0.5,2.3,0.7,4.8,0.8,7.3c0.1,2.4,0.1,4.9,0.2,7.6c-0.1,1.2-0.3,3.5-0.3,3.5l5.4,0.4c0,0,0.3-2.4,0.4-3.6c0-0.1,0-0.1,0-0.2v-0.1
		c0.1-2.6,0.1-5.2,0.1-7.9c-0.1-2.7-0.2-5.4-0.7-8.3c-0.3-1.4-0.7-2.9-1.3-4.4s-1.5-3-2.8-4.3s-3-2.3-4.7-2.8
		c-0.8-0.3-1.7-0.4-2.5-0.5c-0.2,0-0.4-0.1-0.6-0.1c-1.3-0.8-2.8-1.4-4.1-1.6l0,0l0.1-8.5c2.4-0.3,4.7-0.9,7-1.7
		c7.4-2.9,13.6-7.8,16.5-16.1c2.2,1.1,5.8-1.1,8.1-5C993.1,512.1,993.2,507.8,991,506.5z"/>
	<path class="st3" d="M957.3,458.5c5.4,0,9.7,2.9,9.7,6.5s-4.3,6.5-9.7,6.5s-9.7-2.9-9.7-6.5S951.9,458.5,957.3,458.5z M972.2,596.4
		c-2.8-13.6-4.8-33.3-4.9-38c-0.2-4.4-0.2-9.9-0.2-9.9l-5.8-1l0.3,8.7h-10.7l0.2-8.5l-5.5,1c0,0-0.3,34.5-3.4,47.9
		c-0.9,4.1-10.3,9-10,19c1.7-2,4.8-4.7,7.8-3c2.5,1.4,7.2,7.5,11.9,7.8c3.3,0.2,12.5-5.5,16.5-6.4c5.2-1.1,9.4,1.9,11,1.2
		C984,605.9,972.9,600.1,972.2,596.4z"/>
	<g>
		<path class="st4" d="M973.2,606.9h-34c-1.2,0-2.2-0.9-2.4-2.2l-2-22.4c-0.1-1.4,1-2.6,2.4-2.6h38c1.4,0,2.5,1.2,2.4,2.6l-2,22.4
			C975.5,605.9,974.5,606.9,973.2,606.9z"/>
		<path class="st5" d="M959.3,593.9c-0.4,1.1-1.7,1.8-3.1,1.8c-1.4,0-2.7-0.7-3.1-1.8c-0.5-1.5,0.8-3.1,3.1-3.1
			C958.5,590.8,959.8,592.4,959.3,593.9z"/>
	</g>
	<path class="st2" d="M941.9,596.8c-0.2,0.2-1.8,0.4-3.2,0.4c0.9,0.1,1.6,0.3,1.8,0.6c0.5,0.7,0.1,1.1-0.2,1.3
		c-0.2,0.2-2.2,0.1-3.5,0.1c0.8,0.4,1.5,0.9,1.6,1.1c0.2,0.8-0.3,0.9-0.5,1c-0.3,0.1-2.5-0.9-3.4-1.3c-0.8-0.3-2.6-1.7-0.7-2.3
		c0-0.3,0.2-0.6,0.6-0.9c0,0,0.1,0,0.2,0c-0.7-0.4-1.1-1.1,0.1-2.2c0,0,0.1,0,0.2,0c-1.3-0.3-2.8-1-1.1-2.7c0,0,6.9-0.3,7.5,0.6
		s0.1,1.4-0.2,1.7c-0.2,0.2-1.1,0.3-2.3,0.4c1.5,0,3,0.2,3.3,0.5C942.8,596,942.2,596.4,941.9,596.8z M979.7,598.6
		c0-0.3-0.2-0.6-0.6-0.9c0,0-0.1,0-0.3,0c0.8-0.4,1.1-1.1-0.1-2.2c0,0,0,0-0.1,0c1.3-0.2,2.8-1,1.1-2.7c0,0-6.9-0.3-7.5,0.6
		c-0.7,0.9-0.1,1.4,0.2,1.7c0.2,0.2,1.1,0.3,2.2,0.4c-1.6,0-3.1,0.2-3.3,0.5c-0.6,0.8-0.1,1.3,0.2,1.7c0.2,0.2,1.8,0.4,3.3,0.4
		c-0.9,0.1-1.6,0.3-1.8,0.6c-0.5,0.7-0.1,1.1,0.2,1.3c0.2,0.2,2.1,0.1,3.4,0.1c-0.8,0.4-1.5,0.9-1.6,1.1c-0.2,0.8,0.3,0.9,0.5,1
		c0.3,0.1,2.5-0.9,3.4-1.3C979.8,600.5,981.5,599.3,979.7,598.6z"/>
	<g>
		<path class="st6" d="M959.9,526.7c-0.4,0.4-0.9,0.7-1.5,0.9c-1.1,0.3-2.5,0.3-3.6,0c-0.7-0.2-1.2-0.5-1.5-0.9
			c-0.2-0.2,0.2-0.4,0.6-0.4l0,0c0.2,0.1,3.8,0.3,5.6,0C959.6,526.3,960,526.5,959.9,526.7z"/>
		
			<linearGradient id="SVGID_1_" gradientUnits="userSpaceOnUse" x1="10736.3506" y1="517.8275" x2="10736.5879" y2="510.0632" gradientTransform="matrix(-1 0 0 1 11694 0)">
			<stop  offset="0" style="stop-color:#FF7C62"/>
			<stop  offset="1" style="stop-color:#FFBE82"/>
		</linearGradient>
		<path class="st7" d="M954.7,517.1c2.2,2.6,7.2,1,7.2-3.4c-0.9-2.7-4-0.1-4.4-6.5C951.7,506.6,952.6,514.5,954.7,517.1z"/>
		<g>
			<path class="st8" d="M933,505.7c-0.1,1,3.5,5.2,6.6,6.3c2.8,1,7.6,1.2,8.7-0.7c0.8-1.4-0.4-5.9-0.4-5.9c-1.5-2.2-4-2.9-6.6-2.6
				l0,0C938,503.3,933.1,504.1,933,505.7z M979.6,505.7c0.1,1-3.5,5.2-6.6,6.3c-2.8,1-7.6,1.2-8.7-0.7c-0.8-1.4,0.4-5.9,0.4-5.9
				c1.5-2.2,4-2.9,6.6-2.6l0,0C974.5,503.3,979.4,504.1,979.6,505.7z"/>
			
				<linearGradient id="SVGID_2_" gradientUnits="userSpaceOnUse" x1="9882.752" y1="576.7874" x2="9882.0459" y2="568.4516" gradientTransform="matrix(-1 0 0 -1 10852 1080)">
				<stop  offset="0" style="stop-color:#2B2C31"/>
				<stop  offset="0.1869" style="stop-color:#2A2F34"/>
				<stop  offset="0.3451" style="stop-color:#27383F"/>
				<stop  offset="0.4927" style="stop-color:#234850"/>
				<stop  offset="0.634" style="stop-color:#1C5D69"/>
				<stop  offset="0.7708" style="stop-color:#137989"/>
				<stop  offset="0.9023" style="stop-color:#099BAF"/>
				<stop  offset="1" style="stop-color:#00B9D1"/>
			</linearGradient>
			<path class="st9" d="M974.4,508c0,1.5-0.5,2.9-1.4,3.9c-1.7,0.6-4.1,0.9-6,0.6c-1.3-1-2.1-2.7-2.1-4.6c0-2.1,1-3.8,2.4-4.8
				c1.2-0.5,2.6-0.6,4-0.4l0,0C973.1,503.6,974.4,505.7,974.4,508z"/>
			
				<linearGradient id="SVGID_3_" gradientUnits="userSpaceOnUse" x1="-5491.605" y1="576.7852" x2="-5492.3115" y2="568.4495" gradientTransform="matrix(1 0 0 -1 6434.9575 1080)">
				<stop  offset="0" style="stop-color:#2B2C31"/>
				<stop  offset="0.1869" style="stop-color:#2A2F34"/>
				<stop  offset="0.3451" style="stop-color:#27383F"/>
				<stop  offset="0.4927" style="stop-color:#234850"/>
				<stop  offset="0.634" style="stop-color:#1C5D69"/>
				<stop  offset="0.7708" style="stop-color:#137989"/>
				<stop  offset="0.9023" style="stop-color:#099BAF"/>
				<stop  offset="1" style="stop-color:#00B9D1"/>
			</linearGradient>
			<path class="st10" d="M938.2,508c0,1.5,0.5,2.9,1.4,3.9c1.7,0.6,4.1,0.9,6,0.6c1.3-1,2.1-2.7,2.1-4.6c0-2.1-1-3.8-2.4-4.8
				c-1.2-0.5-2.6-0.6-4-0.4l0,0C939.5,503.6,938.2,505.7,938.2,508z"/>
		</g>
		
			<linearGradient id="SVGID_4_" gradientUnits="userSpaceOnUse" x1="933.6112" y1="601.6157" x2="954.8576" y2="578.0087" gradientTransform="matrix(1 0 0 -1 0 1080)">
			<stop  offset="0" style="stop-color:#A37D67"/>
			<stop  offset="0.1804" style="stop-color:#836554"/>
			<stop  offset="0.4204" style="stop-color:#5E4A3F"/>
			<stop  offset="0.6446" style="stop-color:#443730"/>
			<stop  offset="0.8445" style="stop-color:#342B26"/>
			<stop  offset="1" style="stop-color:#2E2723"/>
		</linearGradient>
		<path class="st11" d="M924.9,505c0.3,2.1,5.4,24.7,7.7,28.8c-0.6-8.1-3-36.8,2.3-45.3c-0.4,8.4-1.5,10.3-0.9,10.7
			c5.6,3.2,38.1,2.6,45.9,0.5c0.5-0.1-0.4-10.9,0-10.9c6,17.3,2,36.6,0.7,44.8c5.5-5.5,7.4-33.1,7.9-38
			C992,456.4,917.8,449.9,924.9,505z"/>
	</g>
</g>
</svg>
