<?xml version="1.0" encoding="utf-8"?>
<!-- Generator: Adobe Illustrator 22.1.0, SVG Export Plug-In . SVG Version: 6.00 Build 0)  -->
<svg version="1.1" id="Calque_1" xmlns="http://www.w3.org/2000/svg" xmlns:xlink="http://www.w3.org/1999/xlink" x="0px" y="0px"
	 viewBox="0 0 1920 1080" style="enable-background:new 0 0 1920 1080;" xml:space="preserve">
<style type="text/css">
	.st0{opacity:0.6;}
	.st1{fill:#00374E;}
	.st2{fill:#BF1F2C;}
	.st3{fill:#2D2122;}
	.st4{fill:#EE2737;}
	.st5{fill:#FA4150;}
	.st6{fill:#002E38;}
	.st7{fill:#003845;}
	.st8{fill:#004150;}
	.st9{fill:#006B50;}
	.st10{fill:#005943;}
</style>
<g>
	<g class="st0">
		<ellipse class="st1" cx="960.4" cy="699" rx="308.2" ry="13.4"/>
		<ellipse class="st1" cx="1056.7" cy="710.3" rx="60.7" ry="15.3"/>
		<ellipse class="st1" cx="956.2" cy="708.8" rx="30.6" ry="8.6"/>
		<ellipse class="st1" cx="1154" cy="708" rx="36.7" ry="7"/>
	</g>
	<g>
		<rect x="794.7" y="517.7" class="st2" width="331.7" height="126.9"/>
		<g>
			<path class="st3" d="M700.1,699.5h-22.3c-0.4,0-0.7-0.3-0.7-0.7v-14h23.8v14C700.8,699.2,700.5,699.5,700.1,699.5z"/>
			<path class="st3" d="M1243,699.5h-22.3c-0.4,0-0.7-0.3-0.7-0.7v-14h23.8v14C1243.7,699.2,1243.4,699.5,1243,699.5z"/>
		</g>
		<path class="st4" d="M1262.7,636.9H658.1V690c0,1.2,1,2.2,2.2,2.2h600.3c1.2,0,2.2-1,2.2-2.2V636.9z"/>
		<path class="st5" d="M1251.4,599.9h-582c-13,5-22,12.1-22,22.4h626.1C1274.4,614,1266.2,606.6,1251.4,599.9z"/>
		<path class="st2" d="M1265.5,660H655.3c-4.4,0-7.9-3.6-7.9-7.9v-29.8c0-4.6,3.8-8.4,8.4-8.4h609.4c4.6,0,8.4,3.8,8.4,8.4V652
			C1273.4,656.4,1269.9,660,1265.5,660z"/>
		<g>
			<path class="st4" d="M859,600.8H672.3c-1.6,0-3-1.3-3-3V491.2c0-5.3,4.3-9.5,9.5-9.5h173.6c5.3,0,9.5,4.3,9.5,9.5v106.6
				C862,599.5,860.7,600.8,859,600.8z"/>
			<g>
				<path class="st2" d="M726.4,528.6c-1.5,0.1-3.4,0.4-5.5,0.8c0.9-3.9,1.1-6.9,0.5-7c-0.6-0.2-1.8,2.4-3.1,6.2
					c-3.3-3.4-6.1-5.7-6.6-5.2c-0.5,0.5,1.5,3.6,4.7,7.3c-5.2,1.6-8.8,3.6-8.6,4.3c0.2,0.7,4.1-0.1,9.1-1.4c-1.3,5-1.7,9.1-1,9.3
					c0.7,0.2,2.4-3.5,3.8-8.4c3.5,3.6,6.4,6,6.9,5.5c0.5-0.5-1.6-3.8-5-7.7c2-0.6,3.8-1.1,5.1-1.5c1.9-0.6,3.2-1,3.1-1.5
					C729.8,528.8,728.5,528.5,726.4,528.6z"/>
				<circle class="st4" cx="718.8" cy="531.7" r="3.2"/>
				<path class="st2" d="M821.8,535.4c-1-1.1-2.5-2.4-4.1-3.7c3.6-1.9,6-3.5,5.7-4.1c-0.3-0.6-3,0.1-6.7,1.5
					c0.5-4.7,0.5-8.3-0.2-8.4c-0.7-0.1-1.8,3.4-2.7,8.2c-4.6-2.9-8.4-4.5-8.8-3.9c-0.4,0.6,2.7,3.1,6.9,6.1
					c-4.7,2.2-8.1,4.4-7.8,5.1c0.3,0.7,4.2-0.4,8.9-2.5c-0.6,5-0.6,8.8,0.1,8.9c0.7,0.1,1.9-3.7,2.7-8.7c1.7,1.2,3.3,2.2,4.5,3
					c1.7,1.1,2.8,1.8,3.1,1.5C823.8,538.2,823.2,537,821.8,535.4z"/>
				<circle class="st4" cx="814.7" cy="531.7" r="3.2"/>
			</g>
			<path class="st4" d="M1053.7,600.8H867c-1.6,0-3-1.3-3-3V491.2c0-5.3,4.3-9.5,9.5-9.5h173.6c5.3,0,9.5,4.3,9.5,9.5v106.6
				C1056.7,599.5,1055.4,600.8,1053.7,600.8z"/>
			<g>
				<path class="st2" d="M921.1,528.6c-1.5,0.1-3.4,0.4-5.5,0.8c0.9-3.9,1.1-6.9,0.5-7c-0.6-0.2-1.8,2.4-3.1,6.2
					c-3.3-3.4-6.1-5.7-6.6-5.2c-0.5,0.5,1.5,3.6,4.7,7.3c-5.2,1.6-8.8,3.6-8.6,4.3c0.2,0.7,4.1-0.1,9.1-1.4c-1.3,5-1.7,9.1-1,9.3
					c0.7,0.2,2.4-3.5,3.8-8.4c3.5,3.6,6.4,6,6.9,5.5c0.5-0.5-1.6-3.8-5-7.7c2-0.6,3.8-1.1,5.1-1.5c1.9-0.6,3.2-1,3.1-1.5
					C924.6,528.8,923.2,528.5,921.1,528.6z"/>
				<circle class="st4" cx="913.5" cy="531.7" r="3.2"/>
				<path class="st2" d="M1016.5,535.4c-1-1.1-2.5-2.4-4.1-3.7c3.6-1.9,6-3.5,5.7-4.1c-0.3-0.6-3,0.1-6.7,1.5
					c0.5-4.7,0.5-8.3-0.2-8.4c-0.7-0.1-1.8,3.4-2.7,8.2c-4.6-2.9-8.4-4.5-8.8-3.9c-0.4,0.6,2.7,3.1,6.9,6.1
					c-4.7,2.2-8.1,4.4-7.8,5.1c0.3,0.7,4.2-0.4,8.9-2.5c-0.6,5-0.6,8.8,0.1,8.9c0.7,0.1,1.9-3.7,2.7-8.7c1.7,1.2,3.3,2.2,4.5,3
					c1.7,1.1,2.8,1.8,3.1,1.5C1018.5,538.2,1017.9,537,1016.5,535.4z"/>
				<circle class="st4" cx="1009.4" cy="531.7" r="3.2"/>
			</g>
			<path class="st4" d="M1248.4,600.8h-186.7c-1.6,0-3-1.3-3-3V491.2c0-5.3,4.3-9.5,9.5-9.5h173.6c5.3,0,9.5,4.3,9.5,9.5v106.6
				C1251.4,599.5,1250.1,600.8,1248.4,600.8z"/>
			<g>
				<path class="st2" d="M1115.8,528.6c-1.5,0.1-3.4,0.4-5.5,0.8c0.9-3.9,1.1-6.9,0.5-7c-0.6-0.2-1.8,2.4-3.1,6.2
					c-3.3-3.4-6.1-5.7-6.6-5.2c-0.5,0.5,1.5,3.6,4.7,7.3c-5.2,1.6-8.8,3.6-8.6,4.3c0.2,0.7,4.1-0.1,9.1-1.4c-1.3,5-1.7,9.1-1,9.3
					c0.7,0.2,2.4-3.5,3.8-8.4c3.5,3.6,6.4,6,6.9,5.5c0.5-0.5-1.6-3.8-5-7.7c2-0.6,3.8-1.1,5.1-1.5c1.9-0.6,3.2-1,3.1-1.5
					C1119.3,528.8,1117.9,528.5,1115.8,528.6z"/>
				<circle class="st4" cx="1108.2" cy="531.7" r="3.2"/>
				<path class="st2" d="M1211.2,535.4c-1-1.1-2.5-2.4-4.1-3.7c3.6-1.9,6-3.5,5.7-4.1c-0.3-0.6-3,0.1-6.7,1.5
					c0.5-4.7,0.5-8.3-0.2-8.4c-0.7-0.1-1.8,3.4-2.7,8.2c-4.6-2.9-8.4-4.5-8.8-3.9c-0.4,0.6,2.7,3.1,6.9,6.1
					c-4.7,2.2-8.1,4.4-7.8,5.1c0.3,0.7,4.2-0.4,8.9-2.5c-0.6,5-0.6,8.8,0.1,8.9c0.7,0.1,1.9-3.7,2.7-8.7c1.7,1.2,3.3,2.2,4.5,3
					c1.7,1.1,2.8,1.8,3.1,1.5C1213.3,538.2,1212.6,537,1211.2,535.4z"/>
				<path class="st4" d="M1207.3,531.7c0,1.7-1.4,3.2-3.2,3.2c-1.7,0-3.2-1.4-3.2-3.2s1.4-3.2,3.2-3.2
					C1205.8,528.6,1207.3,530,1207.3,531.7z"/>
			</g>
		</g>
		<g>
			<path class="st2" d="M649.7,571.3c0.9,2.3,56.7,43.7,64.9,39.2c4.2-2.3,7.6-4.4,12.8-10.6c2.3-2.7,2.5-8.2-1.2-12.9
				c-7.6-9.6-27-20.2-44.7-20.2C655.2,566.8,649.7,571.3,649.7,571.3z"/>
			<path class="st4" d="M646.6,577l7.3,30.5c0.9,2.3,3.8,3.8,7.1,3.8h49.1c5.9,0,8.5-3.3,6.1-8.2c-8.9-18.6-31.6-28.1-60.8-32.7
				C649.9,569.6,645.1,573.2,646.6,577z"/>
			<path class="st2" d="M1271.1,571.3c-0.9,2.3-56.7,43.7-64.9,39.2c-4.2-2.3-7.6-4.4-12.8-10.6c-2.3-2.7-2.5-8.2,1.2-12.9
				c7.6-9.6,27-20.2,44.7-20.2C1265.5,566.8,1271.1,571.3,1271.1,571.3z"/>
			<path class="st4" d="M1274.2,577l-7.3,30.5c-0.9,2.3-3.8,3.8-7.1,3.8h-49.1c-5.9,0-8.5-3.3-6.1-8.2c8.9-18.6,31.6-28.1,60.8-32.7
				C1270.9,569.6,1275.7,573.2,1274.2,577z"/>
		</g>
		<g>
			<path class="st6" d="M691.2,562.5c-6.9,8.1,46.6,57.6,72.9,47.5S698.1,554.4,691.2,562.5z"/>
			<path class="st7" d="M786.1,599.5c-2.1,4.8-20.2,10.1-20.2,10.1c-1.9,0.7-4,0.3-5.6-1c-19.8-16.4-42.5-31.2-68.2-44.3
				c-1.2-0.6-1.1-2.3,0.1-2.7c7-2.3,24-7,41.6-5.4C756.7,558.4,788.1,594.8,786.1,599.5z"/>
			<path class="st8" d="M773.3,582.8c1.4,1.7,2.6,3.4,3.3,5.5c0.6,2,0.5,4.4-0.8,6.1c-1.9,2.4-5.4,2.6-8.5,2.6
				c-5.2,0-10.5-0.1-15.2-2.3c-3.9-1.9-6.9-5.1-10-8.1c-8.9-8.4-19.7-14.9-31.4-18.8c-1.2-0.4-2.5-0.8-3.5-1.6
				c-1.1-0.8-1.9-2-1.8-3.3c0.1-1.4,1.2-2.5,2.4-3.1c1.3-0.6,2.7-0.7,4-0.8c9.2-0.6,17.9-2.1,26.8,0.5c8.7,2.6,17,6.9,24.1,12.6
				C766.6,575.4,769.9,579.1,773.3,582.8z"/>
		</g>
		<g>
			<path class="st9" d="M821.7,597c-3.4,9.2-19.4,11.7-35.7,5.6c-16.3-6.1-26.7-18.5-23.3-27.7c3.4-9.2,17.8-8.2,34.1-2.1
				C813.1,578.9,825.2,587.8,821.7,597z"/>
			<path class="st10" d="M758,577.4c1.7,1.5,0.5,3,2.3,4.4c1.8,1.4,3-0.2,4.9,1.2c1.9,1.3,0.8,2.9,2.7,4.2c2,1.2,3-0.4,4.9,0.7
				c1.9,1.1,1,2.8,3,3.9c2,1.1,2.9-0.7,5,0.3c2,1,1.2,2.7,3.3,3.7c2.1,0.9,2.9-0.9,5-0.1c2.1,0.8,1.5,2.6,3.6,3.4
				c2.2,0.7,2.8-1.2,4.9-0.6c2.2,0.6,1.7,2.5,3.9,3c2.2,0.5,2.7-1.4,4.9-1c2.2,0.4,1.9,2.3,4.2,2.7c2.3,0.3,2.5-1.6,4.8-1.4
				c2.3,0.2,2.1,2.2,4.4,2.3c2.3,0.1,2.4-1.8,4.7-1.8l-4-6.5l-56.1-21.1L758,577.4z"/>
			<path class="st9" d="M821.7,597c-3.4,9.2-62.4-12.9-59-22.1c3.4-9.2,18.5-10,34.8-3.9C813.8,577.1,825.2,587.8,821.7,597z"/>
		</g>
	</g>
</g>
</svg>
