<?xml version="1.0" encoding="utf-8"?>
<!-- Generator: Adobe Illustrator 22.1.0, SVG Export Plug-In . SVG Version: 6.00 Build 0)  -->
<svg version="1.1" id="Calque_1" xmlns="http://www.w3.org/2000/svg" xmlns:xlink="http://www.w3.org/1999/xlink" x="0px" y="0px"
	 viewBox="0 0 1920 1080" style="enable-background:new 0 0 1920 1080;" xml:space="preserve">
<style type="text/css">
	.st0{opacity:0.6;fill:#00374E;enable-background:new    ;}
	.st1{fill:#1D0200;}
	.st2{fill:#F8BA9B;}
	.st3{fill:#006685;}
	.st4{fill:url(#SVGID_2_);}
	.st5{fill:url(#SVGID_3_);}
	.st6{fill:#7F3E40;}
	.st7{fill:#FFFFFF;}
	.st8{fill:#F9E4DB;}
	.st9{fill:#2E2225;}
	.st10{fill:#EE9279;}
	.st11{fill:#F2948F;}
	.st12{fill:url(#SVGID_4_);}
	.st13{fill:url(#SVGID_5_);}
	.st14{fill:#EDEDED;}
	.st15{fill:#F9C9B4;}
	.st16{fill:#00374E;}
</style>
<g>
	<ellipse class="st0" cx="574.7" cy="696.4" rx="45.7" ry="6.8"/>
	<path class="st1" d="M546.2,692.4c0,0,12.3-4.1,13.5-0.9s-12.5,6.4-12.5,6.4L546.2,692.4z"/>
	<path class="st1" d="M604.5,692.4c0,0-12.3-4.1-13.5-0.9s12.5,6.6,12.5,6.6L604.5,692.4z"/>
	<path class="st2" d="M555.7,695c0,0-1.2,0.5-2.7,1.1l-4.8-7.9c0.7-0.1,1.5-0.2,2.1-0.2v-32.8c0-2.3,1.8-4.1,4.1-4.1
		s4.1,1.8,4.1,4.1v34.3c0.3,0.3,0.5,0.6,0.6,1C559.7,693,555.7,695,555.7,695z M600.4,688v-32.8c0-2.3-1.8-4.1-4.1-4.1
		s-4.1,1.8-4.1,4.1v34.3c-0.3,0.3-0.5,0.6-0.6,1C591,693,595,695,595,695s1.1,0.5,2.6,1.2l4.9-8C601.8,688.1,601.1,688.1,600.4,688z
		 M620.3,580.2c0-0.6-0.6-1.7-1.4-3.7c-5.4-14.3-12.1-18.1-8.1-23.9c2.4-3.4,7.7-4.1,10.7-0.4c1.8,2.2,5.9,11,7.1,13.9
		c2.1,5,4.5,11.7,3.8,17.1c-0.5,3.5-2.2,6.2-4.8,7.8C619.5,594,616.8,583.7,620.3,580.2z M529,580.2c0-0.6,0.6-1.7,1.4-3.7
		c5.4-14.3,12.1-18.1,8.1-23.9c-2.4-3.4-7.7-4.1-10.7-0.4c-1.8,2.2-5.9,11-7.1,13.9c-2.1,5-4.5,11.7-3.8,17.1
		c0.5,3.5,2.2,6.2,4.8,7.8C529.8,594,532.6,583.7,529,580.2z"/>
	<path class="st3" d="M605,523.8c5.6-1.2,17,20,21.6,29.3c-1,4.9-14.5,10.9-19.5,9.2C604.7,554.7,600.6,524.7,605,523.8z
		 M545.8,523.8c-5.6-1.2-17,20-21.6,29.3c1,4.9,14.5,10.9,19.5,9.2C546,554.7,550.1,524.7,545.8,523.8z"/>
	<path class="st1" d="M553,696.1c-5.2,2-16,5.6-16.9,0.3c-0.9-5.5,7.1-7.5,12.1-8.2l0,0c2.2,1.3,4,3.5,4.7,7.3
		C552.9,695.7,552.9,695.9,553,696.1z"/>
	<path class="st1" d="M597.6,696.2c5.2,2,16.1,5.5,17,0.2c0.9-5.5-7.1-7.5-12.1-8.2l0,0c-2.2,1.3-4,3.5-4.7,7.3
		C597.8,695.7,597.7,696,597.6,696.2z"/>
	
		<linearGradient id="SVGID_2_" gradientUnits="userSpaceOnUse" x1="574.7" y1="549.0336" x2="574.7" y2="411.6229" gradientTransform="matrix(1 0 0 -1 0 1080)">
		<stop  offset="4.201680e-03" style="stop-color:#009494"/>
		<stop  offset="0.4141" style="stop-color:#009294"/>
		<stop  offset="0.6055" style="stop-color:#008A92"/>
		<stop  offset="0.7515" style="stop-color:#007E8F"/>
		<stop  offset="0.8745" style="stop-color:#006B8B"/>
		<stop  offset="0.9818" style="stop-color:#005486"/>
		<stop  offset="1" style="stop-color:#004F85"/>
	</linearGradient>
	<path id="SVGID_1_" class="st4" d="M625.3,665.1c-21.1,9.5-80,9.6-101.2,0c3.7-34.1,5.8-118.8,20.7-141.4
		c6.7-10.2,53.1-10.2,59.8,0C619.5,546.4,621.6,631,625.3,665.1z"/>
	<linearGradient id="SVGID_3_" gradientUnits="userSpaceOnUse" x1="524.7354" y1="596.0296" x2="624.6655" y2="596.0296">
		<stop  offset="0" style="stop-color:#333333"/>
		<stop  offset="0.5296" style="stop-color:#161616"/>
		<stop  offset="1" style="stop-color:#000000"/>
	</linearGradient>
	<path class="st5" d="M596.4,588.7c0,2.6-2.1,4.8-4.8,4.8c-2.6,0-4.8-2.1-4.8-4.8c0-2.6,2.1-4.8,4.8-4.8S596.4,586,596.4,588.7z
		 M591.6,567.6c-2.7,0-4.8,2.2-4.8,4.8c0,2.7,2.2,4.8,4.8,4.8c2.7,0,4.8-2.2,4.8-4.8C596.4,569.8,594.3,567.6,591.6,567.6z
		 M591.6,551.3c-2.7,0-4.8,2.2-4.8,4.8c0,2.7,2.2,4.8,4.8,4.8c2.7,0,4.8-2.2,4.8-4.8C596.4,553.5,594.3,551.3,591.6,551.3z
		 M591.6,616.5c-2.7,0-4.8,2.2-4.8,4.8s2.2,4.8,4.8,4.8c2.7,0,4.8-2.2,4.8-4.8S594.3,616.5,591.6,616.5z M591.6,600.2
		c-2.7,0-4.8,2.2-4.8,4.8s2.2,4.8,4.8,4.8c2.7,0,4.8-2.2,4.8-4.8S594.3,600.2,591.6,600.2z M591.6,535c-2.7,0-4.8,2.2-4.8,4.8
		c0,2.7,2.2,4.8,4.8,4.8c2.7,0,4.8-2.2,4.8-4.8C596.4,537.2,594.3,535,591.6,535z M574.7,616.5c-2.7,0-4.8,2.2-4.8,4.8
		s2.2,4.8,4.8,4.8s4.8-2.2,4.8-4.8S577.3,616.5,574.7,616.5z M574.7,583.9c-2.7,0-4.8,2.2-4.8,4.8c0,2.7,2.2,4.8,4.8,4.8
		s4.8-2.2,4.8-4.8C579.5,586,577.3,583.9,574.7,583.9z M574.7,600.2c-2.7,0-4.8,2.2-4.8,4.8s2.2,4.8,4.8,4.8s4.8-2.2,4.8-4.8
		S577.3,600.2,574.7,600.2z M574.7,649.1c-2.7,0-4.8,2.2-4.8,4.8c0,2.7,2.2,4.8,4.8,4.8s4.8-2.2,4.8-4.8
		C579.5,651.2,577.3,649.1,574.7,649.1z M574.7,632.8c-2.7,0-4.8,2.2-4.8,4.8c0,2.7,2.2,4.8,4.8,4.8s4.8-2.2,4.8-4.8
		C579.5,634.9,577.3,632.8,574.7,632.8z M569.9,524.6c0,2.6,2.2,4.8,4.8,4.8s4.8-2.2,4.8-4.8s-2.2-4.8-4.8-4.8
		C572,519.8,569.9,522,569.9,524.6z M591.6,519.8c-2.7,0-4.8,2.2-4.8,4.8s2.2,4.8,4.8,4.8c2.7,0,4.8-2.2,4.8-4.8
		S594.3,519.8,591.6,519.8z M608.5,649.1c-2.7,0-4.8,2.2-4.8,4.8c0,2.7,2.2,4.8,4.8,4.8c2.7,0,4.8-2.2,4.8-4.8
		C613.3,651.2,611.2,649.1,608.5,649.1z M620.6,621.3c0,1.3,0.6,2.5,1.5,3.4c-0.2-2.1-0.3-4.2-0.5-6.3
		C621,619.2,620.6,620.2,620.6,621.3z M608.5,632.8c-2.7,0-4.8,2.2-4.8,4.8c0,2.7,2.2,4.8,4.8,4.8c2.7,0,4.8-2.2,4.8-4.8
		C613.3,634.9,611.2,632.8,608.5,632.8z M574.7,567.6c-2.7,0-4.8,2.2-4.8,4.8c0,2.7,2.2,4.8,4.8,4.8s4.8-2.2,4.8-4.8
		S577.3,567.6,574.7,567.6z M608.5,616.5c-2.7,0-4.8,2.2-4.8,4.8s2.2,4.8,4.8,4.8c2.7,0,4.8-2.2,4.8-4.8S611.2,616.5,608.5,616.5z
		 M545.6,524.6c0-0.5-0.1-1.1-0.3-1.6c-0.2,0.2-0.4,0.4-0.5,0.7c-1,1.6-2,3.4-2.9,5.6C544,528.7,545.6,526.8,545.6,524.6z
		 M620.6,637.6c0,1.9,1.1,3.5,2.7,4.3c-0.2-2.7-0.4-5.5-0.6-8.3C621.4,634.5,620.6,636,620.6,637.6z M607.5,529.3
		c-0.9-2.1-1.9-4-2.9-5.6c-0.2-0.3-0.4-0.5-0.6-0.8c-0.2,0.5-0.3,1.1-0.3,1.7C603.7,526.9,605.4,528.8,607.5,529.3z M591.6,632.8
		c-2.7,0-4.8,2.2-4.8,4.8c0,2.7,2.2,4.8,4.8,4.8c2.7,0,4.8-2.2,4.8-4.8C596.4,634.9,594.3,632.8,591.6,632.8z M608.5,600.2
		c-2.7,0-4.8,2.2-4.8,4.8s2.2,4.8,4.8,4.8c2.7,0,4.8-2.2,4.8-4.8S611.2,600.2,608.5,600.2z M586.8,653.9c0,2.7,2.2,4.8,4.8,4.8
		c2.7,0,4.8-2.2,4.8-4.8c0-2.7-2.1-4.8-4.8-4.8S586.8,651.3,586.8,653.9z M608.5,551.3c-2.7,0-4.8,2.2-4.8,4.8
		c0,2.7,2.2,4.8,4.8,4.8c2.7,0,4.8-2.2,4.8-4.8S611.2,551.3,608.5,551.3z M608.5,535c-2.7,0-4.8,2.2-4.8,4.8c0,2.7,2.2,4.8,4.8,4.8
		c1.4,0,2.6-0.6,3.4-1.5c-0.7-2.8-1.4-5.5-2.2-8C609.3,535.1,608.9,535,608.5,535z M608.5,567.6c-2.7,0-4.8,2.2-4.8,4.8
		c0,2.7,2.2,4.8,4.8,4.8c2.7,0,4.8-2.2,4.8-4.8S611.2,567.6,608.5,567.6z M608.5,583.9c-2.7,0-4.8,2.2-4.8,4.8
		c0,2.7,2.2,4.8,4.8,4.8c2.7,0,4.8-2.2,4.8-4.8C613.3,586,611.2,583.9,608.5,583.9z M540.8,632.8c-2.7,0-4.8,2.2-4.8,4.8
		c0,2.7,2.2,4.8,4.8,4.8s4.8-2.2,4.8-4.8C545.7,634.9,543.5,632.8,540.8,632.8z M528.7,653.9c0-2.1-1.3-3.9-3.2-4.5
		c-0.3,3.3-0.5,6.4-0.8,9.2C527,658.2,528.7,656.2,528.7,653.9z M528.7,621.3c0-1-0.3-2-0.9-2.8c-0.2,2.1-0.3,4.1-0.5,6.2
		C528.2,623.8,528.7,622.6,528.7,621.3z M528.7,637.6c0-1.7-0.8-3.1-2-3.9c-0.2,2.8-0.4,5.6-0.6,8.2
		C527.6,641.1,528.7,639.4,528.7,637.6z M540.8,551.3c-2.7,0-4.8,2.2-4.8,4.8c0,2.7,2.2,4.8,4.8,4.8s4.8-2.2,4.8-4.8
		C545.7,553.5,543.5,551.3,540.8,551.3z M540.8,583.9c-2.7,0-4.8,2.2-4.8,4.8c0,2.7,2.2,4.8,4.8,4.8s4.8-2.2,4.8-4.8
		C545.7,586,543.5,583.9,540.8,583.9z M540.8,567.6c-2.7,0-4.8,2.2-4.8,4.8c0,2.7,2.2,4.8,4.8,4.8s4.8-2.2,4.8-4.8
		C545.7,569.8,543.5,567.6,540.8,567.6z M608.5,665.3c-2.7,0-4.8,2.2-4.8,4.8c0,0.1,0,0.2,0,0.3c3.3-0.5,6.5-1,9.4-1.6
		C612.5,666.8,610.7,665.3,608.5,665.3z M540.8,600.2c-2.7,0-4.8,2.2-4.8,4.8s2.2,4.8,4.8,4.8s4.8-2.2,4.8-4.8
		S543.5,600.2,540.8,600.2z M623.9,649.4c-1.9,0.6-3.3,2.4-3.3,4.5c0,2.4,1.8,4.4,4.1,4.7C624.4,655.8,624.2,652.7,623.9,649.4z
		 M596.4,670.1c0-2.6-2.1-4.8-4.8-4.8s-4.8,2.2-4.8,4.8c0,0.6,0.1,1.3,0.4,1.8c3.1-0.2,6.1-0.4,9.1-0.6
		C596.3,670.9,596.4,670.5,596.4,670.1z M545.6,670.1c0-2.6-2.1-4.8-4.8-4.8c-2.2,0-4,1.5-4.6,3.5c2.9,0.6,6.1,1.2,9.4,1.6
		C545.6,670.3,545.6,670.2,545.6,670.1z M562.6,670.1c0-2.6-2.2-4.8-4.8-4.8c-2.7,0-4.8,2.2-4.8,4.8c0,0.4,0.1,0.8,0.2,1.2
		c2.9,0.3,6,0.5,9,0.6C562.5,671.4,562.6,670.8,562.6,670.1z M579,672.2c0.3-0.6,0.5-1.4,0.5-2.1c0-2.6-2.2-4.8-4.8-4.8
		c-2.7,0-4.8,2.2-4.8,4.8c0,0.8,0.2,1.5,0.5,2.1C573.3,672.3,576.1,672.3,579,672.2z M557.8,600.2c-2.7,0-4.8,2.2-4.8,4.8
		s2.2,4.8,4.8,4.8c2.7,0,4.8-2.2,4.8-4.8S560.4,600.2,557.8,600.2z M557.8,616.5c-2.7,0-4.8,2.2-4.8,4.8s2.2,4.8,4.8,4.8
		c2.7,0,4.8-2.2,4.8-4.8S560.4,616.5,557.8,616.5z M557.8,583.9c-2.7,0-4.8,2.2-4.8,4.8c0,2.7,2.2,4.8,4.8,4.8
		c2.7,0,4.8-2.2,4.8-4.8C562.6,586,560.4,583.9,557.8,583.9z M574.7,551.3c-2.7,0-4.8,2.2-4.8,4.8c0,2.7,2.2,4.8,4.8,4.8
		s4.8-2.2,4.8-4.8S577.3,551.3,574.7,551.3z M557.8,649.1c-2.7,0-4.8,2.2-4.8,4.8c0,2.7,2.2,4.8,4.8,4.8c2.7,0,4.8-2.2,4.8-4.8
		C562.6,651.2,560.4,649.1,557.8,649.1z M574.7,535c-2.7,0-4.8,2.2-4.8,4.8c0,2.7,2.2,4.8,4.8,4.8s4.8-2.2,4.8-4.8
		S577.3,535,574.7,535z M557.8,632.8c-2.7,0-4.8,2.2-4.8,4.8c0,2.7,2.2,4.8,4.8,4.8c2.7,0,4.8-2.2,4.8-4.8
		C562.6,634.9,560.4,632.8,557.8,632.8z M545.6,539.8c0.1-2.6-2.1-4.8-4.8-4.8c-0.4,0-0.7,0.1-1.1,0.1c-0.8,2.5-1.6,5.2-2.3,8.1
		c0.9,0.9,2.1,1.4,3.4,1.4C543.4,544.6,545.6,542.4,545.6,539.8z M540.8,616.5c-2.7,0-4.8,2.2-4.8,4.8s2.2,4.8,4.8,4.8
		s4.8-2.2,4.8-4.8S543.5,616.5,540.8,616.5z M557.8,519.8c-2.7,0-4.8,2.2-4.8,4.8s2.2,4.8,4.8,4.8c2.7,0,4.8-2.2,4.8-4.8
		S560.4,519.8,557.8,519.8z M557.8,567.6c-2.7,0-4.8,2.2-4.8,4.8c0,2.7,2.2,4.8,4.8,4.8c2.7,0,4.8-2.2,4.8-4.8
		S560.4,567.6,557.8,567.6z M536,653.9c0,2.7,2.2,4.8,4.8,4.8s4.8-2.2,4.8-4.8c0.1-2.7-2.1-4.8-4.8-4.8S536,651.3,536,653.9z
		 M557.8,535c-2.7,0-4.8,2.2-4.8,4.8c0,2.7,2.2,4.8,4.8,4.8c2.7,0,4.8-2.2,4.8-4.8S560.4,535,557.8,535z M557.8,551.3
		c-2.7,0-4.8,2.2-4.8,4.8c0,2.7,2.2,4.8,4.8,4.8c2.7,0,4.8-2.2,4.8-4.8S560.4,551.3,557.8,551.3z"/>
	<g>
		<path class="st6" d="M585.3,702.5C585.3,702.5,585.3,702.5,585.3,702.5c-1.7,0-3-1.4-3-3c0-0.4,0.6-39,0.6-76.5
			c0-4.9,0.1-9.7,0.2-14.3c0.4-13.7,0.7-26.7-3.2-30.4c-0.5-0.5-1.5-1.2-3.5-1c-4.6,0.3-8,1.9-10,4.6c-3.6,4.9-2.1,12.3-2.1,12.4
			c0.4,1.6-0.6,3.2-2.3,3.6c-1.6,0.4-3.2-0.6-3.6-2.3c-0.1-0.4-2.2-10.1,3.1-17.2c3.1-4.2,7.9-6.5,14.4-7c3.2-0.2,5.9,0.6,8,2.6
			c5.8,5.5,5.4,18.4,5,34.8c-0.1,4.6-0.2,9.3-0.2,14.1c0,37.5-0.6,76.2-0.6,76.5C588.2,701.2,586.9,702.5,585.3,702.5z"/>
	</g>
	<path class="st2" d="M620.3,580.2c-0.5,0.2-0.5,0.5-2,0.2c-7.8-1.7-14.6-6.2-21.3-8.8c-0.1-0.1-0.3-0.2-0.4-0.3
		c0,0-6.5-3.1-13.1-4.1c-3-0.5-5.9,0.6-8.2,1.9c-2.3-1.4-5.1-2.4-8.2-1.9c-4.4,0.7-8.8,2.3-11.2,3.3c-8,1.9-15.7,7.9-25,9.9
		c-1.5,0.3-1.5,0-2-0.2c-7.4-2.9-12.2,5.5-7.2,10.8c1.5,1,3.4,1.5,5.4,1.6c11,0.4,25.4-11.1,33.4-13.8c0.1,0,0.1-0.1,0.2-0.1
		c0.4,0,0.9-0.1,1.3-0.1c3.4-0.5,4.2,7.5,7.3,7.2c2.1-0.3,2.6-1.8,2.6-1.8c0.6,1.3,2,1.4,3.4,1c1.3,0.5,2.7,0.3,3.4-1
		c0,0,0.5,1.5,2.6,1.8c3,0.3,3.9-7.1,7-7.2c0.1,0.1,0.3,0.1,0.4,0.2c8,2.7,22.4,14.2,33.4,13.8c2-0.1,3.9-0.6,5.4-1.6
		C632.6,585.7,627.8,577.3,620.3,580.2z"/>
	<path class="st7" d="M548.2,519.4c-3.4,12.2,12.1,33.6,26.4,7.8l-14.3-7.8H548.2z M601.1,519.4c3.4,12.2-12.1,33.6-26.4,7.8
		l14.3-7.8H601.1z"/>
	<g>
		<path class="st2" d="M614.4,501.9c-1.3,0-2.5,0.3-3.6,0.8L610,493l-0.9-10.4c-0.9-11.2-11.9-19.9-25.1-19.9h-17.4
			c-13.2,0-24.2,8.7-25.1,19.9l-1,11.1l-0.8,8.9c-1-0.5-2.2-0.7-3.4-0.7c-4,0-7.3,2.8-7.3,6.3c0,3.5,3.3,6.3,7.3,6.3
			c1.1,0,2.1-0.2,3.1-0.6c0.6,6.2,3.6,10.7,11.8,10.7c5,0,7.5-1.6,8.8-4c7.2,8.7,23.5,8.6,30.6-0.1c1.3,2.4,3.7,4.1,8.8,4.1
			c8.3,0,11.2-4.5,11.9-10.7c1,0.4,2,0.6,3.1,0.6c4,0,7.3-2.8,7.3-6.3C621.7,504.7,618.4,501.9,614.4,501.9z"/>
		<path class="st8" d="M532.7,509.9c-2-4.3,5.5-7.8,8-2.6L532.7,509.9z M618,509.9c2-4.3-5.5-7.8-8-2.6L618,509.9z"/>
		<path class="st9" d="M561.9,501.8c-5.3,1-2.5-6.7-0.2-8.7C563.8,491.3,565,501.2,561.9,501.8z M588.8,501.8c5.3,1,2.5-6.7,0.2-8.7
			C586.9,491.3,585.7,501.2,588.8,501.8z"/>
		<path class="st10" d="M575.3,484.1C575.3,484.1,575.3,484.1,575.3,484.1c-0.2,0-0.4-0.1-0.5-0.3c0-0.1-1-1.5-3.2-1.5
			c-2.2,0-3.3,1.5-3.3,1.6l-0.9-0.6c0.1-0.1,1.4-2,4.3-2c1.9,0,3.1,0.9,3.7,1.5c0.9-0.9,2.2-1.4,3.7-1.5c1.8,0,3.5,0.8,4.4,2
			l-0.9,0.6c-0.7-1-2-1.6-3.4-1.6c-1.4,0-2.6,0.6-3.2,1.5C575.7,484,575.5,484.1,575.3,484.1z M575.8,486.3c0.6-0.9,1.8-1.5,3.2-1.5
			c1.5,0,2.8,0.6,3.4,1.6l0.9-0.6c-0.8-1.3-2.5-2-4.3-2c0,0-0.1,0-0.1,0c-1.5,0-2.8,0.6-3.7,1.5c-0.6-0.6-1.8-1.5-3.7-1.5
			c-2.9,0-4.2,2-4.3,2l0.9,0.6c0-0.1,1.1-1.6,3.3-1.6c2.2,0,3.2,1.5,3.2,1.5c0.1,0.2,0.3,0.3,0.5,0.3c0,0,0,0,0,0
			C575.5,486.6,575.7,486.5,575.8,486.3z"/>
		<path class="st11" d="M604,500.2c1.9-0.8,3.9-0.3,4.4,1.1c0.6,1.4-0.5,3.1-2.4,3.9c-1.9,0.8-3.9,0.3-4.4-1.1
			C601,502.7,602.1,501,604,500.2z M542.3,501.4c0.6-1.4,2.5-1.9,4.4-1.1c1.9,0.8,3,2.5,2.4,3.9c-0.6,1.4-2.5,1.9-4.4,1.1
			C542.9,504.5,541.8,502.8,542.3,501.4z"/>
		<g>
			
				<radialGradient id="SVGID_4_" cx="563.2243" cy="630.7495" r="29.6562" gradientTransform="matrix(1 0 0 -1 0 1080)" gradientUnits="userSpaceOnUse">
				<stop  offset="0.4604" style="stop-color:#EFEDE7"/>
				<stop  offset="1" style="stop-color:#BDCCC4"/>
			</radialGradient>
			<circle class="st12" cx="573.6" cy="459.5" r="15.5"/>
			
				<linearGradient id="SVGID_5_" gradientUnits="userSpaceOnUse" x1="566.8958" y1="619.5516" x2="574.1851" y2="594.7986" gradientTransform="matrix(1 0 0 -1 0 1080)">
				<stop  offset="0.4604" style="stop-color:#EFEDE7"/>
				<stop  offset="1" style="stop-color:#BDCCC4"/>
			</linearGradient>
			<path class="st13" d="M610.1,493c-8.9-2.8-29.2-9.9-34.8-18.1c-4.4,9.5-25.5,16.3-34.7,18.8l1-11.1c0.9-11.2,11.9-19.9,25.1-19.9
				H584c13.2,0,24.2,8.7,25.1,19.9L610.1,493z"/>
			<path class="st14" d="M615.7,493.1c-7.2,0-15.6-4.6-21.9-7.5c-6.4-3-14-6.2-18.5-11.9c-3.3,5.8-11.2,9.2-16.9,12.1
				c-7.3,3.7-17.3,8.3-25.7,8.3c6.9,1.4,15.8-2.1,22.3-4.8c7-2.9,17.3-7.4,20.5-14.8c4.3,7.1,14.2,11.1,21.6,14.1
				c6.3,2.6,13.2,5.1,20.1,4.6C616.7,493.2,616.2,493.2,615.7,493.1z"/>
		</g>
		<path class="st15" d="M575.2,492.7v5.7c-2.7-4.8-9,3,2.1,7.2v-12.8h-2.1V492.7z"/>
		<path class="st15" d="M575.2,492.7v5.7c-2.7-4.8-9,3,2.1,7.2v-12.8h-2.1V492.7z"/>
		<path class="st6" d="M575.4,510.8c-2.3,0-4.4-0.9-6-2.5l0.8-0.8c2.9,2.9,7.5,2.9,10.4,0l0.8,0.8
			C579.8,509.9,577.7,510.8,575.4,510.8z M604,497.4c0,6.5-5.3,11.8-11.8,11.8c-6.5,0-11.8-5.3-11.8-11.8c0-1.1,0.2-2.1,0.4-3.1
			c-3.9-2-7.5-2-11,0c0.3,1,0.4,2,0.4,3.1c0,6.5-5.3,11.8-11.8,11.8s-11.8-5.3-11.8-11.8c0-6.5,5.3-11.8,11.8-11.8
			c5,0,9.3,3.1,11,7.6c3.7-2.1,7.6-2.1,11.8,0c1.7-4.4,6-7.6,11-7.6C598.7,485.6,604,490.9,604,497.4z M569.1,497.4
			c0-5.9-4.8-10.6-10.6-10.6s-10.6,4.8-10.6,10.6s4.8,10.6,10.6,10.6S569.1,503.3,569.1,497.4z M602.8,497.4
			c0-5.9-4.8-10.6-10.6-10.6s-10.6,4.8-10.6,10.6s4.8,10.6,10.6,10.6S602.8,503.3,602.8,497.4z M598.1,493.5
			c0.5-0.2,0.6-0.8,0.4-1.3c-1.8-3.5-6.1-4.8-9.6-3c-0.5,0.2-0.6,0.8-0.4,1.3c0.2,0.5,0.8,0.6,1.3,0.4c1.2-0.7,2.6-0.8,4-0.4
			c1.3,0.4,2.4,1.3,3.1,2.6c0.2,0.3,0.5,0.5,0.8,0.5C597.8,493.6,598,493.6,598.1,493.5z M553.8,493.1c0.7-1.2,1.8-2.2,3.1-2.6
			c1.3-0.4,2.7-0.3,4,0.4c0.5,0.2,1,0.1,1.3-0.4c0.2-0.5,0.1-1-0.4-1.3c-3.4-1.8-7.7-0.5-9.6,3c-0.2,0.5-0.1,1,0.4,1.3
			c0.1,0.1,0.3,0.1,0.4,0.1C553.3,493.6,553.7,493.5,553.8,493.1z"/>
	</g>
	<g>
		<path class="st7" d="M495.1,413.8c18,4.1-1.9,14.6,27,16.6c2.7,0.2,21.2,20.7,19.8,17.4c-2-4.8-2.5-17.1,2.2-17.2
			c59.6-2,109-10.4,95.9-33c-7.4-12.8-47.8-30.6-85-27.8C501.7,373.8,471.2,408.2,495.1,413.8z"/>
		<path class="st16" d="M521.7,389.2c-0.3,0-0.6,0.1-0.8,0.2c-0.1,0.3-0.2,0.7-0.3,1c0,0.1-0.1,0.3-0.1,0.5
			c-0.1,0.4-0.1,0.6-0.1,0.6c-0.1,0.1-0.2,0.7-0.5,1.9c-0.2,1.1-0.4,1.7-0.4,1.8c-0.3,1-0.4,1.6-0.6,2.6c-0.2,0.5-0.4,1.1-0.5,1.8
			s-0.2,1.2-0.3,1.4c-0.1,0.2-0.2,0.4-0.2,0.4c-0.1,0-0.2,0.1-0.4,0.1s-0.4,0-0.6-0.2c-0.2-0.2-0.3-0.4-0.3-0.6s0-0.7,0.1-1.4
			c0.1-0.7,0.2-1.2,0.4-1.6c0-0.2,0-0.4,0.1-0.6c0-0.2,0-0.3,0-0.3c0.1-0.2,0.2-0.4,0.2-0.8c0-0.3,0.3-1.9,0.8-4.6
			c0.1-0.2,0.2-0.5,0.2-0.8c0.1-0.1,0.1-0.2,0.1-0.4c0-0.1,0.1-0.2,0.1-0.3h0.1c0,0,0.1,0,0.1-0.1l0,0c-1.1,0.3-1.7,0.4-2.8,0.6
			c-0.5,0.1-0.9,0.1-1.1,0c-0.2-0.1-0.3-0.3-0.3-0.5c0-0.3,0.4-0.6,1.1-0.8c0.3-0.1,0.9-0.3,1.9-0.5c0.9-0.2,2.2-0.5,3.9-0.9
			c0.1,0,0.4,0,0.9,0s0.8,0,1,0.1c0.6,0.1,1,0.3,1.2,0.8c0.1,0.3,0,0.4-0.2,0.6c-0.1,0-0.2,0.1-0.4,0.2s-0.3,0.1-0.4,0.2
			c-0.1,0-0.3,0.1-0.5,0c-0.1,0-0.2-0.1-0.3-0.1C523,389.1,522.4,389.1,521.7,389.2z M523.6,393.4c0.6-0.6,1.2-1,1.7-1.2
			c0.8-0.3,1.4-0.2,1.7,0c0.4,0.2,0.9,0.6,1.1,1.2c0.2,1,0,2.2-0.7,3.4c-0.4,0.7-1,1.4-1.8,2c-0.3,0.3-0.9,0.5-1.8,0.6
			c-0.2,0-0.5-0.1-0.8-0.3c-0.7-0.5-1-1-1-1.5c0-0.2,0-0.3,0-0.4c-0.1-0.1-0.1-0.1-0.1-0.1s0-0.1,0.1-0.1c0,0,0.1-0.1,0.1-0.2
			s0-0.4,0.1-0.7c0.1-0.4,0.2-0.7,0.3-1C522.7,394.5,523.1,393.9,523.6,393.4z M526.2,395.6c0,0,0-0.1,0.1-0.3
			c0-0.2,0.1-0.3,0.1-0.3c0-0.1,0-0.3,0-0.6c0-0.3-0.1-0.5-0.2-0.5c-0.1-0.1-0.3,0-0.4,0c-0.1,0-0.2,0.1-0.4,0.3
			c-0.9,0.9-1.4,1.9-1.5,2.8c0,0.3,0.1,0.6,0.2,0.7c0.1,0.1,0.3,0.2,0.6,0.1s0.5-0.3,0.7-0.5s0.3-0.4,0.4-0.4
			c0.1-0.1,0.1-0.1,0.1-0.2s0.1-0.1,0.1-0.2s0.1-0.2,0.1-0.2s0-0.1,0.1-0.2C526.1,395.7,526.1,395.7,526.2,395.6z M528.8,399.2
			c0-0.3,0-0.4,0.1-0.7c0-0.3,0.2-1.2,0.5-2.5s0.6-2.4,0.8-3.2c0.3-0.8,0.4-1.4,0.4-1.7c0-0.1,0.1-0.2,0.2-0.3
			c0.1-0.1,0.3-0.2,0.5-0.2s0.4,0,0.6,0.1c0.2,0.3,0.3,0.7,0.3,1c0,0.2-0.1,0.6-0.3,1c0,0,0,0.1,0,0c0.7-0.5,1.4-0.8,2-0.8
			s1,0.2,1.4,0.5c0.3,0.3,0.5,0.8,0.6,1.3c0,0.2-0.1,0.5-0.2,1c-0.2,0.4-0.3,0.7-0.4,0.9c-0.1,0-0.2,0.2-0.3,0.4
			c-0.1,0.2-0.4,0.5-0.8,0.7c-0.4,0.3-0.7,0.4-0.9,0.3c-0.1,0-0.1,0.1-0.1,0.2s-0.2,0.2-0.6,0.4c-0.4,0.2-0.8,0.2-1,0.3
			c-0.2,0-0.4,0-0.6-0.1c-0.1,0.1-0.1,0.2-0.1,0.3c0,0.1,0,0.3-0.1,0.6c-0.1,0.3-0.2,0.4-0.3,0.4c-0.1,0.1,0,0.2,0,0.2
			c0.1,0.1,0,0.5-0.1,0.6c0,0.2,0,0.6-0.1,0.9c0,0.2,0,0.3,0,0.5c0,0.1-0.1,0.2-0.1,0.2c-0.1,0-0.1,0.2-0.1,0.5s0,0.6-0.2,0.9
			s-0.3,0.4-0.5,0.4s-0.4,0-0.5-0.1c-0.3-0.3-0.5-0.7-0.4-1.1c0.1-0.5,0.1-0.9,0.1-1.1s0-0.4,0-0.6c0.1-0.2,0.2-0.5,0.1-0.9
			C528.6,399.4,528.7,399.3,528.8,399.2z M531.1,396.5c0.2,0,0.5-0.2,1-0.4c0.5-0.2,0.8-0.5,1-0.7s0.4-0.4,0.5-0.5s0.2-0.3,0.3-0.4
			c0.2-0.3,0.1-0.6-0.1-0.9c-0.4-0.4-1.1-0.1-2.1,1c-0.4,0.5-0.6,0.9-0.7,1.4C530.9,396.4,531,396.6,531.1,396.5z M550.7,385
			c0.2-0.1,0.4-0.1,0.5-0.1c0.2,0,0.3,0,0.3,0.1c-0.1,0.1-0.1,0.2,0.1,0.3c0.1,0.1,0.1,0.3,0,0.7c-0.1,0.4-0.2,0.7-0.2,0.8
			c0,0.1,0,0.1,0,0.2s0,0.2-0.2,0.4c-0.1,0.1-0.2,0.5-0.3,1.1s-0.2,1-0.1,1.1c0,0.1-0.2,0.2-0.6,0.2c-0.6,0-0.9-0.2-1-0.4
			c-0.1-0.1-0.1-0.5,0-1c0.1-0.6,0.2-1.1,0.2-1.3c0-0.2-0.1-0.5-0.3-0.6c-0.1-0.1-0.2-0.2-0.5-0.2c-0.2,0-0.4,0-0.6,0.1
			c-0.3,0.1-0.7,0.5-1.3,1.1s-1.1,1.2-1.4,1.8c-0.8,1.3-1.3,2.5-1.5,3.7s-0.1,2.3,0.4,3.2c0,0.1,0.1,0.2,0.3,0.3
			c0.1,0.1,0.3,0.2,0.3,0.3c0.4,0.1,1,0,1.8-0.1c0.5-0.1,0.9-0.3,1.2-0.5s0.5-0.5,0.8-0.9c0.2-0.3,0.4-0.4,0.7-0.2
			c0.3,0.2,0.4,0.4,0.5,0.8c0,0.1-0.1,0.4-0.3,0.7c-0.2,0.4-0.4,0.6-0.5,0.6s-0.1,0.1-0.1,0.2s-0.3,0.3-0.9,0.6
			c-0.6,0.3-1.2,0.5-1.7,0.6c-0.6,0.1-1.3,0-2.1-0.2c-0.4-0.1-0.9-0.3-1.2-0.6c-0.4-0.3-0.6-0.7-0.8-1.1c-0.4-1.3-0.4-2.9,0-4.8
			c0.1-0.5,0.4-1.2,0.9-2.1c0.5-1,0.9-1.7,1.3-2.2c0.4-0.5,0.9-1.1,1.6-1.6c0.7-0.6,1.1-1,1.4-1.1c0.3-0.1,0.7-0.1,1.1-0.1
			c0.3,0,0.6,0.1,0.9,0.3c0.3,0.2,0.5,0.4,0.6,0.5c0,0.1,0.2,0.1,0.4,0C550.4,385.2,550.5,385.1,550.7,385z M554.5,384.6
			c0.1-0.3,0.3-0.5,0.4-0.5c0.1,0,0.3,0.1,0.6,0.2c0.5,0.3,0.7,0.7,0.6,1.2c-0.1,0.3-0.3,0.8-0.6,1.5s-0.6,1.4-0.8,2.1
			s-0.4,1.4-0.6,2.2s-0.3,1.2-0.3,1.3c0,0.1,0.1,0.2,0.2,0.1c0.1-0.1,0.2-0.1,0.3-0.2c0-0.1,0.1-0.2,0.3-0.3
			c0.1-0.1,0.3-0.3,0.4-0.5c0.2-0.2,0.4-0.5,0.7-0.8s0.6-0.5,0.8-0.5c0.5,0,0.9,0.2,1.1,0.8l0.1,0.1c0.1,0.1,0.1,0.1,0.1,0.1
			s0.1,0.1,0.1,0.3c0.1,0.4-0.1,1-0.2,1.7c-0.1,0.5-0.1,0.9-0.2,1.1s0,0.3,0.1,0.3c0.2-0.1,0.4-0.3,0.7-0.4c0.2-0.1,0.4-0.2,0.6-0.3
			c0.2,0,0.3,0,0.4,0.1c0.1,0.1,0.1,0.2,0.1,0.3c0,0.1,0,0.2-0.1,0.4c-0.1,0.2-0.1,0.3-0.1,0.3v0.1c0,0.1-0.2,0.2-0.5,0.5
			c-0.6,0.5-1.2,0.8-1.7,0.7c-0.3,0-0.6-0.2-0.8-0.4c-0.2-0.3-0.3-0.7-0.4-1.2c0-0.9,0.1-1.6,0.4-2.2v-0.1c-0.1,0-0.2,0.1-0.3,0.3
			c-0.6,0.6-1.1,1.2-1.5,1.8c-0.4,0.6-0.6,1.1-0.6,1.4c0,0.2-0.1,0.3-0.3,0.4s-0.4,0.1-0.5,0c-0.7-0.4-1.1-0.9-1.1-1.8
			c0-0.8,0.1-1.6,0.2-2.3c0.1-0.7,0.3-1.7,0.6-2.9c0.5-1.8,0.9-2.8,0.9-2.9c0.1-0.1,0.2-0.4,0.4-0.8c0.2-0.5,0.2-0.8,0.2-0.9
			C554.3,385,554.4,384.8,554.5,384.6z M564.3,388.8c1.5-0.1,2.3,0.5,2.3,1.7c0,0.6-0.3,1.3-0.8,2c-0.6,0.7-1.2,1.1-1.8,1.1
			s-1.1-0.1-1.6-0.5c-0.2,0.4-0.3,0.8-0.3,1.1c0,0.3,0,0.4,0,0.5s0,0.2,0.1,0.3c0.1,0.2,0.2,0.3,0.5,0.3s0.5,0,0.6-0.1
			c0.2,0,0.3-0.1,0.3-0.1c0.1,0,0.2-0.1,0.3-0.2s0.3-0.2,0.4-0.3c0.1-0.1,0.2-0.1,0.3-0.2s0.2-0.1,0.2-0.1c0.1-0.1,0.2-0.1,0.2-0.1
			c0.2,0,0.4,0,0.6,0.2c0.2,0.1,0.3,0.2,0.3,0.4c0,0.1-0.1,0.4-0.3,0.7c-0.2,0.3-0.5,0.5-0.7,0.6c-0.1,0-0.1,0.1-0.2,0.1
			c-0.1,0.2-0.2,0.2-0.4,0.2c-0.1,0-0.1,0-0.2,0c0,0.1-0.2,0.2-0.5,0.3c-0.3,0.1-0.6,0.2-0.8,0.2c-1.5,0.1-2.3-0.7-2.4-2.4
			c0-0.9,0.3-2,0.9-3.1C562.2,389.7,563.2,388.9,564.3,388.8z M562.9,391.8c0.1,0,0.1,0,0.2,0c0.1,0,0.1,0.1,0.3,0.2
			c0.1,0.1,0.3,0.2,0.5,0.2c0.4,0,0.7-0.2,0.9-0.5s0.4-0.6,0.3-0.8c0-0.5-0.2-0.7-0.4-0.7s-0.5,0.1-0.8,0.3
			c-0.3,0.2-0.5,0.5-0.7,0.8C563,391.6,563,391.6,562.9,391.8z M568,397.9c0.1-0.4,0.1-0.7,0.1-1s0-0.8,0.1-1.4
			c0.1-1.1,0.2-2.2,0.5-3.3c0-0.4,0-0.7,0-0.8c0-0.1-0.1-0.2-0.3-0.2c-0.6,0-0.9-0.3-1-0.6c-0.1-0.2-0.2-0.4,0.2-0.6
			c0.2-0.1,0.5-0.1,0.8-0.2c0.4,0,0.7-0.1,0.8-0.2s0.2-0.3,0.3-0.6c0.2-0.5,0.3-0.7,0.4-1.1c0.1-0.1,0.2-0.2,0.2-0.4
			c0-0.2,0.3-0.9,1.1-1.9c0.9-1.2,1.9-1.9,2.8-2.1c0,0,0.3,0,0.8,0s0.9,0.2,1.2,0.7c0.1,0.2,0.1,0.4,0.1,0.7c0,0.3-0.1,0.5-0.2,0.7
			c-0.1,0.2-0.3,0.4-0.7,0.7c-0.4,0.3-0.6,0.4-0.6,0.4c-0.1,0-0.2,0-0.3-0.1s-0.2-0.2-0.2-0.2c0-0.1,0-0.1,0-0.2c0,0,0-0.1,0-0.2
			s0.1-0.1,0.1-0.2c0.1-0.2,0.2-0.3,0.2-0.3c0.1-0.2,0.2-0.4,0.2-0.4s0-0.1-0.1-0.1c0-0.1-0.1-0.1-0.1-0.1c-0.1,0-0.2,0-0.4,0.1
			c-0.3,0.1-0.5,0.4-0.7,0.6c-0.3,0.3-0.6,0.7-0.8,1.1c-0.2,0.5-0.4,0.9-0.6,1.3c-0.2,0.4-0.3,0.7-0.4,0.8c-0.1,0.2-0.1,0.3-0.2,0.4
			c-0.1,0.1-0.1,0.2-0.1,0.3c0,0.1-0.1,0.1-0.1,0.2s0,0.1,0.1,0.1s0.3,0,0.5,0c1.1-0.1,1.7,0.1,1.9,0.4c0.1,0.3,0.2,0.5-0.1,0.6
			s-0.7,0.3-1.2,0.3c-0.5,0.1-0.8,0.1-0.9,0.1c-0.1,0-0.2,0-0.3,0s-0.1,0-0.1,0s0,0-0.1,0s-0.2,0.1-0.3,0.4c0,0.1,0,0.2-0.1,0.4
			c0,0.2,0,0.4-0.1,0.5c0,0.1-0.1,0.3-0.1,0.5s-0.1,0.4-0.1,0.4c-0.1,0.3-0.1,1-0.1,1.8s-0.1,1.4-0.2,1.8c-0.1,0.4-0.2,0.7-0.3,0.9
			c-0.1,0.1-0.3,0.2-0.4,0.3c-0.2,0.1-0.3,0.1-0.4,0.1c-0.2,0-0.3-0.1-0.5-0.2C568.1,398.1,568,398,568,397.9z M574.1,397
			c-0.3,0.4-0.5,0.5-0.5,0.5c-0.1,0-0.1,0-0.2,0.1c-0.1,0.1-0.3,0.1-0.6,0.1s-0.5-0.1-0.7-0.3c0-0.1,0.1-0.3,0.4-0.5
			c0.3-0.2,0.6-0.7,0.9-1.4c0.1-0.2,0.2-0.6,0.3-1.1c0-0.3,0-0.4,0.1-0.5c0.6-0.6,1-0.3,1.2,0.7c0.1,0.5,0,1-0.3,1.6
			C574.6,396.4,574.4,396.7,574.1,397z M587.9,391.6c-0.2,0.2-0.3,0.3-0.4,0.3c-0.1,0-0.2,0-0.2,0.1s-0.1,0.1-0.2,0.1
			c-0.1,0-0.3,0-0.4-0.1c-0.2-0.1-0.2-0.1-0.3-0.2c0-0.1,0.1-0.3,0.2-0.7c0.1-0.4,0.1-0.7,0-0.8c-0.1-0.1-0.2-0.1-0.5,0
			c-0.5,0.3-0.9,0.6-1.1,1c-0.3,0.4-0.5,1-0.7,1.6c-0.2,0.7-0.3,1.1-0.3,1.2c0,0.2,0.1,0.4,0.2,0.4c0.4,0.1,0.8,0.1,1.1-0.1
			c0.3-0.1,0.7-0.4,1.2-0.8c0,0,0.1-0.1,0.2-0.2c0.1-0.1,0.2-0.2,0.3-0.2c0.1-0.2,0.3-0.2,0.5-0.2s0.3,0,0.4,0
			c0.2,0.1,0.4,0.2,0.6,0.5c0.1,0.1,0,0.2,0,0.2l-0.1,0.1c0.1,0.1-0.2,0.4-0.7,0.9s-0.9,0.7-1,0.7s-0.2,0-0.2,0.1s-0.2,0.2-0.6,0.3
			c-0.4,0.2-0.7,0.3-1,0.3c-0.6,0.1-1.2,0-1.7-0.4c-0.5-0.3-0.7-0.8-0.8-1.4c0-0.6,0.1-1.3,0.3-2.2c0.3-0.9,0.7-1.6,1.1-2.1
			c0.7-0.8,1.2-1.2,1.6-1.4c0.4-0.1,0.8-0.2,1.2-0.2c0.7,0.2,1.1,0.4,1.1,0.7l0.1,0.1c0.1,0,0.3,0.2,0.4,0.6c0.1,0.4,0.1,0.7,0,0.9
			C588.1,391.1,588,391.4,587.9,391.6z M591.6,384.4c0.1-0.4,0.4-0.7,0.8-0.9c0.4-0.2,0.9-0.2,1.3,0c0.2,0.1,0.4,0.3,0.5,0.6
			c0.1,0.3,0.2,0.5,0.1,0.6c-0.1,0.3-0.2,0.7-0.3,1s-0.2,0.5-0.2,0.6c-0.1,0.4-0.6,1-1.3,1.7c0,0.1-0.1,0.1-0.2,0.1
			c-0.1,0-0.2,0.1-0.3,0.1s-0.2,0-0.3,0s-0.2,0-0.3-0.1c-0.3-0.2-0.3-0.4,0-0.8c0.6-0.9,0.9-1.4,1-1.5c0-0.1,0.1-0.2,0.1-0.2
			c-0.2,0-0.5-0.1-0.7-0.2C591.5,385.1,591.5,384.8,591.6,384.4z M596.1,388.9c0.8,0,1.4,0.2,1.7,0.6s0.5,0.7,0.5,1
			c0,0.1,0,0.1,0,0.2c0,0.3-0.2,0.7-0.6,1.3c-0.2,0.3-0.5,0.6-0.9,0.8c-0.4,0.2-0.8,0.3-1.2,0.3s-0.8,0-1.1-0.1s-0.6-0.1-0.6-0.1
			c-0.1,0-0.2,0-0.2,0.1c-0.1,0.1-0.2,0.4-0.2,0.8c0,0.3,0.1,0.6,0.3,0.8c0.2,0.1,0.4,0.2,0.6,0.2c0.2,0,0.5,0,0.7-0.1
			s0.5-0.2,0.8-0.4c0.3-0.2,0.5-0.3,0.7-0.3s0.3,0.1,0.5,0.2c0.2,0.2,0.3,0.3,0.2,0.4c0,0.3-0.4,0.7-1,1.1c-0.6,0.5-1.3,0.7-2,0.6
			c-0.7,0-1.3-0.2-1.8-0.7c-0.5-0.4-0.7-1-0.7-1.7c0-0.3,0-0.6,0.1-0.9c0-0.3,0.2-0.7,0.4-1.2s0.6-1,1-1.5c0.5-0.5,1-0.9,1.5-1.1
			C595.3,389,595.7,388.9,596.1,388.9z M595.9,390.3c-0.2,0-0.4,0.1-0.8,0.4c-0.3,0.3-0.6,0.6-0.9,0.9c0,0.2,0.2,0.2,0.7,0.3
			c0.4,0,0.7,0,0.8-0.1s0.3-0.2,0.6-0.5c0.3-0.2,0.4-0.4,0.5-0.5c0-0.3-0.2-0.4-0.6-0.5C596,390.3,596,390.3,595.9,390.3z
			 M603,388.9c0.2-0.1,0.5-0.1,0.8-0.1s0.5,0.1,0.6,0.1s0.1,0,0.2,0c0.2,0,0.4,0.1,0.6,0.4c0.2,0.3,0.4,0.5,0.5,0.6
			c0.1,0.7-0.2,1.4-0.3,1.4s-0.1,0-0.1,0.1c0,0.2-0.2,0.4-0.5,0.6s-0.7,0.3-0.9,0.3c-0.1,0-0.3-0.1-0.4-0.3
			c-0.1-0.1-0.2-0.3-0.2-0.4c0,0,0.1-0.2,0.4-0.5c0.3-0.3,0.4-0.6,0.5-0.8c0-0.1-0.1-0.2-0.3-0.2c-0.8,0.3-1.3,0.5-1.6,0.8
			c-0.1,0.1-0.2,0.2-0.3,0.2l0,0c0,0-0.1,0.1-0.2,0.2c-0.1,0.1-0.3,0.3-0.4,0.5c-0.2,0.2-0.2,0.4-0.3,0.5c0,0,0,0,0,0.1v0.1
			c0,0,0,0.1,0,0.2c0,0.2,0.3,0.5,0.8,0.9s0.9,0.8,1.1,1c0.2,0.2,0.3,0.4,0.4,0.6c0.1,0.2,0.2,0.4,0.1,0.6c0,0.4-0.3,0.7-0.8,1
			c-0.5,0.2-1,0.3-1.7,0.3s-1.2-0.2-1.7-0.5s-0.7-0.5-0.7-0.7s0.1-0.3,0.2-0.3c0.1-0.1,0.3-0.1,0.6-0.1c0.3,0.1,0.6,0.2,1,0.2
			c0.2,0,0.5,0,0.8,0c0.2,0,0.4-0.1,0.4-0.1c0-0.1,0-0.1-0.1-0.2s-0.2-0.1-0.3-0.1c0-0.1-0.3-0.3-0.8-0.7c-0.5-0.4-0.8-0.7-0.8-0.8
			l0,0v-0.1c-0.1,0-0.2-0.1-0.2-0.4c-0.1-0.2-0.1-0.5-0.1-0.7c0-0.7,0.5-1.4,1.4-2.1C601.2,389.5,602.1,389.1,603,388.9z
			 M606.3,391.1c-0.1,0-0.1-0.1-0.1-0.3v-0.1c0,0,0-0.1-0.1-0.1s-0.1-0.1-0.1-0.1s0-0.1,0.1-0.3c0.1-0.1,0.2-0.2,0.3-0.2
			s0.2,0,0.4,0s0.4,0,0.6,0c0.4,0,0.8-0.2,1-0.4c0.6-1.2,1-1.9,1.3-2.1c0.6-0.2,1-0.1,1.3,0.3c0,0,0.1,0.1,0.1,0.2
			c0.1,0.1,0.1,0.1,0.1,0.1s0,0.1-0.1,0.2c0,0.1-0.4,0.6-1,1.6c0.2,0,0.4,0.1,0.6,0c0.4,0,0.7,0,1,0c0.5,0.1,0.8,0.4,0.9,0.9
			c0,0.3-0.3,0.5-0.9,0.4c-1.4-0.1-2.1,0-2.1,0c-0.1,0-0.2,0.2-0.4,0.6c-0.2,0.3-0.3,0.7-0.4,1c-0.5,1.6-0.5,2.5-0.2,2.9
			c0.2,0.2,0.6,0.1,1.3-0.4c0.2-0.2,0.5-0.2,0.6-0.1c0.2,0.1,0.3,0.2,0.3,0.4c0,0.2-0.1,0.4-0.2,0.7c-0.3,0.3-0.7,0.6-1.2,0.7
			c-0.5,0.2-0.9,0.2-1.2,0.1s-0.7-0.4-1.1-0.8c-0.2-0.3-0.3-0.5-0.3-0.7s0-0.5,0-0.8c0-0.2,0-0.3,0-0.6c0-0.3,0.3-1.2,0.8-2.7
			c0-0.1,0-0.2-0.2-0.3s-0.4-0.1-0.6-0.1C606.4,391.2,606.3,391.2,606.3,391.1z M519.1,419.4c-0.1,0.1-0.2,0.1-0.3,0.2
			c-0.1,0-0.2,0.1-0.3,0.1s-0.3,0-0.5-0.1s-0.3-0.2-0.4-0.3c-0.2-0.3-0.3-0.9-0.5-1.8c-0.3,0.3-0.4,0.5-0.7,0.8
			c-0.7,0.9-1.4,1.4-2,1.4c-0.2,0-0.5-0.1-0.8-0.4c-0.4-0.3-0.6-0.5-0.7-0.7c-0.2-0.3-0.2-0.9-0.1-1.8c0.1-0.9,0.5-1.6,0.8-2.2
			s0.8-1.1,1.4-1.4c0.6-0.3,1.2-0.3,1.7-0.1c0.4,0.2,0.7,0.1,0.7-0.2c0-0.1,0.1-0.6,0.3-1.7s0.5-2.3,0.9-3.6
			c0.2-0.6,0.4-0.8,0.7-0.9c0.2,0,0.4,0,0.6,0.1c0.2,0.1,0.4,0.2,0.5,0.4c0.1,0.2,0.1,0.4,0,0.7c-0.3,0.6-0.5,1.6-0.9,2.9
			c-0.3,1.3-0.5,2.4-0.6,3.2c-0.1,0.8-0.1,1.7,0,2.7c0.1,1.1,0.2,1.7,0.3,1.8c0.1,0.2,0.1,0.3,0.1,0.5
			C519.2,419.2,519.2,419.3,519.1,419.4z M514.5,418c0.1,0,0.3,0,0.6-0.2c0.3-0.1,0.5-0.4,0.9-0.7c0.3-0.3,0.6-0.6,0.7-0.8
			c0.1-0.2,0.2-0.5,0.3-0.9c0.1-0.3-0.1-0.6-0.4-0.8c-0.4-0.2-0.8-0.1-1.2,0.5c-0.6,0.7-0.9,1.6-0.9,2.7
			C514.3,417.9,514.4,418,514.5,418z M520.6,418.1c0-0.1-0.1-0.3-0.3-0.4c-0.2-0.2,0-1.2,0.8-3.1c0.1-0.1,0.1-0.2,0.2-0.4
			c0.1-0.2,0.2-0.3,0.2-0.4s0-0.1,0-0.1l0.1-0.1c0-0.1,0.1-0.2,0.1-0.3c0-0.1,0.2-0.4,0.6-0.9s0.7-0.8,1-1c0.2-0.2,0.5-0.3,0.8-0.3
			s0.5,0,0.8,0.2c0,0,0.1,0.1,0.3,0.2c0.3,0.2,0.9,0.6,1.8,1.2c-0.1,0.4-0.1,0.6-0.2,1c-0.2,0.9,0,1.6,0.5,2.3
			c0.2,0.2,0.4,0.4,0.7,0.4s0.5,0.1,0.5,0.4c0.1,0.5-0.1,0.8-0.4,0.9c-0.9,0.3-1.8-0.1-2.4-0.9c-0.2-0.2-0.4-0.5-0.4-0.8
			c-0.1,0.1-0.2,0.3-0.4,0.5c-1.5,2-2.7,2.7-3.7,2.3c0-0.1-0.2-0.2-0.4-0.3C520.7,418.2,520.6,418.1,520.6,418.1z M524.4,412.6
			c-0.5,0.1-1.1,1.1-2,3c-0.2,0.3-0.3,0.7-0.4,1.3c0.2,0,0.6-0.3,1.1-0.8c0.1-0.1,0.2-0.3,0.4-0.5s0.3-0.3,0.4-0.4
			c0.1-0.1,0.2-0.2,0.3-0.3c0.2-0.3,0.4-0.6,0.6-0.9c0.1-0.3,0.2-0.4,0.3-0.7C524.9,412.7,524.7,412.5,524.4,412.6z M534,411.3
			c0.2-0.1,0.3-0.1,0.5-0.2c0.2,0,0.4,0,0.6,0.1c0.2,0.1,0.3,0.2,0.4,0.4c0,0,0,0.1,0.1,0.1c0.3,0.2,0.4,0.5,0.4,0.8s0,0.9-0.1,1.7
			c-0.1,0.8-0.2,1.3-0.2,1.5s0.1,0.4,0.1,0.5c0.1,0.1,0.1,0.3,0.1,0.3c0,0.1,0,0.2-0.1,0.3c-0.1,0.1-0.3,0.2-0.5,0.2
			s-0.5-0.1-0.8-0.3c-0.3-0.2-0.4-0.6-0.5-1c0-0.4,0-1.1,0.2-2.2c0-0.1,0-0.1,0-0.2s0-0.1,0-0.1v-0.1V413c0,0,0-0.1-0.1-0.1
			s-0.1,0-0.2,0.1c-0.1,0.1-0.2,0.2-0.3,0.2c-0.1,0.1-0.2,0.2-0.4,0.4c-0.2,0.2-0.3,0.3-0.4,0.4c-0.1,0.1-0.4,0.3-0.7,0.7
			c-0.9,1-1.5,1.5-1.6,1.5s-0.3-0.1-0.6-0.2s-0.5-0.3-0.5-0.5s0-0.7,0.2-1.4c0.2-0.7,0.3-1.4,0.6-2.1c0-0.1,0-0.3,0.1-0.7
			c0-0.6,0.2-0.9,0.5-1c0.3,0,0.5,0.1,0.8,0.3c0.3,0.2,0.4,0.5,0.4,0.7c0,0.3,0,0.6-0.1,0.9c-0.1,0.4-0.1,0.6-0.2,0.6l0.1-0.1
			c0.1-0.1,0.3-0.3,0.6-0.5c0.4-0.3,0.7-0.6,0.9-0.8C533.6,411.6,533.7,411.5,534,411.3z M542.2,408.8c0.2,0.1,0.5,0.1,0.7,0.1
			s0.4,0.2,0.7,0.4c0.3,0.3,0.4,0.6,0.4,0.9s-0.1,0.6-0.3,0.9s-0.3,0.5-0.5,0.5c0.1,0,0,0,0-0.1c-0.2-0.1-0.2-0.1-0.3-0.1
			c0,0,0,0-0.1,0c0-0.1,0-0.1-0.1-0.3c-0.1-0.1-0.1-0.2-0.1-0.4s0-0.3,0-0.3v-0.1c0,0,0,0,0-0.1c-0.1,0-0.1,0-0.2,0
			c-0.4-0.1-0.9,0.1-1.3,0.5c-0.3,0.3-0.6,0.5-0.7,0.6c-0.1,0.1-0.2,0.3-0.3,0.6c-0.1,0.2-0.2,0.4-0.2,0.5c0,0.2,0.5,0.5,1.4,0.7
			c0.3,0.1,0.5,0.2,0.6,0.3c0.1,0.1,0.2,0.2,0.2,0.3c0.2,0.3,0.3,0.5,0.3,0.5c0.1,0.3,0.2,0.5,0.1,0.5c0,0,0,0,0,0.1
			c0.2,0.3,0.1,0.6-0.2,0.9c-0.3,0.4-0.7,0.6-1.1,0.7c-0.4,0.1-0.8,0.2-1.2,0.2c-0.7,0.1-1.3-0.1-1.5-0.5c-0.2-0.3-0.3-0.7-0.1-1
			c0.1-0.2,0.2-0.2,0.4-0.1c0.1,0.1,0.4,0.1,0.6,0.1c0.2,0,0.5-0.1,0.8-0.1s0.5-0.1,0.6-0.2s0.1-0.2,0.1-0.3c0-0.1-0.1-0.2-0.1-0.2
			c-0.5-0.1-1-0.3-1.5-0.5c-0.5-0.3-0.8-0.6-0.9-0.9c-0.1-0.3-0.1-0.7,0-1.2s0.3-0.9,0.6-1.2c0.5-0.4,0.8-0.6,0.9-0.7l0,0
			c0.3-0.4,0.9-0.8,1.8-1.2C541.9,408.9,542.1,408.8,542.2,408.8z M552.1,406.3c0.3-0.4,0.5-0.5,0.5-0.5s0.3-0.1,0.8-0.4
			c0.5-0.2,1.1-0.4,1.7-0.4s1.1,0.2,1.3,0.5s0.2,0.7,0,1c-0.1,0.1-0.2,0.1-0.4,0.1c-0.3-0.2-0.9-0.1-1.7,0.2c-0.1,0-0.1,0.1-0.2,0.1
			c-0.1,0-0.2,0.1-0.2,0.1s-0.1,0.1-0.2,0.1c-0.1,0-0.1,0.1-0.2,0.1c-0.1,0.1-0.1,0.1-0.2,0.2l-0.1,0.1c0,0.1-0.1,0.1-0.1,0.1
			c-0.1,0.1-0.1,0.2-0.1,0.2c-0.1,0.1-0.1,0.1-0.1,0.2c0,0-0.1,0-0.1-0.1c0,0.1,0,0.1,0,0.2s0,0.1,0.1,0.2c0.1,0,0.3,0.1,0.7,0.1
			s0.8,0.2,1.3,0.4c0.5,0.3,0.9,0.7,1.1,1.4c0.2,0.7,0.3,1.3,0.2,1.9s-0.2,1.1-0.4,1.5c-0.5,0.8-1.4,1.5-2.5,2s-1.9,0.5-2.5,0.2
			c-0.2-0.1-0.4-0.3-0.4-0.4c-0.1-0.1-0.1-0.1-0.2-0.1c-0.1,0-0.1-0.1-0.2-0.4c-0.1-0.3-0.1-0.5-0.1-0.5c0.1-0.1,0.2-0.2,0.5-0.3
			c0.3-0.1,0.4,0,0.5,0.1c0.1,0.2,0.4,0.3,1,0.3c1-0.1,1.8-0.6,2.4-1.4c0.2-0.5,0.3-0.9,0.3-1.3c0-0.3,0-0.5-0.1-0.5
			c0-0.1-0.1-0.3-0.2-0.4c-0.1-0.2-0.2-0.3-0.5-0.5c-0.2-0.2-0.5-0.3-0.7-0.4c-0.2,0-0.5,0-0.9,0.1c-0.5,0.1-0.7,0.1-0.8,0.1
			s-0.3-0.1-0.6-0.3c-0.3-0.2-0.4-0.4-0.4-0.4c0-0.2,0.2-0.6,0.6-1.2C551.4,407.1,551.8,406.6,552.1,406.3z M563,408.9
			c0-0.2,0-0.2-0.1-0.4c0-0.2,0.1-0.4,0.3-0.5s0.4-0.2,0.7-0.2s0.5,0.1,0.7,0.3c0.2,0.2,0.3,0.5,0.3,0.7s0,0.5-0.1,0.7
			c-0.3,0.7-0.4,1-0.6,1.7v0.1c0,0,0.2-0.1,0.5-0.4s0.7-0.6,1.3-1.1c0.6-0.4,1-0.7,1.2-0.8c0.2,0,0.4,0.1,0.7,0.3
			c0.3,0.2,0.4,0.5,0.4,0.8c-0.2,0.9-0.3,1.4-0.4,1.5c0.2-0.3,0.6-0.7,1.2-1.1c0.6-0.4,1-0.6,1.3-0.7c0.4,0,0.7,0.2,0.9,0.6
			s0.3,0.9,0.3,1.5s0.1,1,0.2,1.2c0,0.1,0.1,0.1,0.2,0.2c0.1,0,0.3,0.1,0.4,0.2c0.1,0.1,0.2,0.2,0.2,0.4c0,0.5-0.4,0.8-1.2,0.8
			c-0.4,0-0.7-0.2-1-0.6s-0.4-0.8-0.4-1.4c0-0.2,0-0.4,0-0.6s0-0.3,0-0.4c0,0,0-0.1-0.1-0.1c-0.3,0-1,0.6-2.1,1.9l-0.1,0.1
			c-0.1,0.1-0.2,0.2-0.4,0.4c-0.4,0.4-0.6,0.6-0.8,0.6s-0.3,0-0.4-0.1c-0.1-0.1-0.1-0.1-0.2-0.2c-0.2-0.1-0.3-0.3-0.3-0.5v-0.1
			c0.2-0.5,0.2-0.8,0.4-1.3c0.3-0.7,0.4-1.1,0.4-1.2s0-0.1,0-0.1c-0.2,0-0.5,0.3-1.1,0.9c-0.5,0.6-0.9,1-1.1,1.2s-0.4,0.4-0.6,0.7
			c-0.2,0.2-0.4,0.5-0.5,0.6c-0.1,0.2-0.2,0.3-0.2,0.3c-0.3,0-0.5-0.1-0.8-0.3c-0.2-0.2-0.4-0.4-0.4-0.7c0-0.2,0-0.4,0-0.6
			s0.1-0.5,0.2-0.9c0.1-0.4,0.1-0.6,0.2-0.8c0-0.1,0.1-0.3,0.1-0.4s0-0.2,0-0.2s0-0.1,0.1-0.3c0-0.1,0.1-0.3,0.2-0.5
			c0.1-0.2,0.2-0.4,0.3-0.8C562.9,409.3,563,409.1,563,408.9z M572.9,413.2c0-0.2,0-0.2,0.1-0.4c0-0.1,0-0.3,0.1-0.6
			c0.3-0.6,0.6-1.7,1-3.1c0-0.2,0.1-0.2,0.3-0.3c0.1,0,0.3,0,0.5,0.2s0.4,0.4,0.5,0.6s0.2,0.5,0,0.9s-0.3,0.9-0.4,1.3
			c-0.1,0.3-0.3,0.6-0.3,0.8c0,0.2-0.1,0.4-0.2,0.8c-0.1,0.4-0.1,0.6-0.2,0.7c-0.1,0.5-0.3,0.8-0.6,0.9s-0.5,0-0.8-0.2
			c-0.1-0.1-0.2-0.4-0.3-0.7C572.8,413.6,572.8,413.3,572.9,413.2z M574.8,406.7c-0.1-0.2-0.1-0.3-0.1-0.4s0-0.2,0.1-0.3
			c0.1-0.1,0.2-0.3,0.3-0.6c0.3-0.5,0.5-0.8,0.6-0.8c0.2-0.1,0.4-0.1,0.7,0s0.5,0.3,0.6,0.5c0.2,0.5,0.1,1-0.3,1.5
			c-0.2,0.3-0.4,0.4-0.7,0.5s-0.5,0.1-0.7-0.1C575,407,574.8,406.8,574.8,406.7z M582.1,408.9c0.2-0.1,0.3-0.1,0.5-0.1
			s0.4,0.1,0.6,0.2c0.2,0.1,0.3,0.3,0.3,0.4c0,0,0,0.1,0.1,0.2c0.2,0.2,0.3,0.5,0.3,0.8s-0.1,0.9-0.3,1.7c-0.2,0.8-0.3,1.3-0.3,1.5
			s0,0.4,0.1,0.5c0.1,0.2,0.1,0.3,0.1,0.3c0,0.1-0.1,0.2-0.2,0.3c-0.1,0.1-0.3,0.2-0.5,0.2s-0.5-0.1-0.7-0.4s-0.3-0.6-0.3-1
			s0.1-1.1,0.4-2.2c0-0.1,0-0.1,0-0.2s0-0.1,0-0.1v-0.1v-0.1c0,0,0-0.1-0.1-0.1s-0.1,0-0.2,0.1c-0.1,0.1-0.2,0.1-0.3,0.2
			s-0.2,0.2-0.4,0.3c-0.2,0.1-0.3,0.3-0.5,0.3c-0.1,0.1-0.4,0.3-0.8,0.6c-1.1,0.9-1.6,1.3-1.7,1.4c-0.1,0-0.3-0.1-0.6-0.3
			c-0.3-0.2-0.4-0.4-0.4-0.6s0.1-0.7,0.3-1.3c0.2-0.7,0.5-1.4,0.8-2c0-0.1,0.1-0.3,0.1-0.7c0.1-0.6,0.3-0.9,0.6-0.9s0.5,0.1,0.7,0.4
			s0.3,0.5,0.3,0.8s-0.1,0.6-0.2,0.9c-0.1,0.3-0.2,0.6-0.3,0.6c0,0,0.1,0,0.1-0.1c0.1-0.1,0.3-0.3,0.6-0.5c0.4-0.3,0.7-0.5,1-0.7
			C581.7,409.2,581.9,409.1,582.1,408.9z M587,412.8c0.3,0,0.7-0.2,1.1-0.6c0.5-0.4,0.9-1,1.4-1.8s0.8-1.2,0.8-1.3
			c0.1-0.1,0.1-0.2,0.2-0.4c0.1-0.1,0.1-0.2,0.2-0.3c0-0.1,0.1-0.1,0.1-0.2c0.1-0.1,0.2-0.2,0.3-0.2c0.2,0,0.3,0,0.4,0
			c0.1,0,0.2,0.1,0.3,0.2c0.3,0.2,0.5,0.3,0.5,0.5c0,0.1-0.1,0.3-0.3,0.6c-0.1,0.3-0.2,0.5-0.2,0.5c-0.7,1.4-1.1,2.4-1.2,3
			c-0.2,0.8,0,1.4,0.4,1.8c0.2,0.1,0,0.3-0.5,0.6c-0.1,0.1-0.2,0.1-0.3,0.1c-0.2,0.1-0.5-0.1-0.8-0.5c-0.2-0.3-0.2-0.6-0.2-1.1
			c0-0.4,0-0.7,0-0.7s-0.3,0.2-0.8,0.6c-0.8,0.7-1.4,1.1-1.6,1.1c-0.1,0-0.3-0.1-0.6-0.4s-0.4-0.5-0.5-0.7c-0.1-0.4,0-1.2,0.2-2.1
			c0.3-0.9,0.6-1.8,1-2.5s0.7-1.1,1-1c0.4,0.1,0.7,0.4,0.9,0.9c0.1,0.2,0.1,0.3-0.1,0.5c-0.2,0.2-0.5,0.7-0.8,1.2
			c-0.3,0.6-0.6,1.1-0.7,1.6C587,412.5,586.9,412.8,587,412.8z M598.2,406.8c0,0,0.1,0.2,0.3,0.2c0.4,0,0.7,0,0.8,0s0.2,0,0.3,0
			s0.2,0,0.3,0.1s0.1,0.3,0.1,0.6c-0.1,0.3-0.2,0.5-0.3,0.5c0,0-0.2,0-0.4,0.1c-0.2,0-0.8,0.1-1.8,0.1c-0.4,0.6-0.6,1-0.6,1.1
			c-0.1,0.1-0.1,0.2-0.1,0.2c-0.4,0.7-0.5,1-0.9,1.6c-0.1,0-0.1,0-0.1,0.1c0,0.2,0,0.3,0,0.3c-0.1,0.1-0.2,0.2-0.3,0.3
			c0.1,0.1,0,0.2-0.1,0.4c0,0.2-0.1,0.5-0.3,1c0,0.2,0,0.4,0,0.4c0,0.1,0,0.1,0.1,0.1s0.3,0.1,0.5,0c0.2,0,0.1,0.4-0.3,1.3
			c-0.2,0.3-0.4,0.5-0.6,0.7c-0.2,0.2-0.4,0.3-0.4,0.3c-1.1,0-1.5-0.7-1.3-1.8c0-0.1,0.1-0.3,0.1-0.4c0.1-0.4,0.2-0.6,0.2-0.6
			c0.1,0,0-0.1,0-0.2s0.1-0.5,0.4-1.1c-0.1-0.1,0-0.2,0.1-0.3c0.1-0.1,0.2-0.2,0.2-0.3c0-0.1,0-0.2,0.1-0.4c0.1-0.2,0.2-0.4,0.3-0.6
			s0.2-0.4,0.2-0.4s0.1-0.3,0.3-0.8s0.4-0.8,0.5-0.9s0.1-0.1-0.1-0.1c-0.2,0-0.6-0.1-1.1-0.1c-0.6,0-1-0.1-1.2-0.2
			c-0.1-0.1-0.2-0.4,0-0.6c0.1-0.2,0.3-0.4,0.6-0.4c1-0.1,1.5-0.1,2.5-0.1c0-0.1,0-0.2,0.1-0.3c0.1-0.1,0.1-0.1,0.2-0.2
			c0-0.1,0.1-0.1,0.1-0.1s0,0,0-0.1c0,0,0.1-0.2,0.1-0.4c0.2-0.3,0.4-0.7,0.4-1c0.2-0.3,0.4-0.6,0.5-0.8c0.4-0.8,0.9-1,1.5-0.6
			c0.4,0.3,0.5,0.5,0.5,0.7c0,0.1-0.1,0.3-0.2,0.4c-0.1,0.1-0.2,0.3-0.3,0.6c-0.3,0.3-0.4,0.7-0.6,1
			C598.4,406.6,598.2,406.8,598.2,406.8z M601.9,412.4c-0.4,0-0.6-0.1-0.7-0.1c-0.1-0.1-0.2,0-0.3,0.3c0,0.2,0,0.2-0.1,0.4
			c-0.1,0.3,0,0.6,0.2,0.8c0.1,0.1,0.3,0.2,0.5,0.2s0.4-0.1,0.6-0.2c0.2-0.1,0.4-0.3,0.6-0.5c0.2-0.2,0.4-0.3,0.4-0.4
			c0.1-0.2,0.6-0.3,1-0.1c0.2,0.1,0.2,0.6-0.2,1.2c-0.1,0.1-0.3,0.3-0.6,0.6c-0.3,0.3-0.6,0.5-0.8,0.6c-0.7,0.3-1.4,0.3-2.1,0
			c-0.9-0.4-1.3-1.4-1.1-2.9c0-0.4,0-0.6,0-0.8c0-0.1-0.1-0.3-0.2-0.3c-0.1-0.1-0.2-0.1-0.3-0.2c-0.2-0.2-0.3-0.3-0.3-0.4
			s0-0.2,0.1-0.3c0.1-0.1,0.1-0.2,0.1-0.2c0.3-0.1,0.5-0.2,0.5-0.2s0.1,0,0.2,0.1c0.1,0.1,0.2,0.1,0.2,0.2c0.1,0.1,0.2,0,0.4-0.4
			c0.1-0.1,0.1-0.2,0.2-0.3c0.2-0.3,0.5-0.5,0.8-0.8c0.3-0.2,0.6-0.4,0.8-0.5s0.5-0.2,0.8-0.2c0.4-0.1,0.6-0.1,0.7,0
			c0.4,0.1,0.9,0.3,1.3,0.9c0.2,0.2,0.3,0.5,0.4,0.9s-0.1,0.8-0.2,1c-0.1,0.2-0.3,0.5-0.8,0.8c-0.5,0.4-0.9,0.6-1.1,0.7
			C602.6,412.4,602.2,412.4,601.9,412.4z M603.3,409.7c-0.2-0.2-0.4-0.2-0.7,0.1c-0.1,0-0.3,0.1-0.5,0.3c-0.2,0.2-0.4,0.4-0.6,0.5
			c-0.2,0.2-0.2,0.3-0.2,0.3s0,0,0,0.1c0,0,0.1,0,0.2,0c0.1,0,0.1,0,0.2,0c0.1,0,0.2,0,0.4,0s0.4-0.1,0.5-0.2
			c0.2-0.1,0.4-0.3,0.6-0.6C603.4,410,603.4,409.8,603.3,409.7z M609.7,408.1c0.2-0.1,0.5-0.1,0.8-0.1s0.5,0.1,0.6,0.1s0.1,0,0.2,0
			c0.2,0,0.3,0.2,0.6,0.4c0.2,0.3,0.4,0.5,0.4,0.6c0.1,0.7-0.2,1.4-0.3,1.4s-0.1,0-0.1,0.1c0,0.2-0.2,0.4-0.5,0.6s-0.7,0.3-0.9,0.3
			c-0.1,0-0.3-0.1-0.4-0.3c-0.1-0.1-0.2-0.3-0.2-0.4c0,0,0.1-0.2,0.4-0.4c0.3-0.3,0.4-0.5,0.5-0.8c0-0.1-0.1-0.2-0.3-0.2
			c-0.7,0.3-1.3,0.5-1.6,0.8c-0.1,0.1-0.2,0.2-0.2,0.2l0,0c0,0-0.1,0.1-0.2,0.2c-0.1,0.1-0.3,0.3-0.4,0.5c-0.1,0.2-0.2,0.4-0.3,0.5
			c0,0,0,0,0,0.1v0.1c0,0,0,0.1,0,0.2c0,0.2,0.2,0.5,0.8,1c0.5,0.4,0.9,0.8,1.1,1c0.2,0.2,0.3,0.4,0.4,0.6c0.1,0.2,0.1,0.4,0.1,0.6
			c0,0.4-0.3,0.7-0.7,0.9c-0.5,0.2-1,0.3-1.6,0.2c-0.6,0-1.2-0.2-1.6-0.5c-0.4-0.3-0.7-0.5-0.7-0.7s0.1-0.3,0.2-0.3
			c0.1-0.1,0.3-0.1,0.5,0c0.3,0.1,0.6,0.2,1,0.2c0.2,0,0.5,0,0.7,0s0.3-0.1,0.3-0.1c0-0.1,0-0.1-0.1-0.2s-0.2-0.1-0.3-0.2
			c0-0.1-0.2-0.3-0.7-0.7c-0.5-0.4-0.7-0.7-0.7-0.8l0,0v-0.1c-0.1,0-0.2-0.1-0.2-0.4c-0.1-0.2-0.1-0.5-0.1-0.7
			c0-0.7,0.5-1.4,1.3-2.1C608,408.8,608.9,408.3,609.7,408.1z M614.5,414.7c0.3-0.1,0.4-0.2,0.6-0.2c0.1,0,0.3,0.1,0.5,0.2
			c0.4,0.3,0.6,0.6,0.5,0.9s-0.4,0.6-0.9,0.8c-0.5,0.2-0.9,0.1-1.2-0.2C613.5,415.6,613.7,415.1,614.5,414.7z M617.5,407.8
			c0.1-0.3,0.2-0.4,0.3-0.6c0.3-0.4,0.7-1,1.2-2s0.8-1.6,0.9-1.7c0-0.1,0.1-0.2,0.1-0.3c0.1-0.1,0.1-0.1,0.2-0.1
			c0.1,0,0.3-0.1,0.5,0c0.2,0,0.4,0.2,0.5,0.3c0.1,0.1,0.2,0.3,0.1,0.6c0,0.2-0.1,0.4-0.1,0.5s-0.1,0.2-0.1,0.2
			c0,0.1-0.1,0.2-0.2,0.3c-0.1,0.1-0.1,0.2-0.2,0.3c-0.1,0.1-0.2,0.3-0.5,0.7c-0.4,0.7-0.7,1-0.7,1s-0.1,0.2-0.3,0.6
			c-0.1,0.2-0.2,0.4-0.4,0.7c-0.1,0.3-0.2,0.5-0.2,0.5c-0.1,0.2-0.1,0.3-0.2,0.3c-0.1,0-0.1,0-0.1,0.1c0,0,0,0,0,0.1
			c0,0.2-0.2,0.5-0.5,1c-0.5,1.2-0.9,2-0.9,2.5c-0.1,0.5-0.3,0.8-0.6,0.9s-0.7-0.1-0.8-0.5s-0.1-1.2,0.2-1.9
			c0.1-0.3,0.3-0.6,0.3-0.8c0.2-0.5,0.5-1,0.8-1.5c0.1,0,0.1,0,0.2-0.1c0.1-0.1,0.1-0.2,0.1-0.4
			C617.3,408.1,617.4,407.9,617.5,407.8z"/>
	</g>
</g>
</svg>
