<?xml version="1.0" encoding="utf-8"?>
<!-- Generator: Adobe Illustrator 22.1.0, SVG Export Plug-In . SVG Version: 6.00 Build 0)  -->
<svg version="1.1" id="Calque_1" xmlns="http://www.w3.org/2000/svg" xmlns:xlink="http://www.w3.org/1999/xlink" x="0px" y="0px"
	 viewBox="0 0 1920 1080" style="enable-background:new 0 0 1920 1080;" xml:space="preserve">
<style type="text/css">
	.st0{fill:#FFA070;}
	.st1{clip-path:url(#SVGID_2_);fill:url(#SVGID_3_);}
	.st2{clip-path:url(#SVGID_2_);fill:none;stroke:#FFFFFF;stroke-width:1.3306;stroke-linecap:round;stroke-miterlimit:10;}
	.st3{fill:#F8BA9B;}
</style>
<g>
	<g>
		<g>
			<path class="st0" d="M844.7,524.9c0,0-0.4-0.6-1.2-1.6c-0.4-0.5-0.8-1.1-1.4-1.8c-0.5-0.7-1.1-1.5-1.7-2.3
				c-0.6-0.9-1.3-1.8-2-2.8c-0.7-1-1.4-2-2.2-3.1c-0.4-0.6-0.7-1.1-1.1-1.7c-0.4-0.6-0.7-1.2-1.1-1.7c-0.4-0.6-0.7-1.2-1.1-1.8
				c-0.2-0.3-0.4-0.6-0.5-0.9l-0.5-0.9c-0.3-0.6-0.7-1.2-1-1.9c-0.3-0.6-0.7-1.2-1-1.9c-0.3-0.6-0.6-1.2-0.9-1.9
				c-0.3-0.6-0.6-1.2-0.9-1.8c-0.1-0.3-0.3-0.6-0.4-0.9c-0.1-0.3-0.3-0.6-0.4-0.9c-0.3-0.6-0.5-1.2-0.8-1.7
				c-0.5-1.1-0.9-2.2-1.3-3.2c-0.4-1-0.8-1.9-1.1-2.7c-0.3-0.8-0.6-1.5-0.8-2.1c-0.5-1.2-0.7-1.8-0.7-1.8l-2.9,1.1
				c0,0,0.2,0.7,0.7,1.9c0.2,0.6,0.5,1.3,0.8,2.1c0.3,0.8,0.7,1.8,1,2.8c0.4,1,0.8,2.1,1.3,3.3c0.2,0.6,0.5,1.2,0.7,1.8
				c0.1,0.3,0.3,0.6,0.4,0.9c0.1,0.3,0.3,0.6,0.4,0.9c0.3,0.6,0.6,1.3,0.8,1.9c0.3,0.6,0.6,1.3,0.9,1.9c0.3,0.7,0.6,1.3,1,1.9
				c0.3,0.7,0.7,1.3,1,1.9l0.5,1c0.2,0.3,0.4,0.6,0.5,1c0.4,0.6,0.7,1.3,1.1,1.9c0.4,0.6,0.7,1.2,1.1,1.8c0.4,0.6,0.7,1.2,1.1,1.8
				c0.7,1.1,1.5,2.2,2.2,3.3c0.7,1,1.4,2,2,2.9c0.6,0.9,1.2,1.7,1.7,2.4c0.5,0.7,1,1.3,1.3,1.8c0.7,1,1.2,1.6,1.2,1.6L844.7,524.9z"
				/>
		</g>
	</g>
	<g>
		<defs>
			<path id="SVGID_1_" d="M851,530.4c-2.7,3.4-13-5.5-16.2-6.4c0.3-5.5,2.8-8.7,7.7-9.9C842.8,516.9,853.6,526.9,851,530.4z"/>
		</defs>
		<clipPath id="SVGID_2_">
			<use xlink:href="#SVGID_1_"  style="overflow:visible;"/>
		</clipPath>
		
			<linearGradient id="SVGID_3_" gradientUnits="userSpaceOnUse" x1="809.6993" y1="461.4277" x2="823.7001" y2="461.4277" gradientTransform="matrix(0.9334 -0.3587 -0.3587 -0.9334 245.4506 1247.7031)">
			<stop  offset="0" style="stop-color:#487988"/>
			<stop  offset="0.1023" style="stop-color:#477083"/>
			<stop  offset="0.3706" style="stop-color:#455F78"/>
			<stop  offset="0.6589" style="stop-color:#435472"/>
			<stop  offset="1" style="stop-color:#435170"/>
		</linearGradient>
		<path class="st1" d="M851,530.4c-2.7,3.4-13-5.5-16.2-6.4c0.3-5.5,2.8-8.7,7.7-9.9C842.8,516.9,853.6,526.9,851,530.4z"/>
		<path class="st2" d="M838,525.7c0,0,0.5-2.9,1.8-4.5c1.5-1.7,5.8-2.1,5.8-2.1"/>
		<path class="st2" d="M839.7,527.4c0,0,0.5-2.9,1.8-4.5c1.5-1.7,5.8-2.1,5.8-2.1"/>
	</g>
	<g>
		<path class="st0" d="M819.7,480.5c-1.3-2.8-3-1.9-2.8,0.2c-1.4,0-1.9,2.2-0.1,4.1c-0.1,2.9,2.4,3.5,3,2.9c0,0,0.9,0.9,2.2,0.5
			c1.3-0.4,1.4-1.9,1.4-1.9s0.3-1.3-0.4-3.7C821.9,479,819.8,480.5,819.7,480.5L819.7,480.5z"/>
		<g>
			<g>
				<path class="st3" d="M817.9,485.7c0,0-0.1-0.1-0.2-0.1c-0.1-0.1-0.2-0.2-0.4-0.3c-0.1-0.1-0.3-0.2-0.4-0.3
					c-0.1-0.1-0.2-0.1-0.2-0.1l0,0c0,0,0,0.1,0.1,0.2c0.1,0.1,0.2,0.3,0.3,0.4c0.1,0.1,0.3,0.3,0.4,0.3c0.1,0.1,0.2,0.1,0.2,0.1
					L817.9,485.7z"/>
			</g>
		</g>
		<g>
			<g>
				<path class="st3" d="M818.6,483.8c0,0,0,0-0.1-0.1c-0.1-0.1-0.1-0.2-0.2-0.3c-0.2-0.3-0.4-0.6-0.7-1c-0.2-0.4-0.4-0.8-0.5-1.1
					c-0.1-0.2-0.1-0.3-0.1-0.4c0-0.1,0-0.1,0-0.1l-0.1,0c0,0,0,0.2,0,0.6c0,0.3,0.2,0.8,0.3,1.2c0.1,0.2,0.2,0.4,0.3,0.6
					c0.1,0.2,0.2,0.3,0.3,0.5c0.1,0.1,0.2,0.2,0.3,0.3c0.1,0.1,0.1,0.1,0.1,0.1L818.6,483.8z"/>
			</g>
		</g>
	</g>
</g>
</svg>
