<?xml version="1.0" encoding="utf-8"?>
<!-- Generator: Adobe Illustrator 22.1.0, SVG Export Plug-In . SVG Version: 6.00 Build 0)  -->
<svg version="1.1" id="Calque_1" xmlns="http://www.w3.org/2000/svg" xmlns:xlink="http://www.w3.org/1999/xlink" x="0px" y="0px"
	 viewBox="0 0 1920 1080" style="enable-background:new 0 0 1920 1080;" xml:space="preserve">
<style type="text/css">
	.st0{fill:#FF5252;}
	.st1{fill:#01171B;}
	.st2{fill:#FFBE82;}
	.st3{fill:url(#SVGID_1_);}
	.st4{fill:url(#SVGID_2_);}
	.st5{fill:#FFFFFF;}
	.st6{opacity:0.2;enable-background:new    ;}
	.st7{fill:url(#SVGID_3_);}
	.st8{fill:#BF1F2C;}
	.st9{fill:#FFBF80;}
	.st10{fill:url(#SVGID_4_);}
	.st11{fill:#382327;}
	.st12{fill:#2E1C20;}
	.st13{fill:#5A3B2E;}
	.st14{fill:url(#SVGID_5_);}
	.st15{fill:#541422;}
</style>
<g>
	<g>
		<path class="st0" d="M1027.1,710.1c0,0-16.7,9.6-16.2,10.9c5.9-1.2,21-7.5,23.6-10.3c-2.2-2.7-2.9-4.7-5.2-3.9
			C1027,707.6,1027.1,710.1,1027.1,710.1z M1095.1,710.1c0,0,16.7,9.6,16.2,10.9c-5.9-1.2-21-7.5-23.6-10.3c2.2-2.7,2.9-4.7,5.2-3.9
			C1095.1,707.6,1095.1,710.1,1095.1,710.1z"/>
		<path class="st1" d="M1121.8,622.8c0-2.6-0.4-5.2-0.9-7.7c-0.5-2.4-1.3-4.8-2.2-7c-1.8-4.4-4.4-8.2-7.2-11.4
			c-2.9-3.2-6.1-5.8-9.4-7.6c-3.3-1.8-6.6-2.9-9.5-3.4c-0.9-0.2-1.7-0.3-2.5-0.3c-0.3-1.7-0.7-3.4-1.3-5.4h-54.6
			c-0.7,1.9-1.2,3.6-1.7,5.3c-0.9,0.1-1.9,0.2-3,0.4c-2.9,0.5-6.2,1.6-9.5,3.4c-3.3,1.9-6.5,4.4-9.4,7.6c-2.8,3.2-5.4,7-7.2,11.4
			c-0.9,2.2-1.7,4.5-2.2,7c-0.5,2.4-0.8,5-0.9,7.7c-0.1,2.7,0.1,5.4,0.6,8.2c0.2,0.7,0.3,1.4,0.5,2.1c0.2,0.6,0.3,1.2,0.5,1.8
			c0.3,0.9,0.5,1.9,0.8,2.8c1,3.8,2.1,7.6,3.2,11.5c1.1,3.8,2.3,7.6,3.4,11.4c0.6,1.9,1.2,3.8,1.8,5.6c0.6,1.8,1.2,3.6,1.8,5.4
			c0.6,1.7,1.1,3.5,1.7,5.2c0.6,1.7,1.1,3.4,1.7,5c1.2,3.2,2.3,6.3,3.3,9.1s2,5.3,2.9,7.6c0.8,2.3,1.6,4.3,2.3,5.9
			c0.7,1.7,1.2,2.9,1.6,3.8c0.4,0.8,0.6,1.3,0.6,1.3l8.6-2.3c0,0,0-0.5-0.1-1.4s-0.2-2.3-0.4-4s-0.4-3.8-0.7-6.2
			c-0.3-2.4-0.6-5.1-1-8.1c-0.2-1.5-0.4-3-0.6-4.6c-0.2-1.6-0.4-3.2-0.6-4.9c-0.5-3.4-0.9-6.9-1.4-10.6s-1-7.5-1.5-11.3
			c-0.3-1.9-0.5-3.9-0.8-5.8c-0.2-1.9-0.5-3.9-0.8-5.8c-0.5-3.9-1.1-7.8-1.6-11.6c-0.1-1-0.3-1.9-0.4-2.9l-0.1-0.4v-0.2c0,0,0,0,0,0
			V629l0.1-0.8c0.1-1.1,0.3-2.1,0.6-3.1c0.5-2,1.4-3.9,2.4-5.7s2-3.3,3.1-4.6c1-1.3,2-2.3,2.8-3c0.7-0.8,1.4-1.3,1.8-1.7
			c0.3-0.3,0.7-0.6,0.9-0.8h47.5c0.2,0.2,0.6,0.5,0.9,0.8c0.4,0.4,1,1,1.8,1.7s1.8,1.7,2.8,3s2.1,2.8,3.1,4.6
			c0.9,1.7,1.8,3.7,2.4,5.7c0.3,1.1,0.5,2.1,0.6,3.1l0.1,0.8v0.4v0v0.2l-0.1,0.4c-0.1,1-0.3,1.9-0.4,2.9c-0.5,3.8-1.1,7.7-1.6,11.6
			c-0.3,1.9-0.5,3.9-0.8,5.8c-0.3,1.9-0.5,3.9-0.8,5.8c-0.5,3.9-1,7.6-1.5,11.3c-0.5,3.7-1,7.2-1.4,10.6c-0.2,1.7-0.4,3.3-0.6,4.9
			s-0.4,3.1-0.6,4.6c-0.4,3-0.7,5.7-1,8.1c-0.3,2.4-0.5,4.5-0.7,6.2c-0.2,1.7-0.3,3.1-0.4,4s-0.1,1.4-0.1,1.4l8.6,2.3
			c0,0,0.2-0.4,0.6-1.3c0.4-0.9,0.9-2.2,1.6-3.8c0.6-1.7,1.4-3.6,2.3-5.9c0.9-2.2,1.9-4.8,2.9-7.6c1.1-2.8,2.2-5.9,3.3-9.1
			c0.5-1.6,1.1-3.3,1.7-5c0.5-1.7,1.1-3.4,1.7-5.2c0.6-1.8,1.2-3.6,1.8-5.4c0.6-1.9,1.2-3.7,1.8-5.6c1.1-3.7,2.3-7.6,3.4-11.4
			c1.1-3.9,2.2-7.8,3.2-11.5c0.3-0.9,0.5-1.9,0.8-2.8c0.2-0.6,0.3-1.2,0.5-1.8c0.2-0.7,0.4-1.4,0.5-2.1
			C1121.7,628.2,1121.9,625.5,1121.8,622.8z"/>
	</g>
	<path class="st2" d="M1026.5,534.9c-0.7,1.6-1.6,3.4-2.9,5.5c-1.1,1.9-2.5,4-3.9,6.2c-3.6,5.4-8.1,11.5-12.5,17.3
		c-0.8,1-2.1,1.4-3.3,0.9c-0.3-0.1-0.6-0.2-0.9-0.4l0,0l0,0c-2.4-1.1-4.8-1.6-6.9-1.7c-4.7-0.3-7.9-5-6.3-9.4
		c2.1-5.7,4.2-11.5,4.4-12.2c2.3-6.4,4.6-12.6,6.7-18.2C1005.6,510.6,1026.5,534.9,1026.5,534.9z"/>
	<path class="st2" d="M1127.5,545.6c-0.9,2.5-1,17.3-13.5,19.9c-4.8-6.2-9.7-13-13.7-18.9c-3.1-4.7-5.6-8.8-6.8-11.8
		c0,0-1.6-3.6-3.4-8.9c-4.4-13-10.1-36.1,3.7-38.7c10.1-1.9,15.9,11.7,15.9,11.7c1.6,3.2,8.9,21.9,16.3,42.2
		C1126.5,542.7,1127,544.2,1127.5,545.6z"/>
	<g>
		<linearGradient id="SVGID_1_" gradientUnits="userSpaceOnUse" x1="1084.4297" y1="514.2343" x2="1120.316" y2="514.2343">
			<stop  offset="0" style="stop-color:#487988"/>
			<stop  offset="0.1023" style="stop-color:#477083"/>
			<stop  offset="0.3706" style="stop-color:#455F78"/>
			<stop  offset="0.6589" style="stop-color:#435472"/>
			<stop  offset="1" style="stop-color:#435170"/>
		</linearGradient>
		<path class="st3" d="M1091.4,541.5c7.6,0.5,25-13,29-20.1c-6.2-15-12.5-37.5-26.7-34.1C1077.1,491.3,1087.1,532.8,1091.4,541.5z"
			/>
		<linearGradient id="SVGID_2_" gradientUnits="userSpaceOnUse" x1="999.7833" y1="514.2276" x2="1035.6702" y2="514.2276">
			<stop  offset="0" style="stop-color:#487988"/>
			<stop  offset="0.1023" style="stop-color:#477083"/>
			<stop  offset="0.3706" style="stop-color:#455F78"/>
			<stop  offset="0.6589" style="stop-color:#435472"/>
			<stop  offset="1" style="stop-color:#435170"/>
		</linearGradient>
		<path class="st4" d="M1033.3,526.4c-1.3,6.2-3,11.5-4.2,14.3c-0.1,0.3-0.2,0.5-0.4,0.8c-0.2,0-0.3,0-0.5,0c-1.3,0-2.9-0.4-4.6-1.1
			c-1.4-0.5-2.9-1.2-4.4-2.1c-7-3.9-14.9-10.5-18.4-15.3c-0.4-0.6-0.8-1.1-1.1-1.6c6.2-15,12.5-37.5,26.7-34.1
			c0.2,0.1,0.5,0.1,0.7,0.2c3.9,1.2,6.2,4.6,7.4,9.2C1036.7,504.9,1035.4,516.7,1033.3,526.4z"/>
		<path class="st5" d="M1001,518.3c0.2-0.5,0.4-1,0.6-1.5c2.5,2.8,7.7,8,14.5,12.1c5.1,3,10.8,4.9,15.1,6c-0.1,0.5-0.3,0.9-0.4,1.4
			c-4.4-1.1-10.2-3-15.4-6.1C1008.7,526.2,1003.6,521.2,1001,518.3z M1090,538c10-4.3,22.7-12.2,29.3-19.4c-0.2-0.5-0.4-1-0.6-1.5
			c-6.2,7.2-19.1,15.2-29.2,19.5C1089.7,537.1,1089.8,537.6,1090,538z"/>
	</g>
	<path class="st6" d="M1033.5,525.7c-3-3.7-9.4-11.4-9.5-11.5c-0.8,6.2-3.7,23.7-6.7,29.5c-2.7,4.2-7.8,11.4-14.1,20.8
		c0.3,0.2,0.6,0.3,0.9,0.4c1.2,0.5,2.5,0.1,3.3-0.9c4.4-5.8,8.9-11.9,12.5-17.3c1.4-2.2,2.8-4.3,3.9-6.2v0c0,0,0,0,0,0
		c1.7,0.7,3.3,1.1,4.6,1.1c0.2,0,0.3,0,0.5,0c0.2-0.3,0.3-0.5,0.4-0.8c1.2-2.8,2.9-8.1,4.2-14.3
		C1033.4,526.2,1033.4,525.9,1033.5,525.7z"/>
	<path class="st6" d="M1100.9,538.6c-2.6-9-5.7-23-5.7-23s-5.7,7.4-8.5,10.9c1.4,6.7,3.2,12.3,4.5,15c0,0,0.1,0.1,0.1,0.1
		c1.4,0.1,3.1-0.3,5-1c1.1,1.9,2.4,3.9,3.9,6.1c0.8,1.2,1.6,2.4,2.5,3.6l2.9-2.2C1102.2,542.8,1102,542.2,1100.9,538.6z"/>
	<linearGradient id="SVGID_3_" gradientUnits="userSpaceOnUse" x1="1060.5" y1="454.796" x2="1060.5" y2="466.6276">
		<stop  offset="0" style="stop-color:#FF7C62"/>
		<stop  offset="0.2201" style="stop-color:#FF8265"/>
		<stop  offset="0.5074" style="stop-color:#FF926D"/>
		<stop  offset="0.8304" style="stop-color:#FFAD7A"/>
		<stop  offset="1" style="stop-color:#FFBE82"/>
	</linearGradient>
	<path class="st7" d="M1075.5,471.7c-3.6,8.3-27.7,6.9-29.8-0.3c0.7-1.6,0.9-12.9-0.2-15.8l29.9,0.8
		C1074.2,459.2,1074.8,470.1,1075.5,471.7z"/>
	<g>
		<path class="st8" d="M1090,584.7c-15.6,1.5-45.8,1.5-57.1-0.6c-4.5-20.8-9.9-75.5-14.9-96.5c9.7-6.3,20.1-13.5,28.1-17.5
			c2.1,9.7,28,8.5,29.1-0.1c7.1,4.1,15.6,11.7,25.9,17.9C1095,505.2,1092.7,565.1,1090,584.7z"/>
		<path class="st5" d="M1061,492.6l-0.4,0.2l-0.3-0.2c-0.6-0.5-15.1-10.7-19-19.8c0.4-0.2,0.8-0.5,1.2-0.7c3.3,8,16,17.5,18.2,19.1
			c1.9-0.9,11.3-6.1,18.2-18.7c0.4,0.3,0.8,0.5,1.2,0.8C1072.3,487.6,1061.4,492.4,1061,492.6z M1083.5,475.6
			c-0.4-0.3-0.8-0.6-1.2-0.8c-8.6,14.2-19.5,19.9-21.5,20.9c-2.3-1.7-16.3-11.9-21.9-21.6c-0.4,0.2-0.8,0.5-1.2,0.7
			c6.2,10.7,21.9,21.7,22.6,22.2l0.3,0.2l0.4-0.2C1061.5,496.9,1073.7,491.5,1083.5,475.6z"/>
	</g>
	<path class="st2" d="M1129.2,557.6c1.3-3-3.1-16.3-3-16.4c-4.3-2.1-20.6,4.5-26,6.7c-2,0.8-3.8,1.5-5.4,2.2c-0.5-0.2-1-0.4-1.5-0.6
		c-3.9-1.9-7.8-1.7-13.1-1.4c-0.8,0-0.9,1,0,2c0.9,0.9,4.4,0.9,4.8,1.1c0,0,0,0,0,0c-0.1,0.1-0.3,0.3-0.4,0.4
		c-1.8,1.4-6,5.1-6.4,8.3l0.7,2.1l0.5-0.3l-0.9,0.8l1.8,2.5l1.8-1.1l-0.1,0.1l1.8,2.5l2-1.2l2,2.2l8.2-4.5c0.2,0,0.5,0.1,0.7,0.1
		c1,0.3,1.9,0.6,3,1c7.9,2.5,25.6,1.8,27.2-2.5C1127,561.6,1131.1,561.5,1129.2,557.6z"/>
	<g>
		<path class="st9" d="M1085.7,419.1c-2-1.4-5.4,0.6-7.5,4.6c0.2-4.7,0.3-9.8,0.3-14.7c0-5.9-6.9-13.6-18.3-13.6
			s-18.3,7.8-18.3,13.6c0,4.6,0.2,9.4,0.4,13.8c-2.1-3.3-5.1-5-7-3.7c-2.1,1.5-2.2,6.1-0.1,10.2c2.1,4.2,5.6,6.4,7.7,5
			c0,0,0,0,0.1-0.1c0.1,1.8,0.2,3.3,0.3,4.5c2.3,26.9,32.4,25.9,34.1,0.1c0.1-1.2,0.2-2.9,0.3-4.8c0.1,0.1,0.3,0.2,0.4,0.3
			c2.1,1.4,5.6-0.8,7.7-5C1087.9,425.2,1087.8,420.6,1085.7,419.1z"/>
		<linearGradient id="SVGID_4_" gradientUnits="userSpaceOnUse" x1="1060.7867" y1="436.908" x2="1060.7867" y2="465.2299">
			<stop  offset="0" style="stop-color:#AF765A"/>
			<stop  offset="1" style="stop-color:#5A3B2E"/>
		</linearGradient>
		<path class="st10" d="M1078.4,419.8c0.3,2.8-1.6,19.1-1.6,19.1c-2.1-4.8-31.2-5.1-33.2-1c0,0-1.6-15.7-1.5-18.1
			c-1.3,5.1-0.5,3-2,15c-0.2,1.9-0.4,11.4-0.3,13.3c0.7,12.7,7.2,16.3,20.5,18.5c13.8-2.5,21.5-8.3,21.5-20.1c0-2-0.4-10.2-0.7-12.3
			C1079.9,426.3,1079.6,420.1,1078.4,419.8z M1063.9,452.7c-1.5,0-1.8-1-1.8-2.5c-0.8,0.2-2.7,0.2-3.8,0c0,1.5-0.4,2.6-1.8,2.6
			c-6.2,0-7.6-8.3-5.8-11.4c1.9-1.7,5.7-3.1,9.5-3.5c3.8,0.4,7.6,1.8,9.5,3.5C1071.5,444.3,1070.2,452.7,1063.9,452.7z"/>
		<path class="st11" d="M1081.1,401.7c0.7,2.8-1.1,22.8-1.2,23.6c-0.1,0.8-1.6,1.3-1.8,1.4c0.1-0.4,0.3-16.5,0.3-18.2
			s-1.8-3.5-3.9-3.5l-14.3,1.6l-14.3-1.6c-2.2,0-3.9,1.9-3.9,3.5c0,1.7,0.4,17.1,0.5,17.5c-0.2-0.1-1.1,0-1.2-0.8s-2.5-21.2-2-24.1
			C1042.9,381.2,1075.7,380.3,1081.1,401.7z"/>
		<path class="st12" d="M1065.6,410.2l0.2,3.7c4.1-0.2,9.1-0.5,11.4,2.3c0.7,0.2,0.8-0.5,0.4-1.6c-1.4-3.1-6.3-5.9-11.6-4.8
			C1065.8,409.7,1065.6,409.9,1065.6,410.2z M1054.8,411.2l-0.3,3.7c-4.1-0.3-9.1-0.7-11.4,2c-0.7,0.2-0.8-0.6-0.4-1.6
			c1.5-3,6.5-5.7,11.7-4.6C1054.7,410.7,1054.8,410.9,1054.8,411.2z"/>
		<path class="st13" d="M1049,401.5L1049,401.5c0,0-2-1.1-2.3-2.1c-1.6-6.5,1.1-9.9,6.1-11.1c5.4-1.3,9.3-1.2,12.5-0.8l0,0
			c3.3,0.4,5.8,1.1,8.2,0.5c4.9-1.2,3.6-5.9-2.3-5.2c0,0,11.1-7.5,13.9,3.9c0.6,2.6,0.7,4.9,0.2,6.9l0,0c-1.4,5.7-6.9,8.6-12.6,10
			l-9.1,2.2C1056.1,407.8,1051.5,403.4,1049,401.5z"/>
		<path class="st11" d="M1049,401.5c10.3,6.6,22.7,2.2,28.5-3.4c2.5-2.4,5.1-7.3,4.5-9.6c0,0,1.4,3.5,1.1,6.3
			c1.2-1.2,1.6-2.9,1.8-4.1c0.6,1.1,0.4,2,0.4,3l0,0c0,0,0,0,0,0.1c-2,7.7-10.1,9.6-21.7,12.3C1056.1,407.7,1051.6,403.5,1049,401.5
			z"/>
		<path class="st11" d="M1070,388.2c6.8,3.8,10.5,0.7,9.5-3.2c-0.5-2.2-4.9-3.3-8.1-2.2C1078.6,382.2,1078.3,389.1,1070,388.2z"/>
		<path class="st12" d="M1075.2,421.6v0.1c0,0.2-0.2,0.4-0.4,0.4c-0.1,0-0.3,0-0.4-0.1l0,0c0,0-0.1,0-0.1-0.1
			c-0.4-0.1-0.8-0.2-1.2-0.3c-0.9-0.2-2.3-0.1-3.7,0.1c-0.6,0.1-1.2,0.2-1.9,0.5c-0.3,0.1-0.6,0.2-0.7,0.3c-0.1,0-0.2,0.1-0.2,0.2
			c-0.1,0.1-0.2,0.2-0.4,0.2c-0.1,0-0.1,0.1-0.2,0.2c0,0.1-0.1,0.1-0.1,0.2c0,0.1-0.1,0.1-0.1,0.2c0,0.1-0.1,0.2-0.1,0.3
			c-0.1,0.4-0.6,0.7-1,0.7c-0.2,0-0.4-0.2-0.4-0.4c0,0,0,0,0,0c-0.1-0.1-0.1-0.2-0.1-0.4v-0.1c0-0.2,0-0.3,0.1-0.4
			c0-0.2,0.1-0.3,0.2-0.5l0.1-0.1c0.1-0.3,0.4-0.5,0.6-0.7c0.3-0.3,0.6-0.5,1-0.6c0.1,0,0.3-0.1,0.5-0.2c0.2-0.1,0.4-0.2,0.5-0.2
			c0.7-0.2,1.4-0.3,2.1-0.4l0.2,0c1.5-0.1,3,0,4.1,0.2c0.4,0.1,0.7,0.2,1,0.3c0.1,0,0.2,0.1,0.3,0.1c0.1,0,0.1,0.1,0.2,0.1
			c0.1,0.1,0.2,0.1,0.3,0.2l0.1,0.1C1075.2,421.4,1075.2,421.5,1075.2,421.6z M1055.7,423c0-0.2-0.1-0.3-0.2-0.6
			c-0.1-0.3-0.4-0.5-0.6-0.7c-0.2-0.2-0.4-0.3-0.6-0.4c-0.1-0.1-0.2-0.1-0.3-0.2c-0.4-0.2-0.7-0.3-1.1-0.5c-0.8-0.2-1.5-0.3-2.3-0.4
			c-1.4-0.1-3,0-4.1,0.2c-0.4,0.1-0.7,0.2-1,0.3c-0.1,0-0.2,0.1-0.3,0.1c-0.2,0.1-0.3,0.1-0.4,0.3l-0.1,0.1
			c-0.1,0.1-0.1,0.2-0.1,0.3v0.1c0,0.3,0.6,0.5,0.8,0.3c0.1,0,0.2-0.1,0.3-0.1c0.3-0.1,0.6-0.2,1.1-0.3c0.5-0.1,1-0.1,1.7-0.1
			c0.7,0,1.3,0.1,2,0.2c0.6,0.1,1.2,0.2,1.9,0.5c0.3,0.1,0.6,0.2,0.7,0.3c0.2,0.1,0.4,0.3,0.5,0.3l0.4,0.4c0,0,0.1,0.1,0.1,0.1
			c0,0.1,0,0.1,0.1,0.2v0c0,0.4,0.3,0.6,0.3,0.7c0.1,0.1,0.2,0.1,0.3,0.1c0.5,0,0.9-0.4,0.9-0.8v-0.1c0-0.1,0-0.1-0.1-0.2
			C1055.8,423.1,1055.7,423.1,1055.7,423z"/>
		<linearGradient id="SVGID_5_" gradientUnits="userSpaceOnUse" x1="1059.6483" y1="436.7643" x2="1059.8883" y2="428.925">
			<stop  offset="0" style="stop-color:#FF7C62"/>
			<stop  offset="1" style="stop-color:#FFBE82"/>
		</linearGradient>
		<path class="st14" d="M1062.6,436c-2.2,2.6-7.2,1.1-7.2-3.4c0.9-2.7,4.1-0.1,4.4-6.6C1065.6,425.4,1064.7,433.4,1062.6,436z"/>
		<path class="st15" d="M1066.8,444.9c0,3.1-3.6,5.6-6.6,5.6c-3.1,0-6.6-2.5-6.6-5.6s3.5-3.2,6.6-3.2
			C1063.3,441.7,1066.8,441.9,1066.8,444.9z"/>
		<path class="st5" d="M1060.2,444c2.4,0,4.5-0.4,5.9-0.9c-1.2-1.3-3.7-1.4-5.9-1.4c-2.3,0-4.8,0.1-6,1.4
			C1055.6,443.6,1057.8,444,1060.2,444z"/>
	</g>
</g>
</svg>
