<?xml version="1.0" encoding="utf-8"?>
<!-- Generator: Adobe Illustrator 22.1.0, SVG Export Plug-In . SVG Version: 6.00 Build 0)  -->
<svg version="1.1" id="Calque_1" xmlns="http://www.w3.org/2000/svg" xmlns:xlink="http://www.w3.org/1999/xlink" x="0px" y="0px"
	 viewBox="0 0 1920 1080" style="enable-background:new 0 0 1920 1080;" xml:space="preserve">
<style type="text/css">
	.st0{fill:url(#SVGID_1_);}
	.st1{fill:url(#SVGID_2_);}
	.st2{fill:#47200D;}
	.st3{fill:url(#SVGID_3_);}
	.st4{fill:#EE2737;}
	.st5{fill:#FFFFFF;}
	.st6{fill:#BF1F2C;}
	.st7{fill:url(#SVGID_4_);}
	.st8{fill:url(#SVGID_5_);}
	.st9{fill:url(#SVGID_6_);}
	.st10{fill:#00374E;}
	.st11{clip-path:url(#SVGID_8_);}
	.st12{fill:none;stroke:#FFFFFF;stroke-width:1.4173;stroke-miterlimit:10;}
	.st13{fill:#FFBE82;}
</style>
<g>
	<linearGradient id="SVGID_1_" gradientUnits="userSpaceOnUse" x1="653.3721" y1="474.0917" x2="662.6699" y2="472.6188">
		<stop  offset="0" style="stop-color:#FF7C62"/>
		<stop  offset="1" style="stop-color:#FFBE82"/>
	</linearGradient>
	<path class="st0" d="M663.9,470.6l1.9,1.3l-7.5,4.1c-2.9,0.6-3.8-1.1-4.5-3.4C656.5,469.7,663.9,470.6,663.9,470.6z"/>
	<radialGradient id="SVGID_2_" cx="660.9357" cy="467.6269" r="16.7483" gradientUnits="userSpaceOnUse">
		<stop  offset="0" style="stop-color:#FF7C62"/>
		<stop  offset="0.1821" style="stop-color:#FF8265"/>
		<stop  offset="0.4298" style="stop-color:#FF946D"/>
		<stop  offset="0.714" style="stop-color:#FFB07B"/>
		<stop  offset="0.832" style="stop-color:#FFBE82"/>
	</radialGradient>
	<path class="st1" d="M644.2,477.7l1.2-17.8c0,0,6.9-0.1,10.2,0.7c-3.4,7.1,2.7,15.3,2.7,15.3l-7.8,10.4L644.2,477.7z"/>
	<path class="st2" d="M684.1,465.2c-0.1,10.2-30.4,10.2-30.3-0.5C653.9,454.5,684.2,455,684.1,465.2z"/>
	<linearGradient id="SVGID_3_" gradientUnits="userSpaceOnUse" x1="663.968" y1="460.4294" x2="647.1258" y2="455.8579">
		<stop  offset="0" style="stop-color:#FF7C62"/>
		<stop  offset="1" style="stop-color:#FFBE82"/>
	</linearGradient>
	<polygon class="st3" points="650.9,459.7 659.3,454.9 666,457.2 664.2,459.2 659.9,458.8 654.3,462.1 	"/>
	<path class="st4" d="M684.1,465.2c0,0.5,0,0.9-0.1,1.4c0,0,0,0,0,0c-1.2,0-0.7-1.8-1.4-1.4c-0.7,0.4,0.3,1.8-0.9,2
		c-1.2,0.2-0.7-2.5-0.9-2.5c-0.3,0-0.3,1.3-1.5,1.3c-1.2,0-0.1,2-1.7,2.5c-1.7,0.6-0.2-2.4-2.1-2.2c-1.9,0.1,0.6,5.1-2.4,5.6
		c-3,0.4-1.3-5.5-2.9-5.4c-1.6,0.1,0.3,4.4-1.1,4.5c-1.4,0.1-0.3-3.1-1.4-3.2c-1.2-0.1-1,1.7-2.2,1.3c-1.1-0.4-0.5-3.2-1.7-3.2
		c-1.2-0.1-1.2,4.5-2.7,4c-1.5-0.4-1.4-3.6-2.6-3.5c-1.2,0.1-0.4,1-2.6,0.6c-1.9-0.4-1.9-2.3-1.8-2.8c0,0,0-0.1,0-0.1
		C654.2,454.3,684.9,455.1,684.1,465.2z"/>
	<path class="st5" d="M679.5,460.4c-3.2-3.6-17.2-3.7-21-0.4c-0.4,0.4-0.4,1.1,0,1.4c3.7,3.1,17.3,3.5,21,0.2
		C679.8,461.4,679.8,460.8,679.5,460.4z M678.5,461.6c-3.3,3-15.6,2.6-19-0.2c-0.4-0.3-0.4-0.9,0-1.3c3.4-3,16.2-2.9,19.1,0.3
		C678.8,460.8,678.8,461.3,678.5,461.6z"/>
	<path class="st6" d="M675,461.3c-2.1,1.9-10,1.7-12.2-0.1c-0.3-0.2-0.3-0.6,0-0.8c2.2-1.9,10.4-1.9,12.2,0.2
		C675.3,460.8,675.2,461.1,675,461.3z"/>
	
		<linearGradient id="SVGID_4_" gradientUnits="userSpaceOnUse" x1="915.5192" y1="444.9924" x2="920.9199" y2="450.2559" gradientTransform="matrix(0.5518 0.834 -0.834 0.5518 524.5483 -552.9323)">
		<stop  offset="0" style="stop-color:#FFBE82"/>
		<stop  offset="1" style="stop-color:#FF7C62"/>
	</linearGradient>
	<polygon class="st7" points="650.6,460.4 659,453.9 665.9,455.9 664.2,458 659.9,457.8 654.5,461.4 	"/>
	
		<linearGradient id="SVGID_5_" gradientUnits="userSpaceOnUse" x1="743.9351" y1="481.9257" x2="749.3356" y2="487.189" gradientTransform="matrix(0.9311 0.3649 -0.3649 0.9311 136.0517 -266.3095)">
		<stop  offset="0" style="stop-color:#FFBE82"/>
		<stop  offset="1" style="stop-color:#FF7C62"/>
	</linearGradient>
	<polygon class="st8" points="648.1,459.9 651.7,451.9 658.4,449.6 658.3,452.3 654.6,454.6 652.3,460.7 	"/>
	<linearGradient id="SVGID_6_" gradientUnits="userSpaceOnUse" x1="695.6378" y1="550.4223" x2="646.4105" y2="521.8237">
		<stop  offset="0" style="stop-color:#FF7C62"/>
		<stop  offset="0.2201" style="stop-color:#FF8265"/>
		<stop  offset="0.5074" style="stop-color:#FF926D"/>
		<stop  offset="0.8304" style="stop-color:#FFAD7A"/>
		<stop  offset="1" style="stop-color:#FFBE82"/>
	</linearGradient>
	<path class="st9" d="M703.1,549.3c-4.8,2.7-11.4,5.7-16.6,7.7c-45.7,18.1-58,0.4-64.4-6.8c-1.5-14.2-1.1-31.3,14-61.2
		c2-4,4.5-7.7,7.8-10.8c3-2.7,7.7-1,8.3,3c1.3,9.5-5.5,31.2-3.2,51.6v0c10-2.1,23.6-10.6,31.2-16.9c8.6-7.1,21.4-5.9,28.6,2.7
		C716.8,528.5,714.1,543.1,703.1,549.3z"/>
	<path class="st10" d="M650.7,532c32.7-12.2,40.5-33.6,56.9-16.5c6.2,6.5,5.5,14.8-4.9,25.2c-10.4,10.4-39.1,25-39.1,25
		S667.2,546.2,650.7,532z"/>
	<g>
		<defs>
			<path id="SVGID_7_" d="M650.7,532c32.7-12.2,40.5-33.6,56.9-16.5c6.2,6.5,5.5,14.8-4.9,25.2c-10.4,10.4-39.1,25-39.1,25
				S667.2,546.2,650.7,532z"/>
		</defs>
		<clipPath id="SVGID_8_">
			<use xlink:href="#SVGID_7_"  style="overflow:visible;"/>
		</clipPath>
		<g class="st11">
			<path class="st12" d="M651.2,526.4c9.3,6.8,19.2,16.1,17.6,38.8"/>
			<path class="st12" d="M655.7,524.4c9.3,6.8,19.2,16.1,17.6,38.8"/>
		</g>
	</g>
	<polygon class="st13" points="648.3,450.3 646.4,449.2 645.3,460.5 649.1,460.1 	"/>
</g>
</svg>
