<?xml version="1.0" encoding="utf-8"?>
<!-- Generator: Adobe Illustrator 22.1.0, SVG Export Plug-In . SVG Version: 6.00 Build 0)  -->
<svg version="1.1" id="Calque_1" xmlns="http://www.w3.org/2000/svg" xmlns:xlink="http://www.w3.org/1999/xlink" x="0px" y="0px"
	 viewBox="0 0 1920 1080" style="enable-background:new 0 0 1920 1080;" xml:space="preserve">
<style type="text/css">
	.st0{display:none;fill:#FFFFFF;}
	.st1{fill:#FFFFFF;}
</style>
<g>
	<g>
		<path id="G" class="st0" d="M1103.9,389.5c-3.3-0.2-5.9-1.2-7.7-3.3c-1.8-2-2.2-4.4-1.1-7.4c1.1-2.9,3.3-5.6,6.6-7.8
			c2.6-1.7,5.2-2.7,7.9-2.8c2.7-0.2,5,0.6,6.9,2.1c-2.7,1.4-4.1,2.2-6.7,3.7c-1.7-0.8-3.5-0.5-5.4,0.6c-1.9,1.2-3.1,2.6-3.6,4
			c-0.5,1.5-0.2,2.9,0.8,4.2c1,1.3,2.4,2,4.1,2.3c1.7,0.2,3.4-0.1,5.2-1c1.3-0.7,2.2-1.4,2.7-2.3c0.5-0.9,0.6-1.9,0.3-2.8
			c-2.5,1.3-3.8,2-6.3,3.3c-0.9-1.2-1.3-1.8-2.1-3c4.9-2.9,7.4-4.2,12.4-6.8c0.8,1.4,1.2,2.1,2,3.5c0.6,1.9,0.4,4-0.6,6.3
			c-0.5,1.1-1.2,2.1-2.2,3.1c-1,1-2.2,1.8-3.6,2.4C1110.4,389.2,1107.2,389.7,1103.9,389.5z"/>
		<path id="O" class="st1" d="M1128.1,378.2c-3.3-1-5.7-2.8-7.3-5.7c-1.6-2.9-1.7-5.8-0.4-9c1.4-3.2,3.8-5.8,7.4-7.7
			c3.5-1.8,7-2.2,10.3-1c3.3,1.2,5.6,3.7,6.9,7.3c1.3,3.6,1.2,7-0.2,10c-1.4,3-3.7,4.9-6.9,6
			C1134.5,379.3,1131.3,379.2,1128.1,378.2z M1139.3,369.9c0.6-1.6,0.6-3.4-0.3-5.5c-0.8-2-2-3.4-3.7-4.1c-1.6-0.7-3.5-0.5-5.4,0.4
			c-1.9,0.9-3.2,2.2-3.8,3.9c-0.6,1.6-0.5,3.3,0.4,5.1c0.9,1.8,2.2,3,3.8,3.6c1.6,0.6,3.4,0.6,5.2-0.1
			C1137.4,372.6,1138.6,371.5,1139.3,369.9z"/>
		<path id="A" class="st0" d="M1167.7,370c-1-1.8-1.5-2.7-2.5-4.4c-3.4,0.8-5.1,1.2-8.5,2.1c0,1.9,0,2.8,0.1,4.7
			c-2.4,0.6-3.6,0.9-6,1.6c-0.3-9.4-0.2-18.9,0.1-28.4c3-1.2,4.5-1.8,7.6-2.9c5.6,8.4,10.8,17.2,15.3,26.2
			C1171.4,369.3,1170.1,369.5,1167.7,370z M1156.7,362.4c2.3-0.7,3.4-1,5.7-1.6c-2.2-3.6-3.3-5.4-5.5-8.8
			C1156.8,356.3,1156.7,358.3,1156.7,362.4z"/>
		<path id="A_1_" class="st0" d="M1191.7,366.5c-0.8-2.1-1.2-3.2-2.1-5.3c-3.5,0.4-5.2,0.7-8.7,1.3c-0.2,2.2-0.2,3.2-0.4,5.4
			c-2.4,0.3-3.7,0.5-6.1,0.9c0.6-10.8,1.7-21.5,2.8-32.2c3.1-0.9,4.7-1.3,7.8-2.1c4.6,10.5,8.8,20.9,12.8,31.6
			C1195.4,366.2,1194.1,366.3,1191.7,366.5z M1181.4,356.5c2.3-0.4,3.5-0.6,5.8-1c-1.8-4.4-2.8-6.5-4.7-10.7
			C1182,349.5,1181.8,351.8,1181.4,356.5z"/>
		<path id="A_2_" class="st0" d="M1216,365.5c-0.6-2.5-0.9-3.7-1.6-6.2c-3.5,0.1-5.3,0.2-8.8,0.4c-0.4,2.4-0.6,3.6-0.9,6
			c-2.5,0.1-3.7,0.2-6.2,0.3c1.7-12,3.7-23.9,5.9-35.8c3.2-0.6,4.8-0.8,8.1-1.3c3.7,12.1,7,24.4,9.8,36.7
			C1219.7,365.5,1218.5,365.5,1216,365.5z M1206.7,353.1c2.4-0.2,3.6-0.3,5.9-0.4c-1.4-5.1-2.1-7.6-3.7-12.6
			C1208,345.3,1207.5,347.9,1206.7,353.1z"/>
		<path id="L" class="st0" d="M1225.2,327.4c2.7-0.3,4-0.4,6.7-0.6c-0.3,10.7-0.5,21.3-0.8,32c3,0.1,4.5,0.2,7.5,0.4
			c-0.2,3-0.2,4.5-0.4,7.5c-5.3-0.5-7.9-0.7-13.2-1C1225.2,352.9,1225.2,340.1,1225.2,327.4z"/>
	</g>
</g>
</svg>
