<?xml version="1.0" encoding="utf-8"?>
<!-- Generator: Adobe Illustrator 22.1.0, SVG Export Plug-In . SVG Version: 6.00 Build 0)  -->
<svg version="1.1" id="Calque_1" xmlns="http://www.w3.org/2000/svg" xmlns:xlink="http://www.w3.org/1999/xlink" x="0px" y="0px"
	 viewBox="0 0 1920 1080" style="enable-background:new 0 0 1920 1080;" xml:space="preserve">
<style type="text/css">
	.st0{fill:#00374E;}
</style>
<g>
	<path class="st0" d="M686.6,443.3c-1.7,1-4.1,1.6-7.1,1.6c-4.8,0-8.5-1.8-11-5.5c-2.5-3.6-3.8-8.5-3.8-14.4c0-6,1.3-10.8,3.8-14.4
		c2.5-3.6,6.3-5.5,11.5-5.5c4.5,0,7.8,1.8,10.1,5.3l26.8,0c-2.3-8-6.6-14.3-12.9-18.7c-6.7-4.8-14.9-7.2-24.6-7.2
		c-11.7,0-21.1,3.7-28.5,11c-7.3,7.3-11,17.2-11,29.5c0,12.3,3.7,22.2,11,29.5c7.3,7.4,16.8,11.1,28.5,11.1c9.5,0,17.6-2.5,24.4-7.5
		c6.5-4.8,10.9-11.1,13.2-19l-26.6,0C689.3,441.1,688,442.5,686.6,443.3z"/>
	<path class="st0" d="M747.8,400.1l0-14.8l-24.3,0l0,79.3l24.3,0l0-36.3c0-6.6,1.4-11.3,4.2-13.9c2.8-2.6,7-4,12.6-4l6,0l0-26
		C761.1,384.5,753.5,389.7,747.8,400.1z"/>
	<path class="st0" d="M1027.7,378.4c3.4,0,6.2-1.2,8.6-3.5c2.3-2.3,3.5-5.2,3.5-8.6c0-3.4-1.2-6.3-3.5-8.6c-2.3-2.3-5.2-3.5-8.6-3.5
		c-3.4,0-6.2,1.2-8.6,3.5c-2.3,2.3-3.5,5.2-3.5,8.6c0,3.4,1.2,6.3,3.5,8.6C1021.4,377.2,1024.3,378.4,1027.7,378.4z"/>
	<path class="st0" d="M980.4,385.4l0-21.2l-24.3,0l0,21.2l-7.4,0l0,20.2l7.4,0l0,33c0,9.6,2.4,16.3,7.3,20.2
		c4.9,3.9,11.8,5.9,20.7,5.9l24.1,0l0-20.6l-20.4,0c-4.9,0-7.4-1.8-7.4-5.5l0-33l35.2,0l0,59.1l24.3,0l0-79.3L980.4,385.4z"/>
	<polygon class="st0" points="1106.6,385.4 1088.5,444.3 1070.5,385.4 1044.6,385.4 1072.8,464.6 1104.3,464.6 1132.4,385.4 	"/>
	<path class="st0" d="M1276.7,429.2c-2.2-3.1-4.4-5.1-8.3-6.6c-6.4-2.7-13.2-4.4-21.5-6.1c-7.7-1.6-11.6-3.7-11.6-7.2
		c0-3.9,3.2-6.3,9.5-6.3c3.2,0,5.6,0.8,7.2,1.9c1.6,1.1,2.6,2.9,2.8,5.6l24.9,0c-0.4-8.1-3.7-14.4-9.9-19c-6.3-4.6-14.5-7-24.6-7
		c-10.2,0-18.3,2.4-24.2,7.1c-6,4.7-8.9,10.6-8.9,17.6c0,5.1,1.5,9.3,4.6,12.4c3.1,3.2,6.8,5.4,11.2,6.7c4.4,1.3,8.8,2.4,13.1,3.2
		c5.4,1,15.8,2.2,15.8,8.1c0,2.1-0.9,3.8-2.8,5.1c-1.8,1.3-4.2,2-7,2c-6.7,0-9.6-2.8-10.2-7.7l-24.9,0c0,9.4,4.1,15.6,10.5,20
		c6.4,4.4,14.5,6.6,24.1,6.6c9.7,0,17.7-2.3,24-7c6.3-4.7,9.5-10.7,9.5-18.1C1280,436,1278.9,432.3,1276.7,429.2z"/>
	<path class="st0" d="M841.4,395.3c-7.7-7.2-17.3-10.8-29-10.8c-11.7,0-21.1,3.6-28.5,10.9c-7.3,7.3-11,17.1-11,29.4
		c0,12.3,3.7,22.2,11.1,29.6c7.4,7.4,16.9,11.2,28.4,11.2c9.4,0,17.5-2.4,24.3-7.3c6.8-4.9,11.4-11.3,13.6-19.2l-24.8,0
		c-0.7,1.1-1.6,2.2-2.7,3.1c-2.7,2.4-6,3.5-9.9,3.5c-3.9,0-7.3-1.2-10.2-3.5c-2.9-2.4-4.5-5.4-4.9-9.2c0,0,0,0,0,0l54.6,0
		c0.4-2.4,0.6-4.9,0.6-7.7C852.9,412.5,849.1,402.5,841.4,395.3z M797.9,417.8c0.7-4,2.3-7.3,5-9.8c2.7-2.5,5.9-3.8,9.8-3.8
		c3.9,0,7.3,1.3,10.1,3.8c2.9,2.5,4.5,5.8,4.8,9.8L797.9,417.8z"/>
	<path class="st0" d="M1196.3,395.3c-7.7-7.2-17.3-10.8-29-10.8c-11.7,0-21.1,3.6-28.5,10.9c-7.3,7.3-11,17.1-11,29.4
		c0,12.3,3.7,22.2,11.1,29.6c7.4,7.4,16.9,11.2,28.4,11.2c9.4,0,17.5-2.4,24.3-7.3c6.8-4.9,11.4-11.3,13.6-19.2l-24.8,0
		c-0.7,1.1-1.6,2.2-2.7,3.1c-2.7,2.4-6,3.5-9.9,3.5c-3.9,0-7.3-1.2-10.2-3.5c-2.9-2.4-4.5-5.4-4.9-9.2c0,0,0,0,0,0l54.6,0
		c0.4-2.4,0.6-4.9,0.6-7.7C1207.8,412.5,1203.9,402.5,1196.3,395.3z M1152.8,417.8c0.7-4,2.3-7.3,5-9.8c2.7-2.5,5.9-3.8,9.8-3.8
		c3.9,0,7.3,1.3,10.1,3.8c2.9,2.5,4.5,5.8,4.8,9.8L1152.8,417.8z"/>
	<path class="st0" d="M917.5,385.4l0,9c-5.3-6.5-12.8-9.8-22.2-9.8c-10.1,0-18.7,3.8-25.7,11.4c-7,7.6-10.5,17.4-10.5,29.2
		c0,11.8,3.5,21.5,10.5,29.1c7,7.6,15.5,11.4,25.4,11.4c9.3,0,16.8-3.7,22.6-11l0,10l24.3,0l0-79.3L917.5,385.4z M899.1,444.5
		c-4.4,0-8.3-1.7-11.7-5c-3.4-3.3-5.1-8.1-5.1-14.4c0-6.2,1.7-11,5.1-14.4c3.4-3.4,7.3-5.1,11.7-5.1c4.4,0,16.8,0.5,16.8,19.4
		C915.9,443.8,903.5,444.5,899.1,444.5z"/>
</g>
</svg>
